# Blender 5.0.1
# www.blender.org
mtllib MyMan.mtl
o Sphere.003
v -0.248607 18.063591 0.026976
v -0.265865 16.602402 -1.557413
v -0.097453 15.709463 -1.259316
v 0.101096 17.821033 -0.896231
v -0.054125 17.052082 -1.498440
v -0.058522 16.169895 -1.495979
v 0.229992 17.317095 -1.333542
v 0.307833 16.757826 -1.494273
v 0.275146 16.328442 -1.474935
v 0.209165 15.263614 -0.545660
v 0.455829 15.916202 -1.248162
v 0.438459 17.566183 -1.059005
v 0.731216 17.039059 -1.205188
v 0.804520 16.470789 -1.218069
v 0.311902 15.479300 -0.917483
v 0.064232 15.189943 -0.322478
v 0.872177 17.335135 -0.874972
v 0.856135 15.924898 -0.929017
v -0.025691 18.042543 -0.379070
v 0.630305 17.763786 -0.583821
v 1.120912 16.900173 -0.782254
v 1.262716 16.614307 -0.505911
v 1.132457 16.430048 -0.805279
v 0.858395 15.666030 -0.599759
v 0.537914 15.400938 -0.544745
v 0.258297 17.969490 -0.504072
v 1.094771 17.303717 -0.486013
v 1.194009 16.155132 -0.498915
v 0.970857 17.562586 -0.180954
v 1.283229 16.900173 -0.249096
v 0.986771 15.687763 -0.212391
v 1.242333 17.073483 0.040647
v 1.308486 16.614307 0.060477
v 1.257419 16.189556 0.005404
v 0.424700 15.274549 -0.104777
v 0.373518 17.962708 0.104260
v 0.752636 17.769451 0.034100
v 1.061168 17.335135 0.306067
v 1.191630 16.471436 0.469850
v 1.061168 15.893480 0.306067
v 0.752635 15.459164 0.034100
v 1.122265 16.900173 0.564393
v 0.585290 17.747025 0.463669
v 0.861427 17.303717 0.707241
v 0.972292 16.470787 0.834967
v 0.861427 15.924899 0.707241
v 0.578121 17.301590 0.958796
v 0.769139 16.900173 0.995561
v 0.646679 16.471434 1.111286
v 0.578121 15.927025 0.958796
v 0.607809 15.580696 0.602039
v 0.323992 15.304989 0.351791
v 0.279438 17.647919 0.833467
v 0.240238 17.303715 1.125218
v 0.261458 16.757828 1.293012
v 0.291474 16.189556 1.224906
v 0.184057 15.687762 0.975172
v 0.085973 18.043987 0.076237
v 0.046814 17.902241 0.565027
v -0.254850 17.540852 1.016034
v -0.273570 16.722130 1.345158
v 0.075094 15.399029 0.673794
v -0.404893 17.060572 1.269049
v -0.206979 16.159800 1.278614
v -0.254850 15.687762 1.016034
v 0.025301 15.180573 0.120845
v -0.675985 17.540852 0.885824
v -0.551368 16.328442 1.259606
v -0.626923 15.927024 1.080355
v -0.750774 17.172876 1.088546
v -0.847042 16.614307 1.164473
v -1.097837 16.781807 0.984381
v -0.965548 16.159800 1.006723
v -0.688656 15.580696 0.762379
v -0.297874 15.260786 0.419003
v -0.473365 17.916885 0.473368
v -0.963087 17.565952 0.627639
v -1.161908 17.172876 0.763034
v -1.241336 16.328442 0.799586
v -1.074057 15.872236 0.743486
v -0.604927 15.388040 0.547714
v -1.278682 17.335135 0.447803
v -1.433922 16.757830 0.557485
v -0.955582 17.773941 0.261131
v -1.589444 16.722132 0.042911
v -1.504548 16.328442 0.308340
v -1.370993 15.924899 0.270685
v -1.079242 15.580696 0.309885
v -1.421116 17.303717 0.022891
v -0.772083 15.310796 0.074118
v -0.906320 17.829586 -0.364545
v -1.559732 16.900173 -0.246239
v -1.524389 16.159800 -0.176532
v -1.241395 15.662662 -0.171073
v -0.407258 15.189944 0.013364
v -1.373415 17.303715 -0.478031
v -1.398487 16.900173 -0.779721
v -1.524719 16.470785 -0.553609
v -1.129777 17.660755 -0.378221
v -1.207940 17.301590 -0.818854
v -1.222979 15.910824 -0.809729
v -1.186961 15.682778 -0.521189
v -0.790346 15.326042 -0.355067
v -1.045362 16.900173 -1.210889
v -1.248514 16.470785 -1.050295
v -0.544720 18.019356 -0.143037
v -0.731243 17.647919 -0.949252
v -0.959463 17.303715 -1.101911
v -1.009360 16.155134 -1.188657
v -0.732702 15.486560 -0.818672
v -0.801994 16.614307 -1.403879
v -0.242906 15.165384 -0.252118
v -0.508834 17.833485 -0.819120
v -0.467287 17.554697 -1.174761
v -0.556211 17.049700 -1.441654
v -0.556211 16.178915 -1.441654
v -0.587353 15.682777 -1.141718
v -0.452206 17.972769 -0.559868
v -0.142240 17.544298 -1.237272
v -0.302529 15.313566 -0.756083
v 0.074001 8.140708 -4.264299
v 0.003401 7.653973 -4.219162
v 0.113033 7.383254 -4.100080
v 0.039038 7.113009 -3.912000
v 0.357732 7.990324 -4.195714
v 0.373533 7.457150 -4.040704
v 0.630109 7.969135 -4.000084
v 0.650249 7.637778 -3.871455
v 0.307345 7.113366 -3.802512
v 0.839775 8.055609 -3.633449
v 0.583250 7.338702 -3.719534
v 0.148988 6.968185 -3.622831
v 0.765577 7.606411 -3.592521
v 0.866884 8.001606 -3.286243
v 0.547276 7.196573 -3.466168
v 0.746851 7.525258 -3.300436
v 0.759404 7.866731 -2.978280
v 0.543518 7.318682 -3.072244
v 0.372769 7.035567 -3.359084
v 0.518219 7.733259 -2.730008
v 0.073428 6.923816 -3.456644
v 0.233649 7.908353 -2.538700
v 0.216101 7.490131 -2.693656
v 0.202757 7.144679 -2.960958
v 0.128487 6.983558 -3.197981
v -0.103201 7.775405 -2.537287
v -0.059021 7.275894 -2.801013
v -0.448738 7.921139 -2.614012
v -0.152799 7.025911 -3.101150
v -0.418967 7.461857 -2.780169
v -0.362419 7.134256 -3.060251
v -0.111274 6.931271 -3.378999
v -0.590303 7.257872 -3.231950
v -0.773614 7.943868 -2.913994
v -0.713044 7.537939 -3.078153
v -0.902950 7.998250 -3.323665
v -0.807079 7.601118 -3.344707
v -0.406779 7.038939 -3.433531
v -0.856806 7.886303 -3.634177
v -0.677907 7.365371 -3.587290
v -0.791575 8.052341 -3.818109
v -0.365557 7.080216 -3.692750
v -0.665411 7.637794 -3.886166
v -0.569637 8.108321 -4.079413
v -0.496259 7.491713 -4.000152
v -0.253374 7.993084 -4.242242
v -0.222957 7.444951 -4.112344
v -0.216966 7.123011 -3.883250
v -0.116400 6.966102 -3.663292
v 0.142127 13.922762 -3.397734
v -0.152942 13.922815 -3.426735
v -0.103052 14.447405 -2.907827
v 0.062241 14.294711 -3.125335
v 0.403894 13.634890 -3.410844
v 0.290466 14.118658 -3.195974
v 0.624686 13.495126 -3.238595
v -0.018203 14.493966 -2.724552
v 0.495463 14.099745 -2.988994
v 0.258433 14.393887 -2.810075
v 0.678074 13.851816 -2.923134
v 0.780227 13.446883 -2.939441
v 0.469472 14.240046 -2.594571
v 0.708773 13.827417 -2.552937
v 0.812579 13.404841 -2.596308
v 0.618957 13.797854 -2.267635
v 0.163156 14.440845 -2.500697
v 0.454443 14.177771 -2.367362
v 0.703017 13.370459 -2.263115
v 0.101557 14.365614 -2.278682
v 0.419939 13.757148 -2.026978
v 0.481079 13.314480 -2.001811
v 0.240377 14.159757 -2.123826
v 0.175598 13.299990 -1.847396
v -0.026361 14.138329 -2.026997
v 0.100628 13.706888 -1.863443
v -0.170094 13.293956 -1.815533
v -0.245891 13.881601 -1.911003
v -0.497169 13.422171 -1.914911
v -0.240455 14.320934 -2.205048
v -0.109397 14.451056 -2.381011
v -0.771118 13.319759 -2.146574
v -0.512916 14.166912 -2.220748
v -0.711553 13.794071 -2.168162
v -0.855123 13.836960 -2.547314
v -0.930580 13.367666 -2.459798
v -0.429854 14.384761 -2.502705
v -0.709595 14.122097 -2.528505
v -0.948046 13.537203 -2.766917
v -0.711928 14.077565 -2.884906
v -0.851901 13.444830 -3.125725
v -0.482536 14.379514 -2.669500
v -0.741882 13.861033 -3.094196
v -0.454310 14.277311 -2.998426
v -0.556687 13.513672 -3.439072
v -0.456642 13.915024 -3.330220
v -0.057236 13.512793 -3.586084
v -0.193831 14.270902 -3.160852
v -0.190622 14.493407 -2.587937
v -0.219527 0.899080 -2.368162
v 0.314628 0.890075 -2.332841
v 0.061963 0.491127 -2.192044
v 0.691992 0.890816 -2.173072
v 0.526307 0.510967 -2.049208
v 0.951512 0.885881 -1.922892
v 0.743360 0.512360 -1.851454
v 0.390737 0.268671 -1.782276
v 1.083653 0.986901 -1.627453
v 0.952806 0.657374 -1.639969
v 0.683070 0.368324 -1.517523
v 1.063550 0.884398 -1.423554
v 0.048816 0.165113 -1.633442
v 0.809512 0.513020 -1.344750
v 0.951512 0.885880 -1.154654
v 0.713336 0.876138 -0.922905
v 0.647760 0.511631 -1.119235
v 0.363362 0.237198 -1.383549
v 0.383615 0.510452 -0.956964
v 0.368351 0.322327 -1.172377
v 0.389706 0.908195 -0.755837
v -0.132745 0.877465 -0.710952
v -0.049996 0.268867 -1.142514
v -0.110543 0.491127 -0.885502
v 0.016905 0.171062 -1.436963
v -0.517073 0.874260 -0.796387
v -0.746348 0.978528 -0.896672
v -0.707954 0.581945 -1.039745
v -1.015917 0.978786 -1.154984
v -0.791940 0.512358 -1.226091
v -0.416519 0.273729 -1.262393
v -1.134074 0.987049 -1.464270
v -1.027562 0.697042 -1.407133
v -1.079377 0.891680 -1.779969
v -0.858093 0.513020 -1.732796
v -0.731653 0.368326 -1.560020
v -0.349243 0.201326 -1.510476
v -0.882564 0.885261 -2.059400
v -0.588344 0.875484 -2.251990
v -0.583349 0.502483 -2.052050
v -0.360893 0.275541 -1.855733
v 0.027883 0.271826 -1.936713
v 0.058259 7.901353 -2.403101
v 0.763371 7.901353 -2.153839
v 1.089133 7.901354 -1.702593
v 1.013171 7.901354 -1.197594
v 0.588493 7.901353 -0.818432
v -0.052328 7.901354 -0.682116
v -0.758716 7.901355 -0.879008
v -1.093772 7.901353 -1.280628
v -1.129293 7.901353 -1.758998
v -0.683276 7.901354 -2.235195
v 0.001047 0.898835 0.589803
v 0.061965 0.491127 0.778724
v 0.513901 0.890376 0.703728
v 0.526308 0.510969 0.921558
v 0.833984 0.885262 0.911368
v 0.016904 0.171062 1.330183
v 0.743359 0.512360 1.119314
v 0.388033 0.275833 1.170563
v 1.045920 0.985497 1.193937
v 0.978981 0.697042 1.300355
v 0.621082 0.329039 1.384367
v 1.063318 0.879368 1.569226
v 0.809510 0.513020 1.626019
v 0.967335 0.978786 1.815786
v 0.424873 0.265543 1.625350
v 0.744518 0.666049 1.909140
v 0.492591 0.378040 1.805846
v 0.691953 0.985055 2.079631
v 0.417387 0.580677 2.063163
v 0.298922 0.977084 2.239067
v 0.067657 0.568419 2.135157
v -0.142501 0.970366 2.270242
v 0.027892 0.271830 1.829939
v -0.480147 0.876565 2.192287
v -0.439060 0.502069 2.018294
v 0.048813 0.165113 1.526661
v -0.830235 0.882385 2.003913
v -0.360882 0.275539 1.748960
v -1.017370 0.877185 1.786940
v -0.791940 0.512358 1.744676
v -1.146677 0.987780 1.424599
v -1.001389 0.657375 1.533190
v -0.730287 0.377234 1.513026
v -1.011894 0.670660 1.300648
v -0.708069 0.381565 1.270436
v -0.349246 0.201326 1.403698
v -1.000093 0.885879 1.047877
v -0.761917 0.876139 0.816128
v -0.696345 0.511633 1.012458
v -0.476663 0.880972 0.669095
v -0.432198 0.510454 0.850187
v -0.360893 0.275539 1.115036
v 0.027886 0.271830 1.034050
v 0.172208 7.901354 0.588084
v 0.676898 7.901353 0.768048
v 1.013172 7.901355 1.090818
v 1.076675 7.901354 1.676257
v 0.610557 7.901355 2.138426
v -0.106840 7.901354 2.296324
v -0.834053 7.901354 2.034030
v -1.131512 7.901353 1.594627
v -1.105034 7.901353 1.202650
v -0.851034 7.901354 0.847269
v -0.371311 7.901354 0.623528
v 0.284207 7.900801 -2.373237
v -0.012026 9.763943 -2.395692
v 0.525680 9.790911 -2.279801
v 0.834783 7.900801 -2.086052
v 0.859366 9.790616 -2.062850
v 1.075040 7.900801 -1.737844
v 1.071752 9.788010 -1.732648
v -1.123622 7.900801 -1.737843
v -1.122954 9.761771 -1.724034
v -0.883364 7.900801 -2.086052
v -0.907947 9.790616 -2.062850
v -0.462467 7.900801 -2.326269
v -0.564737 9.806791 -2.285656
v 1.050293 7.900801 1.722200
v 1.077135 9.832123 1.625607
v 0.497156 7.900801 2.204554
v 0.853896 9.775074 1.960860
v 0.440334 9.789351 2.214471
v -0.362414 7.900801 2.257640
v -0.135296 9.790972 2.280814
v -0.574261 9.790913 2.174351
v -0.955181 7.900801 1.920094
v -0.907946 9.790615 1.957401
v -1.130558 7.900801 1.565426
v -1.124207 9.813515 1.620344
v 0.105631 12.840862 -2.782669
v 0.334843 11.935894 -2.568144
v 0.600244 12.848957 -2.670208
v 0.765385 12.023231 -2.403907
v 1.068702 12.056625 -2.126039
v 1.196526 12.059990 -1.822739
v -1.244305 12.053341 -1.823057
v -1.160944 12.059177 -2.046129
v -0.983924 12.058352 -2.279196
v -0.607266 11.935837 -2.497352
v -0.409104 12.848684 -2.745936
v -0.145613 11.925573 -2.602677
v 1.159663 12.053728 1.851504
v 1.228997 12.371756 1.615479
v 0.935340 12.058352 2.173748
v 0.600240 12.848961 2.564761
v 0.558683 11.935835 2.391903
v 0.105635 12.840872 2.677220
v 0.097036 11.925587 2.497227
v -0.409107 12.848701 2.640489
v -0.383427 11.935901 2.462694
v -0.813970 12.023230 2.298455
v -1.117285 12.056631 2.020588
v -1.408091 13.481501 1.949838
v -1.259753 12.271914 1.740049
v 0.114255 13.464440 -2.963889
v 0.575291 13.708673 -2.941901
v 0.103966 14.156395 -3.003293
v 0.364163 14.797371 -2.264444
v 0.681790 14.446514 -2.708776
v 0.591453 14.150272 -2.894498
v 0.872650 13.819301 -2.794997
v 0.983963 14.156511 -2.651766
v 1.058970 13.377440 -2.542358
v 0.756253 14.660068 -2.268383
v 1.271385 13.753831 -2.407900
v 1.055095 14.438930 -2.257114
v 1.246765 14.159311 -2.270082
v 1.368003 13.834561 -2.124233
v 1.353374 13.444065 -2.047299
v -0.468976 14.795339 -2.139810
v -0.819039 14.657957 -2.216074
v -1.075898 14.443787 -2.340980
v -1.313632 14.162445 -2.165238
v -1.402657 13.819708 -2.223599
v -1.401956 13.444063 -2.047300
v -1.173160 14.160222 -2.493141
v -1.258416 13.407351 -2.377492
v -0.211440 14.797466 -2.382027
v -0.541234 14.660210 -2.549233
v -1.115844 13.824295 -2.647888
v -0.944361 13.248808 -2.626382
v -0.720906 14.438747 -2.701282
v -0.852621 14.153083 -2.787435
v -0.758298 13.728708 -2.883700
v -0.026540 14.842937 -2.061133
v -0.435657 13.451749 -2.918649
v -0.134245 14.453750 -2.886877
v -0.402984 14.148304 -2.968411
v 0.219313 14.672684 -2.657969
v -0.162922 13.823648 -3.032432
v 1.384645 13.716911 2.003727
v 1.265051 14.162445 2.059788
v 1.045846 14.446924 2.155551
v 0.764119 14.659387 2.118570
v 0.420396 14.795340 2.034356
v 1.124579 14.160222 2.387690
v 1.219308 13.829656 2.370314
v 1.209835 13.407352 2.272042
v 0.162849 14.797462 2.276591
v 0.492653 14.660210 2.443783
v 0.681790 14.446513 2.603326
v -0.022075 14.842941 1.955635
v 0.804035 14.153084 2.681988
v 0.872649 13.819302 2.689548
v 0.871281 13.382694 2.586952
v 0.354399 14.148304 2.862962
v 0.396680 13.699179 2.881052
v -0.105672 14.662170 2.572285
v -0.134244 14.453750 2.781427
v -0.152550 14.156397 2.897841
v -0.165354 13.707536 2.925600
v -0.412750 14.797371 2.158991
v -0.640032 14.150272 2.789048
v -0.705023 13.702075 2.799207
v -0.744014 14.669083 2.275637
v -0.720904 14.438749 2.595833
v -0.944362 13.248810 2.520931
v -1.032539 14.156511 2.546319
v -1.115841 13.824294 2.542439
v -1.084742 14.444532 2.221308
v -1.258417 13.407351 2.272040
v -1.295345 14.159310 2.164635
v -1.400019 13.837486 2.121546
v -0.138004 7.800272 2.417731
v 0.212691 7.790888 2.451286
v 0.086855 7.236806 2.648413
v 0.005008 6.909263 2.982333
v 0.401027 7.668525 2.559992
v 0.639566 7.719614 2.749833
v 0.464351 7.181710 2.917061
v 0.286738 6.915841 3.156086
v 0.014698 6.806324 3.338823
v 0.814075 7.873790 3.032621
v 0.719733 7.450790 3.109631
v 0.848939 7.881065 3.371890
v 0.745018 7.469852 3.418309
v 0.520612 7.083197 3.442187
v 0.755204 7.950686 3.705192
v 0.665837 7.512119 3.704482
v 0.536628 7.844702 3.973016
v 0.435096 7.269719 3.836309
v 0.314708 8.001256 4.105749
v 0.179039 6.987933 3.766100
v 0.198436 7.553927 4.102154
v 0.179363 6.867428 3.540243
v -0.026968 7.989414 4.187339
v -0.047861 7.274426 4.034906
v -0.440079 7.996573 4.083908
v -0.308712 7.567638 4.089691
v -0.158690 7.010442 3.820338
v -0.609525 7.852061 3.972136
v -0.449035 7.152049 3.794628
v -0.814495 7.948968 3.721629
v -0.683605 7.525957 3.803457
v -0.702322 7.300103 3.577429
v -0.912286 7.800077 3.410608
v -0.364379 6.924517 3.541582
v -0.172756 6.852490 3.549845
v -0.888551 7.871848 3.050239
v -0.820379 7.466629 3.199514
v -0.599025 7.072436 3.388114
v -0.659891 7.302560 2.954732
v -0.395818 6.926202 3.189641
v -0.730987 7.854324 2.741148
v -0.467805 7.817877 2.524862
v -0.479697 7.432159 2.670825
v -0.310125 7.117686 2.808838
v -0.225016 6.909772 3.038990
v -0.169001 6.823133 3.285806
v -0.137498 7.380602 2.569741
v -0.073905 14.067299 2.031165
v 0.016895 13.636778 1.832302
v 0.232576 14.214834 2.205234
v 0.260027 13.190885 1.819005
v 0.240413 13.878989 1.945294
v 0.518971 13.354588 1.931160
v 0.025327 14.323917 2.303519
v 0.625100 13.650689 2.105128
v 0.838792 13.267181 2.310027
v 0.540137 13.974126 2.215907
v 0.399113 14.225103 2.369958
v 0.801832 13.676335 2.421079
v 0.202492 14.373212 2.607943
v 0.908535 13.301716 2.743255
v 0.457309 14.244297 2.601885
v 0.690030 13.994627 2.640640
v 0.791092 13.740911 2.823505
v 0.811293 13.339407 3.074431
v 0.575718 13.965566 3.031353
v 0.348780 14.280319 2.822592
v 0.591711 13.761827 3.198919
v 0.601201 13.364252 3.343906
v 0.267371 13.809667 3.369548
v 0.213332 14.196518 3.086291
v 0.203528 13.419237 3.539779
v 0.033782 13.968580 3.326862
v 0.036727 14.337740 2.893599
v -0.219119 13.519576 3.496321
v -0.285315 14.020099 3.200647
v -0.210398 14.234546 3.002531
v -0.487881 13.529297 3.361073
v -0.506636 13.978806 3.048250
v -0.147045 14.366393 2.514291
v -0.327669 14.286207 2.765794
v -0.720453 13.459270 3.145665
v -0.632869 13.965428 2.804135
v -0.849693 13.451118 2.761388
v -0.739470 13.743545 2.446531
v -0.306901 14.289244 2.458953
v -0.835339 13.272404 2.423197
v -0.512271 14.122658 2.446238
v -0.603488 13.667278 2.137782
v -0.672065 13.255056 2.116197
v -0.385215 14.062071 2.178830
v -0.413249 13.195070 1.898340
v -0.319819 13.633673 1.902912
v -0.086554 13.211490 1.793236
v 0.007267 14.398999 2.645640
vn -0.0774 0.9911 0.1081
vn -0.0853 -0.0065 -0.9963
vn 0.0277 -0.6229 -0.7818
vn 0.1424 0.8317 -0.5367
vn 0.0445 0.2984 -0.9534
vn 0.0525 -0.3097 -0.9494
vn 0.2676 0.4703 -0.8410
vn 0.3128 0.0960 -0.9450
vn 0.2964 -0.1923 -0.9355
vn 0.2234 -0.9250 -0.3074
vn 0.4093 -0.4746 -0.7793
vn 0.4034 0.6485 -0.6455
vn 0.5948 0.2788 -0.7540
vn 0.6425 -0.0969 -0.7602
vn 0.3045 -0.7636 -0.5694
vn 0.1371 -0.9801 -0.1438
vn 0.6890 0.5010 -0.5237
vn 0.6752 -0.4675 -0.5707
vn 0.0623 0.9757 -0.2102
vn 0.5368 0.7816 -0.3178
vn 0.8547 0.1972 -0.4802
vn 0.9688 -0.0016 -0.2479
vn 0.8534 -0.1275 -0.5054
vn 0.6769 -0.6516 -0.3423
vn 0.4892 -0.8235 -0.2872
vn 0.2780 0.9241 -0.2621
vn 0.8426 0.4724 -0.2586
vn 0.9093 -0.3277 -0.2563
vn 0.7648 0.6416 -0.0577
vn 0.9740 0.1936 -0.1181
vn 0.7776 -0.6247 -0.0714
vn 0.9406 0.3203 0.1123
vn 0.9933 -0.0008 0.1157
vn 0.9537 -0.2924 0.0708
vn 0.3885 -0.9214 -0.0068
vn 0.3607 0.9236 0.1298
vn 0.6033 0.7924 0.0907
vn 0.8130 0.5084 0.2839
vn 0.9130 -0.1158 0.3912
vn 0.8193 -0.4955 0.2884
vn 0.6116 -0.7841 0.1052
vn 0.8670 0.1962 0.4580
vn 0.5040 0.7621 0.4065
vn 0.6804 0.4836 0.5507
vn 0.7579 -0.1131 0.6425
vn 0.7000 -0.4518 0.5530
vn 0.4903 0.4698 0.7341
vn 0.6138 0.1998 0.7637
vn 0.5372 -0.1071 0.8366
vn 0.4939 -0.4589 0.7386
vn 0.5154 -0.7115 0.4777
vn 0.3229 -0.8919 0.3166
vn 0.2895 0.7074 0.6448
vn 0.2415 0.4479 0.8609
vn 0.2640 0.1062 0.9587
vn 0.2760 -0.2863 0.9175
vn 0.2238 -0.6233 0.7493
vn 0.1541 0.9797 0.1278
vn 0.1136 0.8787 0.4637
vn -0.0724 0.6415 0.7637
vn -0.0726 0.0547 0.9959
vn 0.1302 -0.8322 0.5390
vn -0.1754 0.3121 0.9337
vn -0.0206 -0.3098 0.9506
vn -0.0768 -0.6400 0.7645
vn 0.1140 -0.9804 0.1608
vn -0.3630 0.6371 0.6799
vn -0.2906 -0.1867 0.9384
vn -0.3318 -0.4749 0.8151
vn -0.4345 0.3653 0.8233
vn -0.4767 0.0182 0.8789
vn -0.6510 0.1165 0.7501
vn -0.5599 -0.2929 0.7750
vn -0.3801 -0.6972 0.6078
vn -0.0980 -0.9219 0.3748
vn -0.2272 0.8853 0.4058
vn -0.5583 0.6526 0.5123
vn -0.6959 0.3803 0.6092
vn -0.7710 -0.1906 0.6076
vn -0.6457 -0.5114 0.5671
vn -0.3132 -0.8363 0.4500
vn -0.7982 0.4833 0.3594
vn -0.8887 0.1111 0.4449
vn -0.5643 0.7930 0.2299
vn -0.9907 0.0749 0.1135
vn -0.9344 -0.1982 0.2960
vn -0.8444 -0.4658 0.2647
vn -0.6403 -0.7139 0.2834
vn -0.8737 0.4749 0.1054
vn -0.4468 -0.8856 0.1263
vn -0.5132 0.8393 -0.1793
vn -0.9733 0.1983 -0.1153
vn -0.9468 -0.3157 -0.0625
vn -0.7582 -0.6512 -0.0310
vn -0.1974 -0.9763 0.0889
vn -0.8525 0.4610 -0.2465
vn -0.8626 0.1946 -0.4670
vn -0.9462 -0.1103 -0.3043
vn -0.6817 0.7086 -0.1823
vn -0.7222 0.4760 -0.5018
vn -0.7417 -0.4702 -0.4784
vn -0.7199 -0.6363 -0.2771
vn -0.4449 -0.8784 -0.1743
vn -0.6323 0.1992 -0.7486
vn -0.7654 -0.0906 -0.6371
vn -0.2937 0.9559 -0.0068
vn -0.4453 0.7050 -0.5519
vn -0.5616 0.4663 -0.6835
vn -0.5795 -0.3301 -0.7451
vn -0.4227 -0.7646 -0.4864
vn -0.4509 -0.0050 -0.8925
vn -0.0881 -0.9887 -0.1216
vn -0.2378 0.8347 -0.4967
vn -0.2208 0.6358 -0.7396
vn -0.2840 0.3037 -0.9095
vn -0.2840 -0.3054 -0.9089
vn -0.3148 -0.6266 -0.7129
vn -0.1988 0.9286 -0.3133
vn -0.0069 0.6424 -0.7664
vn -0.1028 -0.8864 -0.4513
vn 0.0908 0.0438 -0.9949
vn 0.0392 -0.2535 -0.9665
vn 0.1591 -0.4786 -0.8635
vn 0.0779 -0.7257 -0.6835
vn 0.4148 -0.0588 -0.9080
vn 0.4799 -0.4071 -0.7772
vn 0.7301 -0.0602 -0.6807
vn 0.7749 -0.2910 -0.5611
vn 0.4600 -0.7306 -0.5046
vn 0.9529 -0.0460 -0.2998
vn 0.7539 -0.5366 -0.3791
vn 0.2679 -0.9175 -0.2941
vn 0.9202 -0.3331 -0.2056
vn 0.9894 -0.1052 0.1004
vn 0.7544 -0.6536 -0.0602
vn 0.9008 -0.4127 0.1349
vn 0.8644 -0.1987 0.4618
vn 0.6810 -0.5763 0.4518
vn 0.5417 -0.8337 0.1076
vn 0.6067 -0.3048 0.7342
vn 0.1391 -0.9902 -0.0133
vn 0.2836 -0.2014 0.9376
vn 0.2826 -0.4880 0.8258
vn 0.3038 -0.7277 0.6149
vn 0.2044 -0.9091 0.3630
vn -0.1025 -0.2976 0.9492
vn -0.0694 -0.6256 0.7771
vn -0.4924 -0.2076 0.8452
vn -0.1830 -0.8640 0.4691
vn -0.4812 -0.4840 0.7309
vn -0.4723 -0.7315 0.4917
vn -0.1812 -0.9775 0.1080
vn -0.7483 -0.6160 0.2463
vn -0.8372 -0.1875 0.5138
vn -0.8139 -0.4168 0.4049
vn -0.9907 -0.1120 0.0766
vn -0.9330 -0.3540 0.0648
vn -0.5547 -0.8320 0.0098
vn -0.9498 -0.1654 -0.2656
vn -0.8193 -0.5263 -0.2274
vn -0.8601 -0.0334 -0.5091
vn -0.5374 -0.7556 -0.3746
vn -0.7793 -0.2913 -0.5548
vn -0.6112 -0.0104 -0.7914
vn -0.5804 -0.4015 -0.7084
vn -0.2821 -0.0558 -0.9578
vn -0.2561 -0.4215 -0.8699
vn -0.3007 -0.7018 -0.6458
vn -0.1572 -0.9309 -0.3297
vn 0.2439 0.4696 -0.8485
vn -0.1028 0.4692 -0.8771
vn -0.0623 0.9215 -0.3833
vn 0.1989 0.7524 -0.6279
vn 0.5272 0.2817 -0.8017
vn 0.4700 0.5961 -0.6510
vn 0.7819 0.2037 -0.5892
vn 0.1106 0.9871 -0.1161
vn 0.7139 0.5738 -0.4013
vn 0.4751 0.8461 -0.2415
vn 0.8730 0.3918 -0.2905
vn 0.9565 0.1450 -0.2532
vn 0.7345 0.6766 0.0513
vn 0.9256 0.3545 0.1323
vn 0.9867 0.1073 0.1222
vn 0.8138 0.3128 0.4897
vn 0.3723 0.9059 0.2017
vn 0.6918 0.6031 0.3971
vn 0.8672 0.0591 0.4944
vn 0.2707 0.7976 0.5390
vn 0.5770 0.2721 0.7701
vn 0.6161 0.0134 0.7875
vn 0.4352 0.5621 0.7033
vn 0.2832 -0.0151 0.9590
vn 0.0594 0.5530 0.8310
vn 0.2087 0.2246 0.9518
vn -0.1146 -0.0226 0.9932
vn -0.2378 0.3418 0.9092
vn -0.4743 0.0557 0.8786
vn -0.2351 0.7369 0.6338
vn -0.0507 0.9217 0.3846
vn -0.7789 0.0054 0.6271
vn -0.5712 0.5814 0.5795
vn -0.7360 0.2990 0.6073
vn -0.9267 0.3445 0.1502
vn -0.9587 0.0570 0.2788
vn -0.5442 0.7961 0.2648
vn -0.8016 0.5707 0.1782
vn -0.9806 0.1720 -0.0941
vn -0.7985 0.5415 -0.2630
vn -0.8693 0.1407 -0.4738
vn -0.5655 0.8228 -0.0563
vn -0.7802 0.3948 -0.4853
vn -0.4958 0.7338 -0.4645
vn -0.5246 0.2084 -0.8255
vn -0.4514 0.4593 -0.7651
vn 0.0132 0.2167 -0.9761
vn -0.1666 0.7157 -0.6782
vn -0.1755 0.9826 0.0602
vn -0.1268 -0.2218 -0.9668
vn 0.2348 -0.2154 -0.9479
vn 0.0529 -0.6082 -0.7920
vn 0.5401 -0.2281 -0.8101
vn 0.3983 -0.6196 -0.6764
vn 0.8027 -0.2460 -0.5433
vn 0.6191 -0.6553 -0.4329
vn 0.3213 -0.8882 -0.3285
vn 0.9770 -0.1360 -0.1645
vn 0.8281 -0.5416 -0.1446
vn 0.5578 -0.8296 0.0265
vn 0.9446 -0.2663 0.1919
vn 0.0565 -0.9883 -0.1417
vn 0.6920 -0.6637 0.2841
vn 0.8057 -0.2423 0.5404
vn 0.5662 -0.2380 0.7892
vn 0.5330 -0.6415 0.5517
vn 0.3052 -0.9338 0.1870
vn 0.2725 -0.5971 0.7545
vn 0.2901 -0.8269 0.4817
vn 0.2697 -0.2076 0.9403
vn -0.0599 -0.2122 0.9754
vn -0.0139 -0.8613 0.5079
vn -0.0651 -0.6075 0.7916
vn 0.0280 -0.9841 0.1752
vn -0.3319 -0.2404 0.9122
vn -0.5676 -0.1438 0.8106
vn -0.5105 -0.5514 0.6598
vn -0.8181 -0.1759 0.5476
vn -0.6291 -0.6720 0.3907
vn -0.3059 -0.8673 0.3928
vn -0.9841 -0.1451 0.1025
vn -0.8486 -0.4947 0.1877
vn -0.9008 -0.2568 -0.3502
vn -0.6860 -0.6623 -0.3013
vn -0.5574 -0.8296 -0.0345
vn -0.2519 -0.9676 0.0170
vn -0.6860 -0.2406 -0.6866
vn -0.4045 -0.2317 -0.8847
vn -0.4122 -0.6368 -0.6516
vn -0.2612 -0.8697 -0.4189
vn 0.0386 -0.8513 -0.5232
vn 0.0447 0.6508 -0.7579
vn 0.4572 0.6466 -0.6106
vn 0.7531 0.6320 -0.1827
vn 0.6767 0.6386 0.3663
vn 0.3424 0.6543 0.6743
vn -0.0236 0.6580 0.7526
vn -0.4137 0.6468 0.6407
vn -0.7078 0.6456 0.2868
vn -0.7336 0.6283 -0.2590
vn -0.3788 0.6480 -0.6608
vn 0.0214 -0.2079 -0.9779
vn 0.0622 -0.6065 -0.7926
vn 0.3775 -0.2195 -0.8996
vn 0.3962 -0.6201 -0.6771
vn 0.6798 -0.2418 -0.6924
vn 0.0458 -0.9852 -0.1652
vn 0.6259 -0.6522 -0.4276
vn 0.3003 -0.8900 -0.3432
vn 0.9297 -0.1364 -0.3421
vn 0.8410 -0.5042 -0.1963
vn 0.5158 -0.8545 -0.0620
vn 0.9439 -0.2674 0.1937
vn 0.6969 -0.6675 0.2623
vn 0.8135 -0.1629 0.5582
vn 0.3312 -0.9161 0.2262
vn 0.6174 -0.4748 0.6272
vn 0.3912 -0.7686 0.5062
vn 0.5361 -0.1477 0.8311
vn 0.3181 -0.5301 0.7860
vn 0.2256 -0.1529 0.9621
vn 0.0483 -0.5325 0.8451
vn -0.0682 -0.1571 0.9852
vn 0.0403 -0.8492 0.5265
vn -0.3215 -0.2275 0.9192
vn -0.3008 -0.6157 0.7283
vn 0.0705 -0.9886 0.1330
vn -0.6130 -0.2394 0.7529
vn -0.2600 -0.8774 0.4032
vn -0.8412 -0.2461 0.4815
vn -0.6032 -0.6561 0.4534
vn -0.9898 -0.1423 -0.0118
vn -0.8253 -0.5391 0.1680
vn -0.5592 -0.8204 0.1192
vn -0.8225 -0.5277 -0.2121
vn -0.5497 -0.8031 -0.2300
vn -0.2561 -0.9664 -0.0232
vn -0.8127 -0.2335 -0.5338
vn -0.5696 -0.2364 -0.7872
vn -0.5376 -0.6325 -0.5576
vn -0.3020 -0.2266 -0.9260
vn -0.2736 -0.6087 -0.7447
vn -0.2450 -0.8697 -0.4285
vn 0.0366 -0.8550 -0.5173
vn 0.1034 0.6646 -0.7400
vn 0.3936 0.6631 -0.6367
vn 0.6905 0.6384 -0.3401
vn 0.7377 0.6223 0.2618
vn 0.3638 0.6507 0.6665
vn -0.0492 0.6511 0.7574
vn -0.4697 0.6447 0.6032
vn -0.7403 0.6418 0.2005
vn -0.7141 0.6513 -0.2566
vn -0.4833 0.6543 -0.5817
vn -0.1848 0.6681 -0.7207
vn 0.1580 -0.6569 -0.7373
vn 0.0038 -0.0460 -0.9989
vn 0.3885 -0.0508 -0.9200
vn 0.4996 -0.6599 -0.5612
vn 0.7093 -0.0489 -0.7032
vn 0.7291 -0.6463 -0.2252
vn 0.9603 -0.0364 -0.2764
vn -0.7287 -0.6463 -0.2264
vn -0.9611 -0.0345 -0.2741
vn -0.5075 -0.6623 -0.5513
vn -0.7091 -0.0469 -0.7036
vn -0.2173 -0.6641 -0.7153
vn -0.3785 -0.0499 -0.9243
vn 0.7055 -0.6322 0.3203
vn 0.9598 -0.0382 0.2782
vn 0.2874 -0.6483 0.7050
vn 0.6951 -0.0399 0.7178
vn 0.3255 -0.0517 0.9441
vn -0.1715 -0.6540 0.7367
vn -0.0592 -0.0539 0.9968
vn -0.3990 -0.0517 0.9155
vn -0.5534 -0.6510 0.5196
vn -0.7091 -0.0474 0.7035
vn -0.7322 -0.6603 0.1671
vn -0.9614 -0.0364 0.2729
vn 0.0721 -0.2332 -0.9697
vn 0.2290 -0.1485 -0.9620
vn 0.3574 -0.2206 -0.9075
vn 0.5349 -0.1554 -0.8305
vn 0.8171 -0.1383 -0.5597
vn 0.9766 -0.1009 -0.1900
vn -0.9802 -0.0979 -0.1719
vn -0.8697 -0.1297 -0.4762
vn -0.6721 -0.1577 -0.7234
vn -0.3794 -0.1529 -0.9125
vn -0.2173 -0.2251 -0.9498
vn -0.0780 -0.1537 -0.9850
vn 0.9184 -0.1110 0.3798
vn 0.9928 -0.1059 0.0552
vn 0.6797 -0.1536 0.7172
vn 0.3388 -0.2397 0.9098
vn 0.3837 -0.1402 0.9128
vn 0.0739 -0.2423 0.9674
vn 0.0757 -0.1447 0.9866
vn -0.2213 -0.2329 0.9470
vn -0.2267 -0.1444 0.9632
vn -0.5357 -0.1512 0.8307
vn -0.8158 -0.1276 0.5641
vn -0.9795 -0.0975 0.1762
vn -0.9772 -0.1160 0.1777
vn 0.0631 -0.2265 -0.9720
vn 0.3214 -0.1092 -0.9406
vn 0.1040 0.2508 -0.9624
vn 0.2108 0.9591 -0.1890
vn 0.4189 0.6064 -0.6759
vn 0.3338 0.2760 -0.9013
vn 0.5647 -0.0291 -0.8248
vn 0.6609 0.3264 -0.6758
vn 0.6409 -0.2007 -0.7409
vn 0.4639 0.8574 -0.2226
vn 0.8474 -0.0031 -0.5309
vn 0.7028 0.6697 -0.2400
vn 0.8671 0.4088 -0.2848
vn 0.9799 0.1228 -0.1572
vn 0.9783 -0.1137 -0.1733
vn -0.2416 0.9651 -0.1007
vn -0.4826 0.8612 -0.1596
vn -0.6760 0.6666 -0.3141
vn -0.8871 0.4365 -0.1498
vn -0.9543 0.0757 -0.2890
vn -0.9791 -0.1050 -0.1742
vn -0.7498 0.3550 -0.5583
vn -0.8121 -0.1728 -0.5574
vn -0.0876 0.9477 -0.3069
vn -0.2890 0.8223 -0.4903
vn -0.6978 -0.0047 -0.7162
vn -0.5499 -0.2297 -0.8030
vn -0.4314 0.5820 -0.6893
vn -0.5096 0.2998 -0.8065
vn -0.4164 -0.0892 -0.9048
vn 0.0036 0.9986 -0.0529
vn -0.2038 -0.2381 -0.9496
vn -0.0599 0.5730 -0.8173
vn -0.2340 0.2466 -0.9404
vn 0.1391 0.7973 -0.5873
vn -0.0672 -0.0494 -0.9965
vn 0.9785 0.0372 0.2028
vn 0.8963 0.4080 0.1736
vn 0.6878 0.6838 0.2437
vn 0.4783 0.8581 0.1871
vn 0.2412 0.9652 0.1008
vn 0.7528 0.3600 0.5510
vn 0.8161 0.0350 0.5768
vn 0.8044 -0.1702 0.5692
vn 0.0850 0.9514 0.2959
vn 0.2854 0.8203 0.4956
vn 0.4191 0.6003 0.6812
vn -0.0036 0.9986 0.0529
vn 0.5084 0.2631 0.8199
vn 0.5404 -0.0230 0.8411
vn 0.5428 -0.2102 0.8132
vn 0.2141 0.2606 0.9414
vn 0.2373 -0.1045 0.9658
vn -0.0631 0.8061 0.5884
vn -0.0615 0.5713 0.8184
vn -0.0734 0.2165 0.9735
vn -0.0761 -0.1007 0.9920
vn -0.2016 0.9608 0.1903
vn -0.3588 0.2523 0.8987
vn -0.3919 -0.0973 0.9148
vn -0.4167 0.8535 0.3130
vn -0.3928 0.6132 0.6854
vn -0.5531 -0.2331 0.7998
vn -0.6449 0.3154 0.6962
vn -0.6924 0.0073 0.7215
vn -0.6872 0.6707 0.2791
vn -0.8110 -0.1742 0.5585
vn -0.8746 0.3990 0.2755
vn -0.9517 0.0993 0.2904
vn -0.1131 -0.2280 -0.9671
vn 0.2466 -0.2185 -0.9442
vn 0.1740 -0.5775 -0.7976
vn 0.0909 -0.8496 -0.5195
vn 0.4940 -0.2955 -0.8177
vn 0.7605 -0.2374 -0.6044
vn 0.6163 -0.6072 -0.5014
vn 0.4719 -0.8425 -0.2598
vn 0.1052 -0.9941 -0.0276
vn 0.9490 -0.1364 -0.2842
vn 0.8820 -0.4059 -0.2394
vn 0.9884 -0.1171 0.0969
vn 0.9234 -0.3627 0.1254
vn 0.7339 -0.6655 0.1357
vn 0.8835 -0.0495 0.4657
vn 0.8248 -0.3179 0.4676
vn 0.6458 -0.0981 0.7571
vn 0.5847 -0.4894 0.6470
vn 0.3873 0.0183 0.9218
vn 0.3138 -0.7335 0.6030
vn 0.2759 -0.2702 0.9224
vn 0.3347 -0.9007 0.2769
vn -0.0065 -0.0034 1.0000
vn -0.0104 -0.4660 0.8847
vn -0.4192 0.0251 0.9075
vn -0.3174 -0.2636 0.9109
vn -0.1701 -0.7255 0.6669
vn -0.6513 -0.0830 0.7543
vn -0.5374 -0.5689 0.6226
vn -0.8778 -0.0282 0.4782
vn -0.7540 -0.3001 0.5844
vn -0.8327 -0.4586 0.3104
vn -0.9799 -0.1403 0.1415
vn -0.4861 -0.8245 0.2898
vn -0.1744 -0.9301 0.3234
vn -0.9542 -0.1264 -0.2711
vn -0.9202 -0.3704 -0.1269
vn -0.7426 -0.6666 0.0649
vn -0.7451 -0.5073 -0.4331
vn -0.5272 -0.8205 -0.2209
vn -0.7811 -0.1714 -0.6004
vn -0.4775 -0.1989 -0.8558
vn -0.5141 -0.4120 -0.7523
vn -0.3464 -0.6697 -0.6568
vn -0.2701 -0.8523 -0.4478
vn -0.2100 -0.9729 -0.0965
vn -0.1237 -0.4419 -0.8885
vn -0.1435 0.5955 -0.7904
vn 0.0122 0.2415 -0.9703
vn 0.2977 0.7368 -0.6071
vn 0.2562 -0.0092 -0.9666
vn 0.2916 0.4200 -0.8594
vn 0.5622 0.0779 -0.8233
vn -0.0144 0.8820 -0.4710
vn 0.7034 0.2802 -0.6532
vn 0.9054 0.0375 -0.4229
vn 0.6647 0.5184 -0.5379
vn 0.5357 0.7648 -0.3579
vn 0.9116 0.3098 -0.2700
vn 0.2736 0.9610 -0.0406
vn 0.9936 0.0991 0.0548
vn 0.6256 0.7797 -0.0280
vn 0.8242 0.5662 -0.0085
vn 0.9112 0.3563 0.2070
vn 0.8868 0.1467 0.4382
vn 0.6683 0.5807 0.4649
vn 0.4731 0.8294 0.2972
vn 0.6533 0.4029 0.6410
vn 0.6299 0.1803 0.7555
vn 0.3226 0.4422 0.8369
vn 0.2529 0.7484 0.6132
vn 0.2063 0.2238 0.9526
vn -0.0080 0.5685 0.8226
vn 0.0064 0.9173 0.3980
vn -0.2479 0.2736 0.9294
vn -0.3763 0.5912 0.7134
vn -0.3000 0.7981 0.5225
vn -0.5671 0.2766 0.7758
vn -0.6643 0.5546 0.5012
vn -0.2511 0.9547 -0.1599
vn -0.5026 0.8412 0.1994
vn -0.8341 0.2178 0.5068
vn -0.8248 0.5347 0.1839
vn -0.9753 0.1913 0.1107
vn -0.8961 0.3704 -0.2444
vn -0.4728 0.8379 -0.2727
vn -0.9557 0.0731 -0.2852
vn -0.7313 0.6406 -0.2342
vn -0.7350 0.2953 -0.6104
vn -0.7725 0.0513 -0.6329
vn -0.5292 0.5886 -0.6112
vn -0.4876 0.0011 -0.8731
vn -0.4094 0.2607 -0.8743
vn -0.1184 -0.0077 -0.9929
vn -0.0364 0.9979 0.0537
vt 0.128277 0.904458
vt 0.150082 0.902710
vt 0.134944 0.924237
vt 0.158043 0.929570
vt 0.150811 0.939014
vt 0.849106 0.037382
vt 0.860635 0.050192
vt 0.844517 0.056275
vt 0.860334 0.067879
vt 0.849116 0.075467
vt 0.180315 0.706379
vt 0.162242 0.702290
vt 0.157056 0.690544
vt 0.172051 0.681246
vt 0.163897 0.669251
vt 0.189294 0.676000
vt 0.856542 0.094768
vt 0.872832 0.085177
vt 0.879269 0.100461
vt 0.863682 0.012983
vt 0.877252 0.016577
vt 0.863082 0.026572
vt 0.883025 0.037697
vt 0.883935 0.061416
vt 0.894191 0.084981
vt 0.146525 0.676644
vt 0.906802 0.043665
vt 0.905132 0.064068
vt 0.903416 0.096698
vt 0.896814 0.025366
vt 0.900334 0.012860
vt 0.914225 0.027417
vt 0.919084 0.056100
vt 0.917415 0.076100
vt 0.126855 0.694452
vt 0.916831 0.096216
vt 0.167692 0.908311
vt 0.187692 0.909272
vt 0.189605 0.922831
vt 0.175531 0.925983
vt 0.156975 0.918288
vt 0.926990 0.044490
vt 0.159140 0.719056
vt 0.148770 0.712368
vt 0.166891 0.943332
vt 0.932284 0.056816
vt 0.930031 0.074828
vt 0.137236 0.705745
vt 0.565618 0.787561
vt 0.562298 0.765510
vt 0.577256 0.778150
vt 0.124898 0.680366
vt 0.113551 0.688010
vt 0.183786 0.942753
vt 0.564296 0.727792
vt 0.577481 0.716860
vt 0.583122 0.734748
vt 0.561916 0.747385
vt 0.577117 0.752941
vt 0.595052 0.776236
vt 0.120212 0.712181
vt 0.598766 0.791868
vt 0.578345 0.792096
vt 0.595146 0.704138
vt 0.595265 0.718202
vt 0.200566 0.943905
vt 0.595373 0.752685
vt 0.606768 0.734747
vt 0.612079 0.704358
vt 0.611253 0.718263
vt 0.184798 0.960301
vt 0.612820 0.752941
vt 0.135446 0.728654
vt 0.611039 0.776485
vt 0.625889 0.718863
vt 0.629870 0.741517
vt 0.627668 0.765467
vt 0.622328 0.787375
vt 0.165929 0.961542
vt 0.641419 0.767653
vt 0.636092 0.783229
vt 0.132739 0.752040
vt 0.120385 0.731844
vt 0.640558 0.724785
vt 0.643696 0.744333
vt 0.186223 0.978735
vt 0.159557 0.973906
vt 0.560324 0.857298
vt 0.571962 0.872999
vt 0.560608 0.880721
vt 0.154308 0.738961
vt 0.579501 0.890280
vt 0.149857 0.755136
vt 0.571627 0.822825
vt 0.583191 0.837173
vt 0.567341 0.843023
vt 0.584082 0.860566
vt 0.597505 0.853338
vt 0.152318 0.950796
vt 0.592169 0.879934
vt 0.603400 0.893085
vt 0.606862 0.872760
vt 0.166928 0.755438
vt 0.586502 0.822436
vt 0.605464 0.837146
vt 0.142061 0.963536
vt 0.619178 0.854902
vt 0.615253 0.905940
vt 0.590290 0.905647
vt 0.172569 0.721766
vt 0.625709 0.890663
vt 0.137836 0.979520
vt 0.629075 0.873378
vt 0.634356 0.833075
vt 0.638284 0.857715
vt 0.183510 0.757969
vt 0.176224 0.745149
vt 0.196162 0.748113
vt 0.641354 0.881386
vt 0.190667 0.724386
vt 0.635984 0.896949
vt 0.124502 0.980714
vt 0.119873 0.968596
vt 0.129907 0.949527
vt 0.643052 0.849985
vt 0.113551 0.826928
vt 0.119132 0.814678
vt 0.129512 0.832369
vt 0.118011 0.846206
vt 0.125573 0.867988
vt 0.138765 0.866135
vt 0.198318 0.729925
vt 0.204732 0.736747
vt 0.132092 0.797760
vt 0.140481 0.814126
vt 0.146803 0.855594
vt 0.152732 0.832098
vt 0.138178 0.783496
vt 0.147358 0.797416
vt 0.201020 0.700804
vt 0.160827 0.871113
vt 0.164967 0.783422
vt 0.163274 0.797570
vt 0.164123 0.814125
vt 0.165088 0.846196
vt 0.190196 0.699120
vt 0.177125 0.826401
vt 0.175145 0.866332
vt 0.118929 0.933213
vt 0.177515 0.792601
vt 0.120495 0.917090
vt 0.185255 0.844960
vt 0.189775 0.862115
vt 0.198473 0.686109
vt 0.185373 0.808769
vt 0.197332 0.827217
vt 0.190000 0.793160
vt 0.199034 0.808626
vt 0.198868 0.846717
vt 0.889700 0.517714
vt 0.887824 0.497532
vt 0.898885 0.502020
vt 0.467683 0.916945
vt 0.478219 0.924100
vt 0.469712 0.929065
vt 0.479871 0.930785
vt 0.905956 0.524646
vt 0.897665 0.537047
vt 0.896248 0.529375
vt 0.908905 0.540352
vt 0.912826 0.501878
vt 0.918218 0.515688
vt 0.921591 0.529179
vt 0.926891 0.534675
vt 0.914140 0.536555
vt 0.929631 0.497368
vt 0.929668 0.516435
vt 0.933925 0.521471
vt 0.492019 0.926714
vt 0.644666 0.283466
vt 0.649747 0.303644
vt 0.643121 0.296255
vt 0.658014 0.287959
vt 0.663410 0.311216
vt 0.653721 0.318402
vt 0.672646 0.292067
vt 0.686425 0.283680
vt 0.683839 0.301950
vt 0.488278 0.937820
vt 0.476011 0.937058
vt 0.694251 0.288686
vt 0.687926 0.311694
vt 0.496917 0.943843
vt 0.490728 0.955057
vt 0.481473 0.948077
vt 0.731076 0.862391
vt 0.727115 0.839855
vt 0.742459 0.853158
vt 0.748253 0.868491
vt 0.471176 0.951850
vt 0.465531 0.943890
vt 0.758600 0.834853
vt 0.760292 0.852725
vt 0.759780 0.865278
vt 0.463833 0.955414
vt 0.770535 0.851421
vt 0.725771 0.517100
vt 0.736519 0.527802
vt 0.730133 0.531587
vt 0.726332 0.499076
vt 0.734517 0.505277
vt 0.747006 0.516523
vt 0.739442 0.538129
vt 0.746883 0.537578
vt 0.742833 0.498269
vt 0.755752 0.523706
vt 0.758619 0.537581
vt 0.938343 0.268560
vt 0.938356 0.498578
vt 0.675629 0.050873
vt 0.688879 0.050725
vt 0.757280 0.497669
vt 0.755091 0.602257
vt 0.768769 0.601842
vt 0.727005 0.263269
vt 0.916225 0.266674
vt 0.929872 0.267608
vt 0.770695 0.503677
vt 0.758398 0.267080
vt 0.740161 0.267530
vt 0.904440 0.261645
vt 0.740161 0.834627
vt 0.774531 0.834550
vt 0.647406 0.050350
vt 0.660892 0.050244
vt 0.726753 0.601887
vt 0.740306 0.597057
vt 0.765742 0.526878
vt 0.776098 0.516166
vt 0.887307 0.267931
vt 0.771969 0.530904
vt 0.767690 0.538244
vt 0.697668 0.050599
vt 0.776214 0.596205
vt 0.892135 0.239126
vt 0.894767 0.250644
vt 0.887765 0.251392
vt 0.898932 0.238428
vt 0.905852 0.241884
vt 0.823957 0.919599
vt 0.816593 0.932913
vt 0.812426 0.917905
vt 0.827680 0.927406
vt 0.806793 0.937441
vt 0.805452 0.926981
vt 0.917537 0.241596
vt 0.925846 0.251659
vt 0.816579 0.945561
vt 0.835543 0.926198
vt 0.828277 0.938573
vt 0.643256 0.031199
vt 0.650055 0.019390
vt 0.650085 0.032259
vt 0.827768 0.949707
vt 0.662624 0.016625
vt 0.661747 0.032233
vt 0.836766 0.943235
vt 0.837837 0.949471
vt 0.675614 0.016084
vt 0.674866 0.032553
vt 0.838827 0.933472
vt 0.688740 0.033870
vt 0.846909 0.944825
vt 0.686088 0.016196
vt 0.693535 0.028228
vt 0.848452 0.935155
vt 0.741774 0.563797
vt 0.751929 0.567135
vt 0.734446 0.577912
vt 0.755121 0.583452
vt 0.844747 0.921296
vt 0.840831 0.913711
vt 0.853188 0.924177
vt 0.765404 0.570641
vt 0.770289 0.582525
vt 0.727231 0.246953
vt 0.732171 0.238964
vt 0.739133 0.241552
vt 0.744576 0.251251
vt 0.839262 0.902680
vt 0.851624 0.910262
vt 0.752429 0.238049
vt 0.759708 0.249704
vt 0.830656 0.905897
vt 0.819160 0.908881
vt 0.763089 0.238501
vt 0.771093 0.251246
vt 0.773871 0.268335
vt 0.467416 0.623144
vt 0.482553 0.639442
vt 0.465350 0.640038
vt 0.895151 0.147318
vt 0.892099 0.167672
vt 0.887991 0.151671
vt 0.483635 0.622709
vt 0.494939 0.639359
vt 0.498978 0.622858
vt 0.507183 0.633583
vt 0.901788 0.175950
vt 0.891654 0.182931
vt 0.511807 0.619473
vt 0.512472 0.629540
vt 0.878827 0.176158
vt 0.018104 0.944880
vt 0.018387 0.931841
vt 0.027201 0.947637
vt 0.877542 0.190894
vt 0.872301 0.182840
vt 0.878474 0.160210
vt 0.871802 0.164055
vt 0.029401 0.931001
vt 0.038814 0.947628
vt 0.042893 0.931671
vt 0.051390 0.947975
vt 0.860283 0.170577
vt 0.057755 0.930455
vt 0.062864 0.948695
vt 0.852255 0.173564
vt 0.854495 0.155154
vt 0.865083 0.151259
vt 0.131477 0.622175
vt 0.144357 0.633122
vt 0.123633 0.638158
vt 0.142099 0.617190
vt 0.157896 0.617208
vt 0.165463 0.629631
vt 0.845618 0.144933
vt 0.855751 0.137956
vt 0.374883 0.631351
vt 0.380669 0.620685
vt 0.385279 0.637272
vt 0.394970 0.620762
vt 0.402790 0.637419
vt 0.875181 0.131832
vt 0.874927 0.141379
vt 0.423154 0.620407
vt 0.420972 0.638203
vt 0.408843 0.621613
vt 0.405723 0.320953
vt 0.378876 0.320996
vt 0.049702 0.631524
vt 0.487175 0.322950
vt 0.164406 0.321278
vt 0.170374 0.617510
vt 0.068313 0.632362
vt 0.371171 0.617202
vt 0.026044 0.631356
vt 0.142690 0.321136
vt 0.070765 0.932319
vt 0.012670 0.631801
vt 0.456342 0.624898
vt 0.460505 0.323597
vt 0.116683 0.321880
vt 0.576337 0.658378
vt 0.583433 0.674937
vt 0.566229 0.675534
vt 0.935369 0.918277
vt 0.933000 0.938022
vt 0.928210 0.922630
vt 0.592387 0.658336
vt 0.595818 0.674855
vt 0.912701 0.936027
vt 0.917842 0.930293
vt 0.942007 0.946908
vt 0.932269 0.950917
vt 0.931346 0.963415
vt 0.919791 0.950574
vt 0.374869 0.977167
vt 0.376912 0.966812
vt 0.385267 0.983078
vt 0.386821 0.962759
vt 0.395944 0.976170
vt 0.397420 0.986397
vt 0.402749 0.962747
vt 0.409850 0.979976
vt 0.915280 0.958312
vt 0.906420 0.957922
vt 0.902383 0.943572
vt 0.418806 0.963473
vt 0.422098 0.980801
vt 0.560158 0.309681
vt 0.573316 0.312918
vt 0.560575 0.326719
vt 0.886867 0.932937
vt 0.895013 0.928663
vt 0.589472 0.312439
vt 0.595818 0.329058
vt 0.577296 0.329320
vt 0.885836 0.915891
vt 0.892976 0.910636
vt 0.906685 0.921096
vt 0.601694 0.313079
vt 0.608062 0.323288
vt 0.612971 0.309130
vt 0.613352 0.319253
vt 0.893881 0.897333
vt 0.900907 0.904695
vt 0.242816 0.898524
vt 0.250845 0.888945
vt 0.260282 0.905489
vt 0.910082 0.900947
vt 0.915146 0.912338
vt 0.264339 0.889603
vt 0.272869 0.905791
vt 0.277024 0.889385
vt 0.284367 0.906415
vt 0.583893 0.358458
vt 0.610523 0.013066
vt 0.260899 0.589045
vt 0.589133 0.012706
vt 0.607151 0.654705
vt 0.616081 0.359029
vt 0.615599 0.654950
vt 0.281822 0.589527
vt 0.290393 0.891731
vt 0.406747 0.666935
vt 0.236477 0.885439
vt 0.242599 0.589142
vt 0.425776 0.667762
vt 0.429433 0.964267
vt 0.559878 0.658172
vt 0.563057 0.359024
vt 0.379809 0.666933
vt 0.561384 0.013415
vt 0.481864 0.213591
vt 0.491299 0.295235
vt 0.466368 0.293909
vt 0.498587 0.214645
vt 0.508322 0.296772
vt 0.350110 0.292978
vt 0.251118 0.214554
vt 0.351958 0.212090
vt 0.368572 0.212382
vt 0.367609 0.293314
vt 0.385389 0.213150
vt 0.386964 0.294297
vt 0.400878 0.214253
vt 0.401919 0.295436
vt 0.131310 0.292839
vt 0.146787 0.212332
vt 0.161181 0.294150
vt 0.182194 0.214904
vt 0.179350 0.295710
vt 0.039267 0.521920
vt 0.052620 0.603846
vt 0.024899 0.602271
vt 0.072035 0.524468
vt 0.068213 0.605349
vt 0.025888 0.295710
vt 0.130074 0.211977
vt 0.724066 0.182024
vt 0.734683 0.025778
vt 0.815702 0.188071
vt 0.461368 0.119088
vt 0.463602 0.079805
vt 0.474172 0.120647
vt 0.474672 0.045840
vt 0.482561 0.081272
vt 0.493105 0.118548
vt 0.501735 0.059669
vt 0.510369 0.117716
vt 0.525763 0.058673
vt 0.522864 0.119409
vt 0.243881 0.104713
vt 0.358990 0.054414
vt 0.354455 0.114942
vt 0.363754 0.114705
vt 0.373813 0.056470
vt 0.376258 0.114952
vt 0.389914 0.064187
vt 0.393738 0.120996
vt 0.408543 0.082161
vt 0.404663 0.044206
vt 0.413884 0.056294
vt 0.410381 0.121601
vt 0.421463 0.081612
vt 0.427232 0.057475
vt 0.138203 0.114617
vt 0.129057 0.101217
vt 0.139826 0.043086
vt 0.152667 0.056325
vt 0.154757 0.114907
vt 0.171826 0.057253
vt 0.172185 0.121112
vt 0.177923 0.081647
vt 0.194593 0.045815
vt 0.188785 0.121940
vt 0.195733 0.082418
vt 0.207920 0.047331
vt 0.018767 0.427476
vt 0.030145 0.389169
vt 0.031574 0.428987
vt 0.016332 0.387220
vt 0.017651 0.351984
vt 0.051806 0.373325
vt 0.050510 0.426850
vt 0.037933 0.352380
vt 0.068785 0.367402
vt 0.067774 0.426020
vt 0.083165 0.366532
vt 0.082848 0.419838
vt 0.014607 0.057930
vt 0.023876 0.119029
vt 0.455268 0.038697
vt 0.461405 0.024573
vt 0.489271 0.013721
vt 0.480112 0.025158
vt 0.294392 0.321795
vt 0.279804 0.332310
vt 0.260318 0.329657
vt 0.297278 0.344045
vt 0.289845 0.356824
vt 0.274676 0.348712
vt 0.490879 0.039795
vt 0.499449 0.026089
vt 0.512005 0.044949
vt 0.257602 0.347751
vt 0.513195 0.015399
vt 0.518176 0.027457
vt 0.244568 0.348043
vt 0.525419 0.041989
vt 0.235809 0.055835
vt 0.365051 0.037960
vt 0.234130 0.040989
vt 0.365946 0.024140
vt 0.345396 0.357601
vt 0.333519 0.538986
vt 0.333319 0.344777
vt 0.323039 0.349707
vt 0.318754 0.540571
vt 0.308347 0.352826
vt 0.304882 0.535690
vt 0.380188 0.024489
vt 0.386218 0.038834
vt 0.311342 0.336135
vt 0.398585 0.025423
vt 0.379022 0.012804
vt 0.400049 0.013633
vt 0.417184 0.026718
vt 0.420795 0.015104
vt 0.425626 0.041726
vt 0.429541 0.027781
vt 0.155453 0.038186
vt 0.144959 0.024028
vt 0.159216 0.024402
vt 0.154796 0.012725
vt 0.178734 0.013784
vt 0.260318 0.554766
vt 0.256597 0.535096
vt 0.268209 0.548275
vt 0.271211 0.531576
vt 0.282277 0.540358
vt 0.175354 0.039443
vt 0.177602 0.025457
vt 0.196163 0.026959
vt 0.201695 0.015657
vt 0.294392 0.562627
vt 0.293202 0.553951
vt 0.208478 0.028213
vt 0.037518 0.333435
vt 0.018807 0.332908
vt 0.024474 0.321178
vt 0.289715 0.527573
vt 0.319465 0.555490
vt 0.058618 0.348524
vt 0.056856 0.334348
vt 0.046380 0.321969
vt 0.075581 0.335745
vt 0.079105 0.349937
vt 0.067791 0.323488
vt 0.244629 0.536648
vt 0.234130 0.526837
vt 0.234130 0.357601
vt 0.012670 0.041423
vt 0.014650 0.027866
vt 0.463869 0.212908
vt 0.514334 0.216087
vt 0.166310 0.213474
vt 0.022287 0.521312
vt 0.055991 0.522960
vt 0.943727 0.138979
vt 0.952939 0.150673
vt 0.946405 0.153555
vt 0.805628 0.508573
vt 0.816332 0.533665
vt 0.808563 0.527112
vt 0.815027 0.509286
vt 0.824172 0.515028
vt 0.834056 0.536432
vt 0.949411 0.126374
vt 0.956908 0.137630
vt 0.848312 0.526836
vt 0.847151 0.539580
vt 0.962545 0.152753
vt 0.858961 0.509090
vt 0.855782 0.527048
vt 0.970464 0.138516
vt 0.887934 0.832848
vt 0.902320 0.850051
vt 0.890777 0.851071
vt 0.896924 0.868084
vt 0.912075 0.861497
vt 0.917247 0.871279
vt 0.901187 0.831400
vt 0.915507 0.836789
vt 0.927571 0.850776
vt 0.930456 0.860217
vt 0.926327 0.871993
vt 0.969388 0.160635
vt 0.952377 0.161170
vt 0.807701 0.832234
vt 0.819219 0.848925
vt 0.807262 0.845192
vt 0.821690 0.830589
vt 0.831110 0.836237
vt 0.814553 0.861486
vt 0.832956 0.866122
vt 0.825073 0.873295
vt 0.831895 0.876316
vt 0.838429 0.849506
vt 0.846007 0.859108
vt 0.846315 0.868346
vt 0.843521 0.830979
vt 0.855547 0.837054
vt 0.854674 0.855231
vt 0.945949 0.166579
vt 0.937649 0.168274
vt 0.935946 0.156347
vt 0.653363 0.617571
vt 0.665244 0.640751
vt 0.652344 0.635323
vt 0.667565 0.617145
vt 0.678846 0.633810
vt 0.653568 0.384552
vt 0.667880 0.384229
vt 0.814847 0.276484
vt 0.826208 0.270838
vt 0.667020 0.654904
vt 0.680489 0.648118
vt 0.677086 0.654897
vt 0.850556 0.508865
vt 0.858961 0.275743
vt 0.926554 0.831534
vt 0.915838 0.601073
vt 0.932797 0.601751
vt 0.644892 0.622644
vt 0.836448 0.513930
vt 0.846618 0.276135
vt 0.805632 0.602432
vt 0.815097 0.596372
vt 0.827065 0.594672
vt 0.841476 0.597406
vt 0.937324 0.146703
vt 0.929570 0.138613
vt 0.855591 0.596945
vt 0.935770 0.832953
vt 0.694840 0.617240
vt 0.682183 0.384770
vt 0.694509 0.384142
vt 0.888099 0.601908
vt 0.901352 0.600904
vt 0.691864 0.635563
vt 0.689861 0.648059
vt 0.681845 0.617428
vt 0.809667 0.257968
vt 0.805651 0.275915
vt 0.819641 0.248764
vt 0.827658 0.238174
vt 0.836843 0.245162
vt 0.835681 0.258073
vt 0.727688 0.916311
vt 0.737263 0.912964
vt 0.728253 0.926205
vt 0.747244 0.921229
vt 0.741293 0.925496
vt 0.849542 0.259429
vt 0.838265 0.238150
vt 0.850645 0.248918
vt 0.734176 0.934354
vt 0.893851 0.575745
vt 0.895871 0.584280
vt 0.886711 0.589497
vt 0.909062 0.575558
vt 0.913692 0.585759
vt 0.744126 0.937019
vt 0.728227 0.940613
vt 0.743890 0.947332
vt 0.755018 0.939930
vt 0.919553 0.571953
vt 0.927623 0.584173
vt 0.754334 0.929125
vt 0.764655 0.924518
vt 0.771039 0.927300
vt 0.766906 0.940676
vt 0.760405 0.914726
vt 0.823950 0.575014
vt 0.771753 0.916912
vt 0.835228 0.575537
vt 0.768513 0.907119
vt 0.747106 0.913873
vt 0.750006 0.907200
vt 0.846007 0.575799
vt 0.756158 0.900178
vt 0.646321 0.357189
vt 0.659454 0.349197
vt 0.654018 0.365153
vt 0.644879 0.379058
vt 0.671593 0.350362
vt 0.667679 0.366576
vt 0.741228 0.899147
vt 0.682483 0.367392
vt 0.730735 0.904569
vt 0.683362 0.348982
vt 0.693295 0.366267
vt 0.851552 0.022311
vt 0.173331 0.900039
vt 0.129805 0.670108
vt 0.924527 0.022761
vt 0.928800 0.033259
vt 0.563322 0.713809
vt 0.556996 0.735643
vt 0.578667 0.704401
vt 0.195704 0.969044
vt 0.116871 0.741715
vt 0.636345 0.714328
vt 0.569391 0.901117
vt 0.162653 0.983802
vt 0.602513 0.821180
vt 0.618463 0.830766
vt 0.616739 0.818220
vt 0.118752 0.798244
vt 0.114543 0.950048
vt 0.481392 0.915541
vt 0.493045 0.918557
vt 0.663490 0.321088
vt 0.674632 0.317985
vt 0.480144 0.958751
vt 0.455268 0.948404
vt 0.459668 0.934679
vt 0.459858 0.924640
vt 0.779649 0.498537
vt 0.926469 0.238925
vt 0.936579 0.256180
vt 0.725239 0.588650
vt 0.732670 0.566955
vt 0.761443 0.563689
vt 0.902511 0.164627
vt 0.500892 0.642889
vt 0.900804 0.189279
vt 0.891127 0.192456
vt 0.866202 0.186963
vt 0.117956 0.621717
vt 0.844895 0.156256
vt 0.153221 0.637437
vt 0.159174 0.640997
vt 0.846603 0.131596
vt 0.856279 0.128422
vt 0.456495 0.722478
vt 0.460478 0.690885
vt 0.515987 0.683916
vt 0.479392 0.671818
vt 0.498959 0.670280
vt 0.527065 0.712593
vt 0.523269 0.739969
vt 0.468442 0.751364
vt 0.508696 0.758752
vt 0.488205 0.763213
vt 0.509607 0.323280
vt 0.425797 0.321666
vt 0.173484 0.321725
vt 0.013132 0.927911
vt 0.942729 0.935585
vt 0.608059 0.667047
vt 0.601771 0.678384
vt 0.941022 0.960238
vt 0.896271 0.949983
vt 0.601771 0.332617
vt 0.886822 0.902554
vt 0.250208 0.908868
vt 0.921422 0.904878
vt 0.455696 0.843012
vt 0.458315 0.820034
vt 0.526932 0.836559
vt 0.469840 0.800845
vt 0.518791 0.805331
vt 0.485222 0.790799
vt 0.501643 0.791505
vt 0.518879 0.866306
vt 0.461158 0.865045
vt 0.497677 0.882923
vt 0.474222 0.879671
vt 0.603444 0.358554
vt 0.293254 0.590109
vt 0.234130 0.589451
vt 0.248710 0.295436
vt 0.752709 0.016008
vt 0.784100 0.014912
vt 0.817398 0.040743
vt 0.807828 0.025778
vt 0.028732 0.214905
vt 0.792925 0.207770
vt 0.757109 0.210210
vt 0.732156 0.196504
vt 0.725112 0.040743
vt 0.460825 0.054352
vt 0.465047 0.012754
vt 0.236053 0.027357
vt 0.345396 0.526837
vt 0.319466 0.328933
vt 0.939310 0.129925
vt 0.964797 0.129331
vt 0.884954 0.856388
vt 0.959184 0.170540
vt 0.948485 0.174552
vt 0.657583 0.652376
vt 0.818216 0.238055
vt 0.843715 0.238065
vt 0.926634 0.572457
vt 0.935016 0.583924
vt 0.812695 0.578307
vt 0.854674 0.580795
vt 0.689861 0.353386
s 1
f 3/1/3 15/2/15 120/3/120
f 120/3/120 16/4/16 112/5/112
f 5/6/5 8/7/8 2/8/2
f 2/8/2 9/9/9 6/10/6
f 118/11/118 19/12/19 26/13/26
f 4/14/4 12/15/12 119/16/119
f 3/17/3 11/18/11 15/19/15
f 119/20/119 12/21/12 7/22/7
f 9/9/9 11/18/11 6/10/6
f 8/7/8 13/23/13 14/24/14
f 8/7/8 14/24/14 9/9/9
f 12/21/12 13/23/13 7/22/7
f 14/24/14 18/25/18 11/18/11
f 26/13/26 20/26/20 4/14/4
f 14/24/14 21/27/21 23/28/23
f 18/25/18 24/29/24 15/19/15
f 13/23/13 17/30/17 21/27/21
f 17/30/17 20/31/20 27/32/27
f 23/28/23 21/27/21 22/33/22
f 23/28/23 28/34/28 18/25/18
f 18/25/18 28/34/28 24/29/24
f 22/33/22 28/34/28 23/28/23
f 20/26/20 26/13/26 37/35/37
f 24/29/24 28/34/28 31/36/31
f 25/37/25 31/38/31 41/39/41
f 25/37/25 35/40/35 10/41/10
f 21/27/21 27/32/27 30/42/30
f 19/12/19 1/43/1 58/44/58
f 35/40/35 66/45/66 16/4/16
f 22/33/22 30/42/30 33/46/33
f 112/5/112 16/4/16 66/45/66
f 22/33/22 34/47/34 28/34/28
f 58/44/58 36/48/36 26/13/26
f 31/49/31 34/50/34 40/51/40
f 29/52/29 37/35/37 38/53/38
f 35/40/35 41/39/41 52/54/52
f 32/55/32 38/56/38 42/57/42
f 33/58/33 42/57/42 39/59/39
f 33/58/33 39/59/39 34/50/34
f 39/59/39 46/60/46 40/51/40
f 36/48/36 43/61/43 37/35/37
f 40/51/40 51/62/51 41/63/41
f 38/56/38 43/64/43 44/65/44
f 41/39/41 51/66/51 52/54/52
f 39/59/39 42/57/42 45/67/45
f 42/57/42 44/65/44 48/68/48
f 44/65/44 53/69/53 47/70/47
f 52/54/52 51/66/51 62/71/62
f 45/67/45 48/68/48 49/72/49
f 36/48/36 58/44/58 59/73/59
f 45/67/45 50/74/50 46/60/46
f 48/68/48 54/75/54 55/76/55
f 49/72/49 56/77/56 50/74/50
f 50/74/50 56/77/56 57/78/57
f 50/74/50 57/78/57 51/62/51
f 47/70/47 53/69/53 54/75/54
f 52/54/52 62/71/62 75/79/75
f 55/76/55 64/80/64 56/77/56
f 57/78/57 64/80/64 65/81/65
f 59/73/59 60/82/60 53/83/53
f 55/76/55 63/84/63 61/85/61
f 62/71/62 65/86/65 81/87/81
f 61/88/61 68/89/68 64/90/64
f 59/73/59 1/43/1 76/91/76
f 68/89/68 69/92/69 64/90/64
f 76/91/76 67/93/67 60/82/60
f 60/94/60 70/95/70 63/96/63
f 61/88/61 63/96/63 71/97/71
f 63/96/63 70/95/70 72/98/72
f 75/79/75 95/99/95 66/45/66
f 112/5/112 66/45/66 95/99/95
f 71/97/71 73/100/73 68/89/68
f 68/89/68 73/100/73 69/92/69
f 69/92/69 73/100/73 80/101/80
f 71/97/71 79/102/79 73/100/73
f 76/91/76 77/103/77 67/93/67
f 67/104/67 78/105/78 70/95/70
f 81/87/81 90/106/90 75/79/75
f 72/98/72 78/105/78 83/107/83
f 79/102/79 80/101/80 73/100/73
f 80/101/80 88/108/88 74/109/74
f 1/43/1 106/110/106 76/91/76
f 79/102/79 87/111/87 80/101/80
f 81/87/81 88/112/88 90/106/90
f 83/107/83 86/113/86 79/102/79
f 83/107/83 89/114/89 85/115/85
f 82/116/82 84/117/84 89/118/89
f 86/113/86 93/119/93 87/111/87
f 84/117/84 106/110/106 91/120/91
f 87/111/87 93/119/93 94/121/94
f 87/122/87 94/123/94 88/112/88
f 90/106/90 94/123/94 103/124/103
f 85/115/85 89/114/89 92/125/92
f 85/115/85 93/119/93 86/113/86
f 85/126/85 92/127/92 98/128/98
f 85/126/85 98/128/98 93/129/93
f 94/130/94 93/129/93 102/131/102
f 89/118/89 99/132/99 96/133/96
f 92/127/92 96/134/96 97/135/97
f 103/124/103 112/5/112 95/99/95
f 98/128/98 101/136/101 93/129/93
f 98/128/98 97/135/97 105/137/105
f 96/134/96 99/138/99 100/139/100
f 91/120/91 107/140/107 99/132/99
f 101/136/101 110/141/110 102/131/102
f 100/139/100 107/142/107 108/143/108
f 97/135/97 108/143/108 104/144/104
f 105/137/105 109/145/109 101/136/101
f 91/120/91 118/11/118 113/146/113
f 105/137/105 104/144/104 111/147/111
f 101/136/101 109/145/109 117/148/117
f 110/149/110 120/3/120 103/124/103
f 108/143/108 107/142/107 114/150/114
f 110/149/110 117/151/117 120/3/120
f 106/110/106 1/43/1 19/12/19
f 111/147/111 116/152/116 109/145/109
f 117/148/117 116/152/116 3/153/3
f 113/146/113 114/154/114 107/140/107
f 111/147/111 115/155/115 2/156/2
f 115/155/115 119/157/119 5/158/5
f 2/156/2 6/159/6 116/152/116
f 113/146/113 118/11/118 4/14/4
f 114/154/114 4/14/4 119/16/119
f 122/160/122 121/161/121 125/162/125
f 124/163/124 132/164/132 169/165/169
f 141/166/141 169/165/169 132/164/132
f 122/160/122 125/162/125 126/167/126
f 124/168/124 123/169/123 129/170/129
f 126/167/126 127/171/127 128/172/128
f 128/172/128 131/173/131 126/167/126
f 131/173/131 135/174/135 129/175/129
f 130/176/130 133/177/133 128/172/128
f 131/173/131 136/178/136 135/174/135
f 132/164/132 139/179/139 141/166/141
f 134/180/134 136/181/136 133/182/133
f 134/180/134 137/183/137 136/181/136
f 136/181/136 138/184/138 135/185/135
f 136/181/136 137/183/137 138/184/138
f 140/186/140 142/187/142 143/188/143
f 141/166/141 145/189/145 152/190/152
f 143/188/143 146/191/146 147/192/147
f 144/193/144 147/194/147 149/195/149
f 142/187/142 146/191/146 143/188/143
f 147/196/147 146/197/146 150/198/150
f 147/196/147 150/198/150 151/199/151
f 149/195/149 151/200/151 158/201/158
f 154/202/154 155/203/155 150/198/150
f 150/198/150 153/204/153 151/199/151
f 151/200/151 153/205/153 158/201/158
f 154/202/154 157/206/157 155/203/155
f 152/190/152 158/201/158 169/165/169
f 141/166/141 152/190/152 169/165/169
f 157/207/157 160/208/160 153/209/153
f 156/210/156 159/211/159 157/207/157
f 159/211/159 163/212/163 160/208/160
f 158/213/158 160/208/160 162/214/162
f 159/211/159 161/215/161 163/212/163
f 160/208/160 163/212/163 165/216/165
f 165/216/165 168/217/168 162/214/162
f 130/176/130 184/218/184 134/219/134
f 142/187/142 191/220/191 193/221/193
f 164/222/164 165/216/165 163/212/163
f 154/202/154 201/223/201 205/224/205
f 156/210/156 208/225/208 159/211/159
f 130/176/130 176/226/176 181/227/181
f 164/222/164 166/228/166 165/216/165
f 164/222/164 214/229/214 166/228/166
f 137/183/137 191/220/191 140/186/140
f 164/222/164 210/230/210 214/229/214
f 127/171/127 174/231/174 176/226/176
f 148/232/148 201/223/201 154/202/154
f 154/202/154 205/224/205 156/233/156
f 137/183/137 184/234/184 188/235/188
f 148/232/148 196/236/196 198/237/198
f 167/238/167 166/228/166 122/239/122
f 159/211/159 210/230/210 161/215/161
f 125/162/125 216/240/216 174/231/174
f 122/239/122 123/241/123 167/238/167
f 167/238/167 124/242/124 168/217/168
f 142/187/142 196/243/196 146/191/146
f 156/233/156 205/224/205 208/244/208
f 217/245/217 170/246/170 171/247/171
f 216/240/216 170/246/170 174/231/174
f 170/246/170 173/248/173 175/249/175
f 172/250/172 179/251/179 173/252/173
f 175/249/175 174/231/174 170/246/170
f 172/250/172 177/253/177 179/251/179
f 179/251/179 178/254/178 175/255/175
f 178/256/178 180/257/180 174/231/174
f 176/226/176 180/257/180 181/227/181
f 179/251/179 182/258/182 178/254/178
f 177/253/177 218/259/218 186/260/186
f 180/261/180 182/262/182 183/263/183
f 180/257/180 184/218/184 181/227/181
f 182/258/182 186/260/186 187/264/187
f 187/265/187 185/266/185 183/263/183
f 184/234/184 185/266/185 188/235/188
f 189/267/189 192/268/192 187/264/187
f 185/266/185 192/269/192 190/270/190
f 188/235/188 190/270/190 191/220/191
f 186/260/186 218/259/218 200/271/200
f 190/270/190 192/269/192 195/272/195
f 191/220/191 195/272/195 193/221/193
f 189/267/189 194/273/194 192/268/192
f 195/272/195 194/274/194 197/275/197
f 195/272/195 196/243/196 193/221/193
f 189/267/189 200/271/200 199/276/199
f 199/277/199 202/278/202 197/279/197
f 197/279/197 202/278/202 203/280/203
f 198/237/198 203/280/203 201/223/201
f 199/276/199 200/271/200 206/281/206
f 201/223/201 203/280/203 205/224/205
f 206/281/206 211/282/211 202/283/202
f 207/284/207 204/285/204 203/280/203
f 204/286/204 207/287/207 209/288/209
f 209/288/209 212/289/212 208/225/208
f 208/225/208 212/289/212 210/230/210
f 218/259/218 211/282/211 206/281/206
f 211/282/211 209/290/209 207/291/207
f 210/230/210 212/289/212 214/229/214
f 213/292/213 215/293/215 212/289/212
f 211/282/211 218/259/218 172/250/172
f 213/294/213 172/250/172 217/295/217
f 217/296/217 171/297/171 215/293/215
f 214/229/214 171/297/171 216/298/216
f 217/295/217 172/250/172 173/252/173
f 220/299/220 223/300/223 221/301/221
f 221/302/221 226/303/226 260/304/260
f 222/305/222 225/306/225 223/300/223
f 224/307/224 228/308/228 225/306/225
f 225/309/225 229/310/229 226/303/226
f 227/311/227 230/312/230 228/308/228
f 229/310/229 236/313/236 226/303/226
f 228/314/228 230/315/230 232/316/232
f 229/310/229 235/317/235 238/318/238
f 231/319/231 236/313/236 243/320/243
f 232/316/232 233/321/233 235/322/235
f 235/322/235 234/323/234 237/324/237
f 236/313/236 238/318/238 241/325/241
f 237/324/237 239/326/239 242/327/242
f 238/318/238 242/328/242 241/325/241
f 249/329/249 255/330/255 243/320/243
f 244/331/244 246/332/246 242/333/242
f 242/328/242 249/329/249 241/325/241
f 245/334/245 246/332/246 244/331/244
f 247/335/247 251/336/251 246/332/246
f 248/337/248 254/338/254 249/329/249
f 251/339/251 252/340/252 253/341/253
f 253/341/253 256/342/256 258/343/258
f 254/338/254 258/344/258 259/345/259
f 255/330/255 259/345/259 231/319/231
f 243/320/243 255/330/255 231/319/231
f 258/343/258 219/346/219 221/347/221
f 259/345/259 221/302/221 260/304/260
f 257/348/257 270/349/270 219/346/219
f 252/340/252 269/350/269 256/342/256
f 234/323/234 265/351/265 239/326/239
f 220/299/220 262/352/262 222/305/222
f 247/335/247 268/353/268 250/354/250
f 239/326/239 265/351/265 266/355/266
f 222/305/222 262/352/262 224/307/224
f 250/356/250 269/350/269 252/340/252
f 230/315/230 264/357/264 233/321/233
f 244/331/244 267/358/267 245/334/245
f 239/326/239 266/355/266 240/359/240
f 230/315/230 263/360/263 264/357/264
f 219/361/219 261/362/261 220/299/220
f 245/334/245 267/358/267 247/335/247
f 234/323/234 264/357/264 265/351/265
f 244/331/244 266/363/266 267/358/267
f 273/364/273 274/365/274 272/366/272
f 272/367/272 278/368/278 313/369/313
f 275/370/275 277/371/277 274/365/274
f 278/368/278 296/372/296 276/373/276
f 277/374/277 281/375/281 278/368/278
f 281/375/281 283/376/283 285/377/285
f 280/378/280 282/379/282 283/380/283
f 282/379/282 284/381/284 286/382/286
f 283/380/283 286/382/286 287/383/287
f 286/382/286 288/384/288 289/385/289
f 287/386/287 289/387/289 293/388/293
f 289/385/289 290/389/290 291/390/291
f 292/391/292 294/392/294 291/393/291
f 295/394/295 298/395/298 293/388/293
f 297/396/297 300/397/300 295/398/295
f 300/399/300 303/400/303 298/395/298
f 298/395/298 306/401/306 296/372/296
f 276/373/276 296/372/296 306/401/306
f 299/402/299 302/403/302 300/397/300
f 301/404/301 304/405/304 302/403/302
f 303/400/303 304/406/304 305/407/305
f 304/408/304 307/409/307 309/410/309
f 305/407/305 309/411/309 312/412/312
f 309/410/309 308/413/308 311/414/311
f 306/401/306 312/412/312 276/373/276
f 311/414/311 310/415/310 272/416/272
f 312/412/312 272/367/272 313/369/313
f 273/364/273 315/417/315 275/370/275
f 299/402/299 321/418/321 301/404/301
f 308/413/308 323/419/323 310/415/310
f 299/402/299 320/420/320 321/418/321
f 279/421/279 317/422/317 282/423/282
f 310/415/310 324/424/324 271/425/271
f 288/384/288 318/426/318 290/389/290
f 301/427/301 322/428/322 307/409/307
f 290/389/290 319/429/319 292/430/292
f 271/431/271 314/432/314 273/364/273
f 288/384/288 317/433/317 318/426/318
f 292/391/292 319/434/319 294/392/294
f 327/435/327 328/436/328 325/437/325
f 329/438/329 330/439/330 328/436/328
f 332/440/332 349/441/349 333/442/333
f 332/440/332 335/443/335 334/444/334
f 334/444/334 337/445/337 336/446/336
f 326/447/326 325/448/325 336/446/336
f 338/449/338 341/450/341 340/451/340
f 340/451/340 344/452/344 343/453/343
f 345/454/345 346/455/346 343/456/343
f 349/457/349 348/458/348 346/455/346
f 330/459/330 339/460/339 338/449/338
f 348/461/348 334/462/334 338/463/338
f 361/464/361 350/465/350 351/466/351
f 350/465/350 376/467/376 352/468/352
f 351/466/351 352/468/352 353/469/353
f 352/468/352 383/470/383 353/469/353
f 353/469/353 383/470/383 354/471/354
f 354/471/354 389/472/389 355/473/355
f 374/474/374 395/475/395 356/476/356
f 357/477/357 395/475/395 397/478/397
f 358/479/358 397/478/397 401/480/401
f 359/481/359 358/479/358 401/480/401
f 359/481/359 401/480/401 360/482/360
f 360/482/360 404/483/404 406/484/406
f 361/485/361 360/482/360 350/486/350
f 350/486/350 406/484/406 375/487/375
f 362/488/362 363/489/363 411/490/411
f 362/488/362 411/490/411 418/491/418
f 364/492/364 418/491/418 425/493/425
f 366/494/366 364/492/364 365/495/365
f 365/495/365 425/493/425 427/496/427
f 368/497/368 365/495/365 367/498/367
f 367/498/367 427/496/427 431/499/431
f 368/500/368 369/501/369 370/502/370
f 367/503/367 431/504/431 369/501/369
f 370/502/370 437/505/437 371/506/371
f 369/501/369 434/507/434 437/505/437
f 371/506/371 441/508/441 372/509/372
f 372/509/372 373/510/373 374/511/374
f 389/512/389 363/489/363 355/513/355
f 410/514/410 377/515/377 376/467/376
f 377/515/377 379/516/379 380/517/380
f 407/518/407 409/519/409 379/520/379
f 398/521/398 405/522/405 378/523/378
f 376/467/376 380/517/380 381/524/381
f 376/467/376 381/524/381 383/470/383
f 380/517/380 379/516/379 382/525/382
f 381/524/381 382/525/382 385/526/385
f 409/519/409 378/523/378 384/527/384
f 382/525/382 386/528/386 387/529/387
f 379/520/379 384/527/384 386/530/386
f 385/526/385 388/531/388 389/472/389
f 385/526/385 387/529/387 388/531/388
f 373/532/373 394/533/394 395/475/395
f 443/534/443 393/535/393 394/533/394
f 393/536/393 440/537/440 392/538/392
f 440/537/440 391/539/391 392/538/392
f 435/540/435 390/541/390 391/539/391
f 432/542/432 405/522/405 390/541/390
f 394/533/394 393/535/393 396/543/396
f 397/478/397 394/533/394 400/544/400
f 392/538/392 391/539/391 399/545/399
f 399/545/399 390/541/390 398/521/398
f 400/544/400 396/543/396 403/546/403
f 403/546/403 392/547/392 402/548/402
f 404/483/404 403/546/403 408/549/408
f 408/549/408 402/548/402 407/550/407
f 406/484/406 404/483/404 410/551/410
f 407/518/407 399/545/399 409/519/409
f 410/551/410 408/549/408 377/552/377
f 418/491/418 411/490/411 417/553/417
f 417/553/417 412/554/412 416/555/416
f 416/555/416 413/556/413 421/557/421
f 421/558/421 414/559/414 420/560/420
f 420/560/420 415/561/415 419/562/419
f 425/493/425 417/553/417 424/563/424
f 424/563/424 416/555/416 423/564/423
f 427/496/427 423/564/423 426/565/426
f 426/565/426 421/557/421 429/566/429
f 429/567/429 420/560/420 428/568/428
f 431/499/431 426/565/426 430/569/430
f 431/504/431 433/570/433 434/507/434
f 430/571/430 429/572/429 433/570/433
f 419/562/419 422/573/422 432/542/432
f 429/567/429 435/540/435 436/574/436
f 428/568/428 432/542/432 435/540/435
f 434/507/434 439/575/439 437/505/437
f 434/507/434 438/576/438 439/575/439
f 433/570/433 436/577/436 438/576/438
f 437/505/437 439/575/439 441/508/441
f 436/574/436 435/540/435 440/537/440
f 439/575/439 442/578/442 443/579/443
f 438/576/438 440/580/440 442/578/442
f 441/508/441 443/579/443 373/510/373
f 422/573/422 378/523/378 405/522/405
f 415/561/415 384/527/384 378/523/378
f 384/527/384 413/581/413 386/530/386
f 386/530/386 412/582/412 387/583/387
f 412/554/412 388/584/388 387/585/387
f 388/584/388 411/490/411 389/512/389
f 326/586/326 351/466/351 327/435/327
f 327/435/327 353/469/353 329/438/329
f 329/438/329 354/471/354 331/587/331
f 339/460/339 355/513/355 363/489/363
f 333/442/333 374/474/374 356/476/356
f 333/442/333 356/476/356 357/477/357
f 335/443/335 357/477/357 358/479/358
f 337/445/337 358/479/358 359/481/359
f 326/447/326 359/481/359 361/485/361
f 339/460/339 363/489/363 362/488/362
f 341/450/341 362/488/362 364/492/364
f 342/588/342 364/492/364 366/494/366
f 342/588/342 366/494/366 368/497/368
f 344/589/344 370/502/370 345/454/345
f 345/454/345 371/506/371 347/590/347
f 347/590/347 372/509/372 349/457/349
f 447/591/447 452/592/452 489/593/489
f 444/594/444 446/595/446 490/596/490
f 446/595/446 445/597/445 448/598/448
f 446/595/446 448/598/448 450/599/450
f 447/591/447 450/600/450 451/601/451
f 450/599/450 454/602/454 457/603/457
f 451/601/451 465/604/465 452/592/452
f 454/602/454 455/605/455 456/606/456
f 457/607/457 465/604/465 451/601/451
f 455/608/455 459/609/459 456/610/456
f 457/611/457 461/612/461 463/613/463
f 459/609/459 461/612/461 457/611/457
f 458/614/458 460/615/460 459/609/459
f 459/609/459 460/615/460 461/612/461
f 461/612/461 460/615/460 464/616/464
f 461/612/461 464/616/464 467/617/467
f 467/617/467 470/618/470 463/613/463
f 465/604/465 463/619/463 478/620/478
f 452/592/452 465/604/465 478/620/478
f 466/621/466 469/622/469 464/623/464
f 469/622/469 468/624/468 471/625/471
f 467/626/467 469/622/469 472/627/472
f 470/628/470 472/627/472 477/629/477
f 471/625/471 474/630/474 469/622/469
f 472/627/472 475/631/475 481/632/481
f 474/630/474 475/631/475 472/627/472
f 473/633/473 476/634/476 474/630/474
f 475/631/475 476/634/476 480/635/480
f 477/636/477 481/637/481 483/638/483
f 477/636/477 489/593/489 478/620/478
f 452/592/452 478/620/478 489/593/489
f 479/639/479 482/640/482 480/641/480
f 482/640/482 484/642/484 486/643/486
f 484/642/484 530/644/530 533/645/533
f 448/598/448 494/646/494 496/647/496
f 483/648/483 487/649/487 488/650/488
f 453/651/453 504/652/504 455/605/455
f 462/653/462 512/654/512 515/655/515
f 476/656/476 530/644/530 479/639/479
f 449/657/449 499/658/499 453/651/453
f 466/621/466 515/659/515 518/660/518
f 458/614/458 512/654/512 460/615/460
f 448/598/448 496/647/496 449/657/449
f 471/625/471 521/661/521 525/662/525
f 488/663/488 487/664/487 447/591/447
f 476/634/476 525/662/525 527/665/527
f 444/594/444 494/646/494 445/597/445
f 462/653/462 515/655/515 466/666/466
f 444/667/444 535/668/535 537/669/537
f 458/614/458 504/670/504 508/671/508
f 486/643/486 444/667/444 490/672/490
f 471/625/471 525/662/525 473/633/473
f 449/657/449 496/647/496 499/658/499
f 490/672/490 446/673/446 487/649/487
f 484/642/484 535/668/535 485/674/485
f 492/675/492 494/646/494 537/676/537
f 495/677/495 496/647/496 492/675/492
f 493/678/493 500/679/500 495/677/495
f 495/677/495 500/679/500 498/680/498
f 498/680/498 499/658/499 496/647/496
f 493/681/493 497/682/497 501/683/501
f 497/682/497 538/684/538 503/685/503
f 500/679/500 502/686/502 498/680/498
f 501/687/501 506/688/506 500/679/500
f 503/685/503 505/689/505 501/683/501
f 502/686/502 504/652/504 499/658/499
f 506/690/506 507/691/507 502/692/502
f 504/670/504 507/691/507 508/671/508
f 507/691/507 509/693/509 511/694/511
f 503/685/503 510/695/510 505/689/505
f 506/696/506 510/695/510 509/697/509
f 506/690/506 509/693/509 507/691/507
f 511/694/511 512/654/512 508/671/508
f 510/695/510 514/698/514 509/697/509
f 511/694/511 514/699/514 513/700/513
f 511/694/511 515/655/515 512/654/512
f 503/685/503 517/701/517 510/695/510
f 514/698/514 517/701/517 520/702/520
f 520/702/520 519/703/519 516/704/516
f 517/701/517 538/684/538 524/705/524
f 519/706/519 521/661/521 518/660/518
f 519/703/519 520/702/520 522/707/522
f 522/708/522 525/662/525 521/661/521
f 524/705/524 526/709/526 522/707/522
f 524/705/524 523/710/523 529/711/529
f 526/712/526 527/665/527 525/662/525
f 529/711/529 531/713/531 524/705/524
f 524/705/524 531/713/531 526/709/526
f 526/714/526 531/715/531 528/716/528
f 527/717/527 528/716/528 530/644/530
f 528/716/528 534/718/534 532/719/532
f 530/644/530 532/719/532 533/645/533
f 531/713/531 529/711/529 534/720/534
f 534/718/534 536/721/536 532/719/532
f 533/645/533 536/721/536 535/668/535
f 523/710/523 497/682/497 529/711/529
f 523/710/523 538/684/538 497/682/497
f 534/720/534 497/682/497 491/722/491
f 536/721/536 491/723/491 492/724/492
f 536/721/536 537/669/537 535/668/535
f 5/6/5 119/725/119 7/22/7
f 120/3/120 15/2/15 10/41/10
f 120/3/120 10/41/10 16/4/16
f 2/8/2 8/7/8 9/9/9
f 4/14/4 118/11/118 26/13/26
f 3/17/3 6/10/6 11/18/11
f 8/7/8 5/6/5 7/22/7
f 9/9/9 14/24/14 11/18/11
f 8/7/8 7/22/7 13/23/13
f 4/14/4 20/26/20 12/15/12
f 11/18/11 18/25/18 15/19/15
f 12/21/12 17/30/17 13/23/13
f 10/41/10 15/2/15 25/37/25
f 14/24/14 13/23/13 21/27/21
f 14/24/14 23/28/23 18/25/18
f 17/30/17 12/21/12 20/31/20
f 25/37/25 15/2/15 24/726/24
f 21/27/21 17/30/17 27/32/27
f 19/12/19 58/44/58 26/13/26
f 20/26/20 37/35/37 29/52/29
f 27/727/27 20/26/20 29/52/29
f 25/37/25 24/726/24 31/38/31
f 25/37/25 41/39/41 35/40/35
f 10/41/10 35/40/35 16/4/16
f 22/33/22 21/27/21 30/42/30
f 27/32/27 29/728/29 32/729/32
f 30/42/30 27/32/27 32/729/32
f 22/33/22 33/46/33 34/47/34
f 26/13/26 36/48/36 37/35/37
f 31/36/31 28/34/28 34/47/34
f 31/49/31 40/51/40 41/63/41
f 29/730/29 38/56/38 32/55/32
f 33/58/33 30/731/30 32/55/32
f 35/40/35 52/54/52 66/45/66
f 33/58/33 32/55/32 42/57/42
f 34/50/34 39/59/39 40/51/40
f 39/59/39 45/67/45 46/60/46
f 40/51/40 46/60/46 51/62/51
f 38/56/38 37/732/37 43/64/43
f 42/57/42 38/56/38 44/65/44
f 45/67/45 42/57/42 48/68/48
f 43/61/43 36/48/36 59/73/59
f 43/61/43 59/73/59 53/83/53
f 46/60/46 50/74/50 51/62/51
f 44/65/44 43/64/43 53/69/53
f 48/68/48 44/65/44 47/70/47
f 45/67/45 49/72/49 50/74/50
f 48/68/48 47/70/47 54/75/54
f 49/72/49 48/68/48 55/76/55
f 49/72/49 55/76/55 56/77/56
f 62/71/62 51/66/51 57/733/57
f 66/45/66 52/54/52 75/79/75
f 55/76/55 61/85/61 64/80/64
f 57/78/57 56/77/56 64/80/64
f 54/734/54 53/83/53 60/82/60
f 62/71/62 57/733/57 65/86/65
f 54/75/54 60/735/60 63/84/63
f 55/76/55 54/75/54 63/84/63
f 62/71/62 81/87/81 75/79/75
f 59/73/59 58/44/58 1/43/1
f 59/73/59 76/91/76 60/82/60
f 61/88/61 71/97/71 68/89/68
f 65/736/65 64/90/64 69/92/69
f 65/736/65 69/92/69 74/109/74
f 81/87/81 65/86/65 74/737/74
f 60/94/60 67/104/67 70/95/70
f 71/97/71 63/96/63 72/98/72
f 69/92/69 80/101/80 74/109/74
f 71/97/71 72/98/72 79/102/79
f 76/91/76 84/117/84 77/103/77
f 67/104/67 77/738/77 78/105/78
f 72/98/72 70/95/70 78/105/78
f 81/87/81 74/737/74 88/112/88
f 77/738/77 82/739/82 78/105/78
f 75/79/75 90/106/90 95/99/95
f 72/98/72 83/107/83 79/102/79
f 79/102/79 86/113/86 87/111/87
f 76/91/76 106/110/106 84/117/84
f 80/101/80 87/111/87 88/108/88
f 82/739/82 77/738/77 84/740/84
f 83/107/83 78/105/78 82/739/82
f 83/107/83 82/739/82 89/114/89
f 83/107/83 85/115/85 86/113/86
f 84/117/84 91/120/91 99/132/99
f 89/118/89 84/117/84 99/132/99
f 90/106/90 88/112/88 94/123/94
f 92/127/92 89/741/89 96/134/96
f 90/106/90 103/124/103 95/99/95
f 102/131/102 93/129/93 101/136/101
f 103/124/103 94/123/94 102/742/102
f 98/128/98 92/127/92 97/135/97
f 91/120/91 106/110/106 118/11/118
f 98/128/98 105/137/105 101/136/101
f 97/135/97 96/134/96 100/139/100
f 91/120/91 113/146/113 107/140/107
f 100/139/100 99/138/99 107/142/107
f 103/124/103 102/742/102 110/149/110
f 97/135/97 100/139/100 108/143/108
f 105/137/105 97/135/97 104/144/104
f 105/137/105 111/147/111 109/145/109
f 101/136/101 117/148/117 110/141/110
f 112/5/112 103/124/103 120/3/120
f 108/143/108 114/150/114 115/155/115
f 104/144/104 108/143/108 115/155/115
f 111/147/111 104/144/104 115/155/115
f 118/11/118 106/110/106 19/12/19
f 117/148/117 109/145/109 116/152/116
f 111/147/111 2/156/2 116/152/116
f 114/150/114 119/157/119 115/155/115
f 120/3/120 117/151/117 3/1/3
f 2/156/2 115/155/115 5/158/5
f 116/152/116 6/159/6 3/153/3
f 114/154/114 113/146/113 4/14/4
f 123/169/123 122/160/122 126/167/126
f 125/162/125 127/171/127 126/167/126
f 129/170/129 123/169/123 126/167/126
f 132/164/132 124/163/124 129/743/129
f 129/170/129 126/167/126 131/173/131
f 128/172/128 127/171/127 130/176/130
f 131/173/131 128/172/128 133/177/133
f 129/743/129 135/744/135 139/179/139
f 132/164/132 129/743/129 139/179/139
f 130/176/130 134/219/134 133/177/133
f 131/173/131 133/177/133 136/178/136
f 135/185/135 138/184/138 139/745/139
f 138/184/138 137/183/137 140/186/140
f 139/179/139 145/189/145 141/166/141
f 139/179/139 144/193/144 145/189/145
f 138/184/138 140/186/140 144/746/144
f 139/745/139 138/184/138 144/746/144
f 144/746/144 140/186/140 143/188/143
f 144/746/144 143/188/143 147/192/147
f 144/193/144 149/195/149 145/189/145
f 145/189/145 149/195/149 152/190/152
f 149/195/149 147/194/147 151/747/151
f 146/197/146 148/232/148 150/198/150
f 152/190/152 149/195/149 158/201/158
f 148/232/148 154/202/154 150/198/150
f 150/198/150 155/203/155 153/204/153
f 154/202/154 156/233/156 157/206/157
f 155/203/155 157/206/157 153/204/153
f 158/201/158 153/205/153 160/748/160
f 160/208/160 157/207/157 159/211/159
f 158/201/158 162/749/162 169/165/169
f 162/214/162 160/208/160 165/216/165
f 162/749/162 168/750/168 169/165/169
f 161/215/161 164/222/164 163/212/163
f 130/176/130 181/227/181 184/218/184
f 142/187/142 140/186/140 191/220/191
f 121/751/121 166/228/166 216/298/216
f 130/176/130 127/171/127 176/226/176
f 165/216/165 166/228/166 167/238/167
f 137/183/137 188/235/188 191/220/191
f 168/217/168 165/216/165 167/238/167
f 164/222/164 161/215/161 210/230/210
f 127/171/127 125/162/125 174/231/174
f 148/232/148 198/237/198 201/223/201
f 168/750/168 124/163/124 169/165/169
f 166/228/166 214/229/214 216/298/216
f 137/183/137 134/180/134 184/234/184
f 148/232/148 146/197/146 196/236/196
f 159/211/159 208/225/208 210/230/210
f 125/162/125 121/161/121 216/240/216
f 166/228/166 121/751/121 122/239/122
f 167/238/167 123/241/123 124/242/124
f 142/187/142 193/221/193 196/243/196
f 217/245/217 173/248/173 170/246/170
f 171/247/171 170/246/170 216/240/216
f 173/252/173 179/251/179 175/255/175
f 175/249/175 178/256/178 174/231/174
f 176/226/176 174/231/174 180/257/180
f 178/256/178 182/752/182 180/257/180
f 179/251/179 177/253/177 186/260/186
f 179/251/179 186/260/186 182/258/182
f 180/257/180 183/753/183 184/218/184
f 183/263/183 182/262/182 187/265/187
f 184/234/184 183/263/183 185/266/185
f 186/260/186 189/267/189 187/264/187
f 186/260/186 200/271/200 189/267/189
f 185/266/185 187/265/187 192/269/192
f 188/235/188 185/266/185 190/270/190
f 191/220/191 190/270/190 195/272/195
f 195/272/195 192/269/192 194/274/194
f 194/273/194 189/267/189 199/276/199
f 196/236/196 195/754/195 197/279/197
f 194/755/194 199/277/199 197/279/197
f 196/236/196 197/279/197 198/237/198
f 197/279/197 203/280/203 198/237/198
f 202/283/202 199/276/199 206/281/206
f 203/280/203 202/278/202 207/284/207
f 200/271/200 218/259/218 206/281/206
f 202/278/202 211/756/211 207/284/207
f 205/224/205 203/280/203 204/285/204
f 205/224/205 204/285/204 208/244/208
f 204/286/204 209/288/209 208/225/208
f 211/282/211 213/294/213 209/290/209
f 212/289/212 209/288/209 213/292/213
f 214/229/214 212/289/212 215/293/215
f 211/282/211 172/250/172 213/294/213
f 172/250/172 218/259/218 177/253/177
f 215/293/215 213/292/213 217/296/217
f 214/229/214 215/293/215 171/297/171
f 219/361/219 220/299/220 221/301/221
f 220/299/220 222/305/222 223/300/223
f 221/302/221 223/757/223 226/303/226
f 260/304/260 226/303/226 231/319/231
f 222/305/222 224/307/224 225/306/225
f 223/757/223 225/309/225 226/303/226
f 225/306/225 228/308/228 229/758/229
f 224/307/224 227/311/227 228/308/228
f 226/303/226 236/313/236 231/319/231
f 229/310/229 228/759/228 232/760/232
f 232/316/232 230/315/230 233/321/233
f 229/310/229 232/760/232 235/317/235
f 236/313/236 229/310/229 238/318/238
f 235/322/235 233/321/233 234/323/234
f 238/318/238 235/317/235 237/761/237
f 237/324/237 234/323/234 239/326/239
f 243/320/243 236/313/236 241/325/241
f 238/318/238 237/761/237 242/328/242
f 242/327/242 239/326/239 240/359/240
f 240/762/240 244/331/244 242/333/242
f 241/325/241 249/329/249 243/320/243
f 242/328/242 246/763/246 249/329/249
f 245/334/245 247/335/247 246/332/246
f 246/763/246 248/337/248 249/329/249
f 246/332/246 251/336/251 248/764/248
f 247/335/247 250/354/250 251/336/251
f 248/764/248 251/336/251 254/765/254
f 249/329/249 254/338/254 255/330/255
f 251/339/251 250/356/250 252/340/252
f 254/338/254 251/766/251 253/767/253
f 253/341/253 252/340/252 256/342/256
f 254/338/254 253/767/253 258/344/258
f 255/330/255 254/338/254 259/345/259
f 258/343/258 256/342/256 257/348/257
f 258/343/258 257/348/257 219/346/219
f 259/345/259 258/344/258 221/302/221
f 231/319/231 259/345/259 260/304/260
f 261/768/261 270/769/270 267/770/267
f 270/769/270 269/771/269 267/770/267
f 268/772/268 267/770/267 269/771/269
f 267/770/267 266/773/266 261/768/261
f 266/773/266 265/774/265 261/768/261
f 261/768/261 265/774/265 262/775/262
f 265/774/265 264/776/264 262/775/262
f 263/777/263 262/775/262 264/776/264
f 224/307/224 262/352/262 263/778/263
f 220/299/220 261/362/261 262/352/262
f 257/348/257 256/342/256 270/349/270
f 247/335/247 267/358/267 268/353/268
f 219/346/219 270/349/270 261/779/261
f 250/354/250 268/353/268 269/780/269
f 227/311/227 224/307/224 263/778/263
f 230/315/230 227/781/227 263/360/263
f 234/323/234 233/321/233 264/357/264
f 256/342/256 269/350/269 270/349/270
f 244/331/244 240/762/240 266/363/266
f 271/431/271 273/364/273 272/366/272
f 272/367/272 274/782/274 278/368/278
f 313/369/313 278/368/278 276/373/276
f 273/364/273 275/370/275 274/365/274
f 274/782/274 277/374/277 278/368/278
f 275/370/275 279/421/279 280/783/280
f 275/370/275 280/783/280 277/371/277
f 277/371/277 280/783/280 281/784/281
f 278/368/278 281/375/281 296/372/296
f 279/421/279 282/423/282 280/783/280
f 281/375/281 280/785/280 283/376/283
f 296/372/296 281/375/281 285/377/285
f 285/377/285 283/376/283 287/386/287
f 283/380/283 282/379/282 286/382/286
f 286/382/286 284/381/284 288/384/288
f 287/383/287 286/382/286 289/385/289
f 289/385/289 288/384/288 290/389/290
f 285/377/285 287/386/287 293/388/293
f 296/372/296 285/377/285 293/388/293
f 293/388/293 289/387/289 291/786/291
f 291/390/291 290/389/290 292/430/292
f 291/393/291 294/392/294 295/398/295
f 291/786/291 295/394/295 293/388/293
f 293/388/293 298/395/298 296/372/296
f 294/392/294 297/396/297 295/398/295
f 297/396/297 299/402/299 300/397/300
f 295/394/295 300/399/300 298/395/298
f 298/395/298 303/400/303 306/401/306
f 299/402/299 301/404/301 302/403/302
f 300/397/300 302/403/302 303/787/303
f 303/400/303 302/788/302 304/406/304
f 306/401/306 303/400/303 305/407/305
f 304/408/304 301/427/301 307/409/307
f 305/789/305 304/408/304 309/410/309
f 306/401/306 305/407/305 312/412/312
f 309/410/309 307/409/307 308/413/308
f 312/412/312 309/411/309 311/790/311
f 311/414/311 308/413/308 310/415/310
f 312/412/312 311/790/311 272/367/272
f 276/373/276 312/412/312 313/369/313
f 272/416/272 310/415/310 271/425/271
f 314/791/314 324/792/324 319/793/319
f 324/792/324 323/794/323 319/793/319
f 319/793/319 323/794/323 320/795/320
f 323/794/323 322/796/322 320/795/320
f 321/797/321 320/795/320 322/796/322
f 319/793/319 318/798/318 314/791/314
f 314/791/314 318/798/318 315/799/315
f 318/798/318 317/800/317 315/799/315
f 315/799/315 317/800/317 316/801/316
f 310/415/310 323/419/323 324/424/324
f 307/409/307 322/428/322 323/419/323
f 297/396/297 294/392/294 320/420/320
f 279/421/279 275/370/275 316/802/316
f 271/425/271 324/424/324 314/803/314
f 273/364/273 314/432/314 315/417/315
f 299/402/299 297/396/297 320/420/320
f 290/389/290 318/426/318 319/429/319
f 275/370/275 315/417/315 316/802/316
f 301/427/301 321/804/321 322/428/322
f 279/421/279 316/802/316 317/422/317
f 284/381/284 282/379/282 317/433/317
f 294/392/294 319/434/319 320/420/320
f 288/384/288 284/381/284 317/433/317
f 308/413/308 307/409/307 323/419/323
f 326/586/326 327/435/327 325/437/325
f 327/435/327 329/438/329 328/436/328
f 329/438/329 331/587/331 330/439/330
f 332/440/332 348/805/348 349/441/349
f 332/440/332 333/442/333 335/443/335
f 334/444/334 335/443/335 337/445/337
f 337/445/337 326/447/326 336/446/336
f 336/806/336 325/807/325 334/462/334
f 334/462/334 325/807/325 330/808/330
f 325/807/325 328/809/328 330/808/330
f 339/460/339 341/450/341 338/449/338
f 340/451/340 341/450/341 342/588/342
f 340/451/340 342/588/342 344/452/344
f 344/589/344 345/454/345 343/456/343
f 345/454/345 347/590/347 346/455/346
f 347/590/347 349/457/349 346/455/346
f 330/459/330 331/810/331 339/460/339
f 340/811/340 343/812/343 338/463/338
f 343/812/343 346/813/346 348/461/348
f 348/461/348 332/814/332 334/462/334
f 343/812/343 348/461/348 338/463/338
f 330/808/330 338/463/338 334/462/334
f 351/466/351 350/465/350 352/468/352
f 350/465/350 375/815/375 376/467/376
f 352/468/352 376/467/376 383/470/383
f 354/471/354 383/470/383 385/526/385
f 354/471/354 385/526/385 389/472/389
f 374/474/374 373/532/373 395/475/395
f 357/477/357 356/476/356 395/475/395
f 358/479/358 357/477/357 397/478/397
f 360/482/360 401/480/401 404/483/404
f 361/485/361 359/481/359 360/482/360
f 350/486/350 360/482/360 406/484/406
f 364/492/364 362/488/362 418/491/418
f 365/495/365 364/492/364 425/493/425
f 368/497/368 366/494/366 365/495/365
f 367/498/367 365/495/365 427/496/427
f 368/500/368 367/503/367 369/501/369
f 369/501/369 431/504/431 434/507/434
f 370/502/370 369/501/369 437/505/437
f 371/506/371 437/505/437 441/508/441
f 372/509/372 441/508/441 373/510/373
f 389/512/389 411/490/411 363/489/363
f 375/815/375 410/514/410 376/467/376
f 376/467/376 377/515/377 380/517/380
f 377/515/377 407/816/407 379/516/379
f 409/519/409 398/521/398 378/523/378
f 381/524/381 380/517/380 382/525/382
f 383/470/383 381/524/381 385/526/385
f 379/520/379 409/519/409 384/527/384
f 385/526/385 382/525/382 387/529/387
f 382/525/382 379/516/379 386/528/386
f 373/532/373 443/534/443 394/533/394
f 443/534/443 442/817/442 393/535/393
f 393/536/393 442/818/442 440/537/440
f 440/537/440 435/540/435 391/539/391
f 435/540/435 432/542/432 390/541/390
f 432/542/432 422/573/422 405/522/405
f 397/478/397 395/475/395 394/533/394
f 396/543/396 393/535/393 392/547/392
f 400/544/400 394/533/394 396/543/396
f 399/545/399 391/539/391 390/541/390
f 398/521/398 390/541/390 405/522/405
f 401/480/401 397/478/397 400/544/400
f 403/546/403 396/543/396 392/547/392
f 402/819/402 392/538/392 399/545/399
f 404/483/404 401/480/401 400/544/400
f 404/483/404 400/544/400 403/546/403
f 408/549/408 403/546/403 402/548/402
f 407/518/407 402/819/402 399/545/399
f 410/551/410 404/483/404 408/549/408
f 409/519/409 399/545/399 398/521/398
f 375/487/375 406/484/406 410/551/410
f 377/552/377 408/549/408 407/550/407
f 417/553/417 411/490/411 412/554/412
f 416/555/416 412/554/412 413/556/413
f 421/558/421 413/581/413 414/559/414
f 420/560/420 414/559/414 415/561/415
f 419/562/419 415/561/415 422/573/422
f 425/493/425 418/491/418 417/553/417
f 424/563/424 417/553/417 416/555/416
f 423/564/423 416/555/416 421/557/421
f 427/496/427 425/493/425 424/563/424
f 427/496/427 424/563/424 423/564/423
f 426/565/426 423/564/423 421/557/421
f 429/567/429 421/558/421 420/560/420
f 428/568/428 420/560/420 419/562/419
f 431/499/431 427/496/427 426/565/426
f 430/569/430 426/565/426 429/566/429
f 431/504/431 430/571/430 433/570/433
f 428/568/428 419/562/419 432/542/432
f 433/570/433 429/572/429 436/577/436
f 429/567/429 428/568/428 435/540/435
f 434/507/434 433/570/433 438/576/438
f 438/576/438 436/577/436 440/580/440
f 441/508/441 439/575/439 443/579/443
f 439/575/439 438/576/438 442/578/442
f 422/573/422 415/561/415 378/523/378
f 415/561/415 414/559/414 384/527/384
f 384/527/384 414/559/414 413/581/413
f 386/530/386 413/581/413 412/582/412
f 412/554/412 411/490/411 388/584/388
f 326/586/326 361/464/361 351/466/351
f 327/435/327 351/466/351 353/469/353
f 329/438/329 353/469/353 354/471/354
f 331/587/331 354/471/354 355/473/355
f 339/460/339 331/810/331 355/513/355
f 333/442/333 349/441/349 374/474/374
f 335/443/335 333/442/333 357/477/357
f 337/445/337 335/443/335 358/479/358
f 326/447/326 337/445/337 359/481/359
f 341/450/341 339/460/339 362/488/362
f 342/588/342 341/450/341 364/492/364
f 344/452/344 342/588/342 368/497/368
f 344/589/344 368/500/368 370/502/370
f 345/454/345 370/502/370 371/506/371
f 347/590/347 371/506/371 372/509/372
f 349/457/349 372/509/372 374/511/374
f 444/594/444 445/597/445 446/595/446
f 447/591/447 446/820/446 450/600/450
f 447/591/447 451/601/451 452/592/452
f 448/598/448 449/657/449 450/599/450
f 449/657/449 453/651/453 454/602/454
f 450/599/450 449/657/449 454/602/454
f 451/601/451 450/821/450 457/607/457
f 454/602/454 453/651/453 455/605/455
f 454/822/454 456/610/456 457/611/457
f 455/608/455 458/614/458 459/609/459
f 456/610/456 459/609/459 457/611/457
f 457/607/457 463/619/463 465/604/465
f 460/615/460 462/653/462 464/616/464
f 461/612/461 467/617/467 463/613/463
f 462/653/462 466/666/466 464/616/464
f 478/620/478 463/619/463 470/823/470
f 467/626/467 464/623/464 469/622/469
f 466/621/466 468/624/468 469/622/469
f 470/628/470 467/626/467 472/627/472
f 472/627/472 469/622/469 474/630/474
f 478/620/478 470/823/470 477/636/477
f 471/625/471 473/633/473 474/630/474
f 477/636/477 472/824/472 481/637/481
f 475/631/475 474/630/474 476/634/476
f 475/631/475 480/635/480 481/632/481
f 476/656/476 479/639/479 480/641/480
f 477/636/477 483/638/483 489/593/489
f 481/825/481 480/641/480 482/640/482
f 479/639/479 484/642/484 482/640/482
f 483/648/483 481/825/481 482/640/482
f 484/642/484 479/639/479 530/644/530
f 482/640/482 486/643/486 487/649/487
f 448/598/448 445/597/445 494/646/494
f 483/648/483 482/640/482 487/649/487
f 453/651/453 499/658/499 504/652/504
f 483/638/483 488/663/488 489/593/489
f 462/653/462 460/615/460 512/654/512
f 468/624/468 518/660/518 521/661/521
f 484/642/484 485/674/485 486/643/486
f 476/656/476 527/717/527 530/644/530
f 458/614/458 508/671/508 512/654/512
f 471/625/471 468/624/468 521/661/521
f 487/649/487 486/643/486 490/672/490
f 476/634/476 473/633/473 525/662/525
f 444/594/444 537/676/537 494/646/494
f 444/667/444 485/674/485 535/668/535
f 458/614/458 455/608/455 504/670/504
f 486/643/486 485/674/485 444/667/444
f 468/624/468 466/621/466 518/660/518
f 484/642/484 533/645/533 535/668/535
f 447/591/447 487/664/487 446/820/446
f 489/593/489 488/663/488 447/591/447
f 497/682/497 493/681/493 491/722/491
f 494/646/494 492/675/492 496/647/496
f 495/677/495 491/826/491 493/678/493
f 496/647/496 495/677/495 498/680/498
f 500/679/500 493/678/493 501/687/501
f 501/683/501 497/682/497 503/685/503
f 499/658/499 498/680/498 502/686/502
f 501/687/501 505/827/505 506/688/506
f 502/686/502 500/679/500 506/688/506
f 504/670/504 502/692/502 507/691/507
f 508/671/508 507/691/507 511/694/511
f 506/696/506 505/689/505 510/695/510
f 509/693/509 514/699/514 511/694/511
f 510/695/510 517/701/517 514/698/514
f 511/694/511 513/700/513 515/655/515
f 517/701/517 503/685/503 538/684/538
f 513/700/513 514/699/514 516/828/516
f 515/655/515 513/700/513 516/829/516
f 515/659/515 516/830/516 518/660/518
f 514/698/514 520/702/520 516/704/516
f 516/830/516 519/706/519 518/660/518
f 520/702/520 517/701/517 524/705/524
f 521/661/521 519/706/519 522/708/522
f 524/705/524 538/684/538 523/710/523
f 520/702/520 524/705/524 522/707/522
f 522/708/522 526/712/526 525/662/525
f 526/712/526 528/831/528 527/665/527
f 528/716/528 531/715/531 534/718/534
f 530/644/530 528/716/528 532/719/532
f 533/645/533 532/719/532 536/721/536
f 529/711/529 497/682/497 534/720/534
f 536/721/536 534/718/534 491/723/491
f 491/723/491 495/832/495 492/724/492
f 537/669/537 536/721/536 492/724/492
