# Blender 5.0.1
# www.blender.org
mtllib man_custom.mtl
o Sphere.003
v -0.248607 18.063591 0.026976
v -0.265865 16.602402 -1.557413
v -0.097453 15.709463 -1.259316
v 0.101096 17.821033 -0.896231
v -0.054125 17.052082 -1.498440
v -0.058522 16.169895 -1.495979
v 0.229992 17.317095 -1.333542
v 0.307833 16.757826 -1.494273
v 0.275146 16.328442 -1.474935
v 0.209165 15.263614 -0.545660
v 0.455829 15.916202 -1.248162
v 0.438459 17.566183 -1.059005
v 0.731216 17.039059 -1.205188
v 0.804520 16.470789 -1.218069
v 0.311902 15.479300 -0.917483
v 0.064232 15.189943 -0.322478
v 0.872177 17.335135 -0.874972
v 0.856135 15.924898 -0.929017
v -0.025691 18.042543 -0.379070
v 0.630305 17.763786 -0.583821
v 1.120912 16.900173 -0.782254
v 1.262716 16.614307 -0.505911
v 1.132457 16.430048 -0.805279
v 0.858395 15.666030 -0.599759
v 0.537914 15.400938 -0.544745
v 0.258297 17.969490 -0.504072
v 1.094771 17.303717 -0.486013
v 1.194009 16.155132 -0.498915
v 0.970857 17.562586 -0.180954
v 1.283229 16.900173 -0.249096
v 0.986771 15.687763 -0.212391
v 1.242333 17.073483 0.040647
v 1.308486 16.614307 0.060477
v 1.257419 16.189556 0.005404
v 0.424700 15.274549 -0.104777
v 0.373518 17.962708 0.104260
v 0.752636 17.769451 0.034100
v 1.061168 17.335135 0.306067
v 1.191630 16.471436 0.469850
v 1.061168 15.893480 0.306067
v 0.752635 15.459164 0.034100
v 1.122265 16.900173 0.564393
v 0.585290 17.747025 0.463669
v 0.861427 17.303717 0.707241
v 0.972292 16.470787 0.834967
v 0.861427 15.924899 0.707241
v 0.578121 17.301590 0.958796
v 0.769139 16.900173 0.995561
v 0.646679 16.471434 1.111286
v 0.578121 15.927025 0.958796
v 0.607809 15.580696 0.602039
v 0.323992 15.304989 0.351791
v 0.279438 17.647919 0.833467
v 0.240238 17.303715 1.125218
v 0.261458 16.757828 1.293012
v 0.291474 16.189556 1.224906
v 0.184057 15.687762 0.975172
v 0.085973 18.043987 0.076237
v 0.046814 17.902241 0.565027
v -0.254850 17.540852 1.016034
v -0.273570 16.722130 1.345158
v 0.075094 15.399029 0.673794
v -0.404893 17.060572 1.269049
v -0.206979 16.159800 1.278614
v -0.254850 15.687762 1.016034
v 0.025301 15.180573 0.120845
v -0.675985 17.540852 0.885824
v -0.551368 16.328442 1.259606
v -0.626923 15.927024 1.080355
v -0.750774 17.172876 1.088546
v -0.847042 16.614307 1.164473
v -1.097837 16.781807 0.984381
v -0.965548 16.159800 1.006723
v -0.688656 15.580696 0.762379
v -0.297874 15.260786 0.419003
v -0.473365 17.916885 0.473368
v -0.963087 17.565952 0.627639
v -1.161908 17.172876 0.763034
v -1.241336 16.328442 0.799586
v -1.074057 15.872236 0.743486
v -0.604927 15.388040 0.547714
v -1.278682 17.335135 0.447803
v -1.433922 16.757830 0.557485
v -0.955582 17.773941 0.261131
v -1.589444 16.722132 0.042911
v -1.504548 16.328442 0.308340
v -1.370993 15.924899 0.270685
v -1.079242 15.580696 0.309885
v -1.421116 17.303717 0.022891
v -0.772083 15.310796 0.074118
v -0.906320 17.829586 -0.364545
v -1.559732 16.900173 -0.246239
v -1.524389 16.159800 -0.176532
v -1.241395 15.662662 -0.171073
v -0.407258 15.189944 0.013364
v -1.373415 17.303715 -0.478031
v -1.398487 16.900173 -0.779721
v -1.524719 16.470785 -0.553609
v -1.129777 17.660755 -0.378221
v -1.207940 17.301590 -0.818854
v -1.222979 15.910824 -0.809729
v -1.186961 15.682778 -0.521189
v -0.790346 15.326042 -0.355067
v -1.045362 16.900173 -1.210889
v -1.248514 16.470785 -1.050295
v -0.544720 18.019356 -0.143037
v -0.731243 17.647919 -0.949252
v -0.959463 17.303715 -1.101911
v -1.009360 16.155134 -1.188657
v -0.732702 15.486560 -0.818672
v -0.801994 16.614307 -1.403879
v -0.242906 15.165384 -0.252118
v -0.508834 17.833485 -0.819120
v -0.467287 17.554697 -1.174761
v -0.556211 17.049700 -1.441654
v -0.556211 16.178915 -1.441654
v -0.587353 15.682777 -1.141718
v -0.452206 17.972769 -0.559868
v -0.142240 17.544298 -1.237272
v -0.302529 15.313566 -0.756083
v 0.074001 8.140708 -4.264299
v 0.003401 7.653973 -4.219162
v 0.113033 7.383254 -4.100080
v 0.039038 7.113009 -3.912000
v 0.357732 7.990324 -4.195714
v 0.373533 7.457150 -4.040704
v 0.630109 7.969135 -4.000084
v 0.650249 7.637778 -3.871455
v 0.307345 7.113366 -3.802512
v 0.839775 8.055609 -3.633449
v 0.583250 7.338702 -3.719534
v 0.148988 6.968185 -3.622831
v 0.765577 7.606411 -3.592521
v 0.866884 8.001606 -3.286243
v 0.547276 7.196573 -3.466168
v 0.746851 7.525258 -3.300436
v 0.759404 7.866731 -2.978280
v 0.543518 7.318682 -3.072244
v 0.372769 7.035567 -3.359084
v 0.518219 7.733259 -2.730008
v 0.073428 6.923816 -3.456644
v 0.233649 7.908353 -2.538700
v 0.216101 7.490131 -2.693656
v 0.202757 7.144679 -2.960958
v 0.128487 6.983558 -3.197981
v -0.103201 7.775405 -2.537287
v -0.059021 7.275894 -2.801013
v -0.448738 7.921139 -2.614012
v -0.152799 7.025911 -3.101150
v -0.418967 7.461857 -2.780169
v -0.362419 7.134256 -3.060251
v -0.111274 6.931271 -3.378999
v -0.590303 7.257872 -3.231950
v -0.773614 7.943868 -2.913994
v -0.713044 7.537939 -3.078153
v -0.902950 7.998250 -3.323665
v -0.807079 7.601118 -3.344707
v -0.406779 7.038939 -3.433531
v -0.856806 7.886303 -3.634177
v -0.677907 7.365371 -3.587290
v -0.791575 8.052341 -3.818109
v -0.365557 7.080216 -3.692750
v -0.665411 7.637794 -3.886166
v -0.569637 8.108321 -4.079413
v -0.496259 7.491713 -4.000152
v -0.253374 7.993084 -4.242242
v -0.222957 7.444951 -4.112344
v -0.216966 7.123011 -3.883250
v -0.116400 6.966102 -3.663292
v 0.142127 13.922762 -3.397734
v -0.152942 13.922815 -3.426735
v -0.103052 14.447405 -2.907827
v 0.062241 14.294711 -3.125335
v 0.403894 13.634890 -3.410844
v 0.290466 14.118658 -3.195974
v 0.624686 13.495126 -3.238595
v -0.018203 14.493966 -2.724552
v 0.495463 14.099745 -2.988994
v 0.258433 14.393887 -2.810075
v 0.678074 13.851816 -2.923134
v 0.780227 13.446883 -2.939441
v 0.469472 14.240046 -2.594571
v 0.708773 13.827417 -2.552937
v 0.812579 13.404841 -2.596308
v 0.618957 13.797854 -2.267635
v 0.163156 14.440845 -2.500697
v 0.454443 14.177771 -2.367362
v 0.703017 13.370459 -2.263115
v 0.101557 14.365614 -2.278682
v 0.419939 13.757148 -2.026978
v 0.481079 13.314480 -2.001811
v 0.240377 14.159757 -2.123826
v 0.175598 13.299990 -1.847396
v -0.026361 14.138329 -2.026997
v 0.100628 13.706888 -1.863443
v -0.170094 13.293956 -1.815533
v -0.245891 13.881601 -1.911003
v -0.497169 13.422171 -1.914911
v -0.240455 14.320934 -2.205048
v -0.109397 14.451056 -2.381011
v -0.771118 13.319759 -2.146574
v -0.512916 14.166912 -2.220748
v -0.711553 13.794071 -2.168162
v -0.855123 13.836960 -2.547314
v -0.930580 13.367666 -2.459798
v -0.429854 14.384761 -2.502705
v -0.709595 14.122097 -2.528505
v -0.948046 13.537203 -2.766917
v -0.711928 14.077565 -2.884906
v -0.851901 13.444830 -3.125725
v -0.482536 14.379514 -2.669500
v -0.741882 13.861033 -3.094196
v -0.454310 14.277311 -2.998426
v -0.556687 13.513672 -3.439072
v -0.456642 13.915024 -3.330220
v -0.057236 13.512793 -3.586084
v -0.193831 14.270902 -3.160852
v -0.190622 14.493407 -2.587937
v -0.219527 0.899080 -2.368162
v 0.314628 0.890075 -2.332841
v 0.061963 0.491127 -2.192044
v 0.691992 0.890816 -2.173072
v 0.526307 0.510967 -2.049208
v 0.951512 0.885881 -1.922892
v 0.743360 0.512360 -1.851454
v 0.390737 0.268671 -1.782276
v 1.083653 0.986901 -1.627453
v 0.952806 0.657374 -1.639969
v 0.683070 0.368324 -1.517523
v 1.063550 0.884398 -1.423554
v 0.048816 0.165113 -1.633442
v 0.809512 0.513020 -1.344750
v 0.951512 0.885880 -1.154654
v 0.713336 0.876138 -0.922905
v 0.647760 0.511631 -1.119235
v 0.363362 0.237198 -1.383549
v 0.383615 0.510452 -0.956964
v 0.368351 0.322327 -1.172377
v 0.389706 0.908195 -0.755837
v -0.132745 0.877465 -0.710952
v -0.049996 0.268867 -1.142514
v -0.110543 0.491127 -0.885502
v 0.016905 0.171062 -1.436963
v -0.517073 0.874260 -0.796387
v -0.746348 0.978528 -0.896672
v -0.707954 0.581945 -1.039745
v -1.015917 0.978786 -1.154984
v -0.791940 0.512358 -1.226091
v -0.416519 0.273729 -1.262393
v -1.134074 0.987049 -1.464270
v -1.027562 0.697042 -1.407133
v -1.079377 0.891680 -1.779969
v -0.858093 0.513020 -1.732796
v -0.731653 0.368326 -1.560020
v -0.349243 0.201326 -1.510476
v -0.882564 0.885261 -2.059400
v -0.588344 0.875484 -2.251990
v -0.583349 0.502483 -2.052050
v -0.360893 0.275541 -1.855733
v 0.027883 0.271826 -1.936713
v 0.058259 7.901353 -2.403101
v 0.763371 7.901353 -2.153839
v 1.089133 7.901354 -1.702593
v 1.013171 7.901354 -1.197594
v 0.588493 7.901353 -0.818432
v -0.052328 7.901354 -0.682116
v -0.758716 7.901355 -0.879008
v -1.093772 7.901353 -1.280628
v -1.129293 7.901353 -1.758998
v -0.683276 7.901354 -2.235195
v 0.001047 0.898835 0.589803
v 0.061965 0.491127 0.778724
v 0.513901 0.890376 0.703728
v 0.526308 0.510969 0.921558
v 0.833984 0.885262 0.911368
v 0.016904 0.171062 1.330183
v 0.743359 0.512360 1.119314
v 0.388033 0.275833 1.170563
v 1.045920 0.985497 1.193937
v 0.978981 0.697042 1.300355
v 0.621082 0.329039 1.384367
v 1.063318 0.879368 1.569226
v 0.809510 0.513020 1.626019
v 0.967335 0.978786 1.815786
v 0.424873 0.265543 1.625350
v 0.744518 0.666049 1.909140
v 0.492591 0.378040 1.805846
v 0.691953 0.985055 2.079631
v 0.417387 0.580677 2.063163
v 0.298922 0.977084 2.239067
v 0.067657 0.568419 2.135157
v -0.142501 0.970366 2.270242
v 0.027892 0.271830 1.829939
v -0.480147 0.876565 2.192287
v -0.439060 0.502069 2.018294
v 0.048813 0.165113 1.526661
v -0.830235 0.882385 2.003913
v -0.360882 0.275539 1.748960
v -1.017370 0.877185 1.786940
v -0.791940 0.512358 1.744676
v -1.146677 0.987780 1.424599
v -1.001389 0.657375 1.533190
v -0.730287 0.377234 1.513026
v -1.011894 0.670660 1.300648
v -0.708069 0.381565 1.270436
v -0.349246 0.201326 1.403698
v -1.000093 0.885879 1.047877
v -0.761917 0.876139 0.816128
v -0.696345 0.511633 1.012458
v -0.476663 0.880972 0.669095
v -0.432198 0.510454 0.850187
v -0.360893 0.275539 1.115036
v 0.027886 0.271830 1.034050
v 0.172208 7.901354 0.588084
v 0.676898 7.901353 0.768048
v 1.013172 7.901355 1.090818
v 1.076675 7.901354 1.676257
v 0.610557 7.901355 2.138426
v -0.106840 7.901354 2.296324
v -0.834053 7.901354 2.034030
v -1.131512 7.901353 1.594627
v -1.105034 7.901353 1.202650
v -0.851034 7.901354 0.847269
v -0.371311 7.901354 0.623528
v 0.284207 7.900801 -2.373237
v -0.012026 9.763943 -2.395692
v 0.525680 9.790911 -2.279801
v 0.834783 7.900801 -2.086052
v 0.859366 9.790616 -2.062850
v 1.075040 7.900801 -1.737844
v 1.071752 9.788010 -1.732648
v -1.123622 7.900801 -1.737843
v -1.122954 9.761771 -1.724034
v -0.883364 7.900801 -2.086052
v -0.907947 9.790616 -2.062850
v -0.462467 7.900801 -2.326269
v -0.564737 9.806791 -2.285656
v 1.050293 7.900801 1.722200
v 1.077135 9.832123 1.625607
v 0.497156 7.900801 2.204554
v 0.853896 9.775074 1.960860
v 0.440334 9.789351 2.214471
v -0.362414 7.900801 2.257640
v -0.135296 9.790972 2.280814
v -0.574261 9.790913 2.174351
v -0.955181 7.900801 1.920094
v -0.907946 9.790615 1.957401
v -1.130558 7.900801 1.565426
v -1.124207 9.813515 1.620344
v 0.105631 12.840862 -2.782669
v 0.334843 11.935894 -2.568144
v 0.600244 12.848957 -2.670208
v 0.765385 12.023231 -2.403907
v 1.068702 12.056625 -2.126039
v 1.196526 12.059990 -1.822739
v -1.244305 12.053341 -1.823057
v -1.160944 12.059177 -2.046129
v -0.983924 12.058352 -2.279196
v -0.607266 11.935837 -2.497352
v -0.409104 12.848684 -2.745936
v -0.145613 11.925573 -2.602677
v 1.159663 12.053728 1.851504
v 1.228997 12.371756 1.615479
v 0.935340 12.058352 2.173748
v 0.600240 12.848961 2.564761
v 0.558683 11.935835 2.391903
v 0.105635 12.840872 2.677220
v 0.097036 11.925587 2.497227
v -0.409107 12.848701 2.640489
v -0.383427 11.935901 2.462694
v -0.813970 12.023230 2.298455
v -1.117285 12.056631 2.020588
v -1.408091 13.481501 1.949838
v -1.259753 12.271914 1.740049
v 0.114255 13.464440 -2.963889
v 0.575291 13.708673 -2.941901
v 0.103966 14.156395 -3.003293
v 0.364163 14.797371 -2.264444
v 0.681790 14.446514 -2.708776
v 0.591453 14.150272 -2.894498
v 0.872650 13.819301 -2.794997
v 0.983963 14.156511 -2.651766
v 1.058970 13.377440 -2.542358
v 0.756253 14.660068 -2.268383
v 1.271385 13.753831 -2.407900
v 1.055095 14.438930 -2.257114
v 1.246765 14.159311 -2.270082
v 1.368003 13.834561 -2.124233
v 1.353374 13.444065 -2.047299
v -0.468976 14.795339 -2.139810
v -0.819039 14.657957 -2.216074
v -1.075898 14.443787 -2.340980
v -1.313632 14.162445 -2.165238
v -1.402657 13.819708 -2.223599
v -1.401956 13.444063 -2.047300
v -1.173160 14.160222 -2.493141
v -1.258416 13.407351 -2.377492
v -0.211440 14.797466 -2.382027
v -0.541234 14.660210 -2.549233
v -1.115844 13.824295 -2.647888
v -0.944361 13.248808 -2.626382
v -0.720906 14.438747 -2.701282
v -0.852621 14.153083 -2.787435
v -0.758298 13.728708 -2.883700
v -0.026540 14.842937 -2.061133
v -0.435657 13.451749 -2.918649
v -0.134245 14.453750 -2.886877
v -0.402984 14.148304 -2.968411
v 0.219313 14.672684 -2.657969
v -0.162922 13.823648 -3.032432
v 1.384645 13.716911 2.003727
v 1.265051 14.162445 2.059788
v 1.045846 14.446924 2.155551
v 0.764119 14.659387 2.118570
v 0.420396 14.795340 2.034356
v 1.124579 14.160222 2.387690
v 1.219308 13.829656 2.370314
v 1.209835 13.407352 2.272042
v 0.162849 14.797462 2.276591
v 0.492653 14.660210 2.443783
v 0.681790 14.446513 2.603326
v -0.022075 14.842941 1.955635
v 0.804035 14.153084 2.681988
v 0.872649 13.819302 2.689548
v 0.871281 13.382694 2.586952
v 0.354399 14.148304 2.862962
v 0.396680 13.699179 2.881052
v -0.105672 14.662170 2.572285
v -0.134244 14.453750 2.781427
v -0.152550 14.156397 2.897841
v -0.165354 13.707536 2.925600
v -0.412750 14.797371 2.158991
v -0.640032 14.150272 2.789048
v -0.705023 13.702075 2.799207
v -0.744014 14.669083 2.275637
v -0.720904 14.438749 2.595833
v -0.944362 13.248810 2.520931
v -1.032539 14.156511 2.546319
v -1.115841 13.824294 2.542439
v -1.084742 14.444532 2.221308
v -1.258417 13.407351 2.272040
v -1.295345 14.159310 2.164635
v -1.400019 13.837486 2.121546
v -0.138004 7.800272 2.417731
v 0.212691 7.790888 2.451286
v 0.086855 7.236806 2.648413
v 0.005008 6.909263 2.982333
v 0.401027 7.668525 2.559992
v 0.639566 7.719614 2.749833
v 0.464351 7.181710 2.917061
v 0.286738 6.915841 3.156086
v 0.014698 6.806324 3.338823
v 0.814075 7.873790 3.032621
v 0.719733 7.450790 3.109631
v 0.848939 7.881065 3.371890
v 0.745018 7.469852 3.418309
v 0.520612 7.083197 3.442187
v 0.755204 7.950686 3.705192
v 0.665837 7.512119 3.704482
v 0.536628 7.844702 3.973016
v 0.435096 7.269719 3.836309
v 0.314708 8.001256 4.105749
v 0.179039 6.987933 3.766100
v 0.198436 7.553927 4.102154
v 0.179363 6.867428 3.540243
v -0.026968 7.989414 4.187339
v -0.047861 7.274426 4.034906
v -0.440079 7.996573 4.083908
v -0.308712 7.567638 4.089691
v -0.158690 7.010442 3.820338
v -0.609525 7.852061 3.972136
v -0.449035 7.152049 3.794628
v -0.814495 7.948968 3.721629
v -0.683605 7.525957 3.803457
v -0.702322 7.300103 3.577429
v -0.912286 7.800077 3.410608
v -0.364379 6.924517 3.541582
v -0.172756 6.852490 3.549845
v -0.888551 7.871848 3.050239
v -0.820379 7.466629 3.199514
v -0.599025 7.072436 3.388114
v -0.659891 7.302560 2.954732
v -0.395818 6.926202 3.189641
v -0.730987 7.854324 2.741148
v -0.467805 7.817877 2.524862
v -0.479697 7.432159 2.670825
v -0.310125 7.117686 2.808838
v -0.225016 6.909772 3.038990
v -0.169001 6.823133 3.285806
v -0.137498 7.380602 2.569741
v -0.073905 14.067299 2.031165
v 0.016895 13.636778 1.832302
v 0.232576 14.214834 2.205234
v 0.260027 13.190885 1.819005
v 0.240413 13.878989 1.945294
v 0.518971 13.354588 1.931160
v 0.025327 14.323917 2.303519
v 0.625100 13.650689 2.105128
v 0.838792 13.267181 2.310027
v 0.540137 13.974126 2.215907
v 0.399113 14.225103 2.369958
v 0.801832 13.676335 2.421079
v 0.202492 14.373212 2.607943
v 0.908535 13.301716 2.743255
v 0.457309 14.244297 2.601885
v 0.690030 13.994627 2.640640
v 0.791092 13.740911 2.823505
v 0.811293 13.339407 3.074431
v 0.575718 13.965566 3.031353
v 0.348780 14.280319 2.822592
v 0.591711 13.761827 3.198919
v 0.601201 13.364252 3.343906
v 0.267371 13.809667 3.369548
v 0.213332 14.196518 3.086291
v 0.203528 13.419237 3.539779
v 0.033782 13.968580 3.326862
v 0.036727 14.337740 2.893599
v -0.219119 13.519576 3.496321
v -0.285315 14.020099 3.200647
v -0.210398 14.234546 3.002531
v -0.487881 13.529297 3.361073
v -0.506636 13.978806 3.048250
v -0.147045 14.366393 2.514291
v -0.327669 14.286207 2.765794
v -0.720453 13.459270 3.145665
v -0.632869 13.965428 2.804135
v -0.849693 13.451118 2.761388
v -0.739470 13.743545 2.446531
v -0.306901 14.289244 2.458953
v -0.835339 13.272404 2.423197
v -0.512271 14.122658 2.446238
v -0.603488 13.667278 2.137782
v -0.672065 13.255056 2.116197
v -0.385215 14.062071 2.178830
v -0.413249 13.195070 1.898340
v -0.319819 13.633673 1.902912
v -0.086554 13.211490 1.793236
v 0.007267 14.398999 2.645640
vn 0.0562 -0.7957 -0.6031
vn 0.0118 -0.9589 -0.2834
vn 0.0848 0.0902 -0.9923
vn 0.1053 -0.0902 -0.9903
vn 0.0385 0.8984 -0.4375
vn 0.1876 0.6930 -0.6961
vn 0.2522 -0.6354 -0.7298
vn 0.2022 0.6440 -0.7378
vn 0.2393 -0.3854 -0.8912
vn 0.5219 0.0866 -0.8486
vn 0.4515 -0.0744 -0.8892
vn 0.4519 0.4625 -0.7628
vn 0.5923 -0.3326 -0.7339
vn 0.3554 0.8181 -0.4522
vn 0.7844 0.0495 -0.6183
vn 0.5323 -0.6637 -0.5255
vn 0.7484 0.3021 -0.5904
vn 0.6958 0.6286 -0.3474
vn 0.9062 0.0429 -0.4207
vn 0.8197 -0.3345 -0.4649
vn 0.7985 -0.4705 -0.3754
vn 0.9368 -0.1450 -0.3184
vn 0.4650 0.8797 -0.1001
vn 0.8224 -0.5141 -0.2437
vn 0.6075 -0.7806 -0.1468
vn 0.3806 -0.9102 -0.1635
vn 0.9222 0.2658 -0.2808
vn 0.0612 0.9980 -0.0182
vn 0.2288 -0.9735 -0.0005
vn 0.9968 0.0008 -0.0805
vn 0.0764 -0.9970 -0.0144
vn 0.9824 -0.1487 -0.1134
vn 0.2755 0.9604 -0.0415
vn 0.8641 -0.4980 0.0736
vn 0.7563 0.6352 0.1564
vn 0.4340 -0.8875 0.1549
vn 0.8994 0.3096 0.3086
vn 0.9495 0.0871 0.3014
vn 0.9636 -0.1450 0.2245
vn 0.8395 -0.3150 0.4427
vn 0.4754 0.8493 0.2295
vn 0.6696 -0.6727 0.3147
vn 0.6736 0.6310 0.3848
vn 0.5132 -0.8031 0.3027
vn 0.8569 0.0251 0.5148
vn 0.7458 0.2658 0.6108
vn 0.5054 0.6438 0.5746
vn 0.3394 -0.7994 0.4958
vn 0.6469 0.0210 0.7623
vn 0.2344 0.9285 0.2880
vn 0.6330 -0.2959 0.7154
vn 0.4253 0.2810 0.8603
vn 0.4935 -0.2917 0.8194
vn 0.3231 -0.4762 0.8178
vn 0.4132 -0.6360 0.6518
vn 0.3635 0.5779 0.7307
vn 0.1042 -0.9301 0.3522
vn 0.1131 -0.1123 0.9872
vn 0.0808 -0.4908 0.8675
vn 0.0718 0.7544 0.6525
vn 0.0776 0.2473 0.9658
vn -0.0957 -0.8044 0.5863
vn -0.1182 -0.1305 0.9844
vn -0.0261 0.9535 0.3002
vn -0.2268 -0.3612 0.9045
vn -0.1884 0.7701 0.6095
vn -0.2606 0.5125 0.8182
vn -0.3147 0.0904 0.9449
vn -0.4230 0.1368 0.8957
vn -0.0683 -0.9795 0.1895
vn -0.0386 -0.9969 0.0683
vn -0.4570 -0.1830 0.8705
vn -0.4004 -0.3097 0.8624
vn -0.4891 -0.4813 0.7274
vn -0.6359 -0.0998 0.7653
vn -0.3900 0.7678 0.5084
vn -0.5420 0.4873 0.6846
vn -0.2795 -0.9271 0.2498
vn -0.7737 0.2113 0.5973
vn -0.6878 -0.3316 0.6458
vn -0.5465 -0.6919 0.4718
vn -0.2492 0.9503 0.1868
vn -0.8092 -0.3543 0.4687
vn -0.4857 -0.8192 0.3050
vn -0.8742 -0.1280 0.4684
vn -0.9250 0.2767 0.2604
vn -0.7453 0.6351 0.2029
vn -0.9342 -0.3233 0.1507
vn -0.4833 0.8746 0.0397
vn -0.8686 -0.4940 0.0384
vn -0.7626 -0.6293 0.1499
vn -0.5989 -0.8008 -0.0030
vn -0.9573 0.2796 0.0738
vn -0.9844 -0.1500 0.0924
vn -0.9944 -0.0055 -0.1056
vn -0.9937 -0.0872 -0.0711
vn -0.8569 -0.4896 -0.1614
vn -0.8133 0.5766 -0.0774
vn -0.9228 0.2658 -0.2789
vn -0.2675 -0.9605 -0.0767
vn -0.8919 -0.3492 -0.2872
vn -0.8740 0.0010 -0.4860
vn -0.7231 0.5926 -0.3548
vn -0.5389 0.7451 -0.3929
vn -0.5873 -0.6691 -0.4555
vn -0.5916 0.6205 -0.5147
vn -0.7334 0.3183 -0.6007
vn -0.7389 -0.2941 -0.6062
vn -0.4173 0.8354 -0.3577
vn -0.6209 0.0006 -0.7839
vn -0.5336 -0.5413 -0.6498
vn -0.3065 -0.8871 -0.3452
vn -0.4008 0.5802 -0.7090
vn -0.2304 -0.7823 -0.5788
vn -0.0901 0.9908 -0.1008
vn -0.4708 -0.1911 -0.8613
vn -0.1761 -0.5011 -0.8473
vn -0.2618 0.7445 -0.6142
vn -0.2732 0.0710 -0.9593
vn -0.1024 0.4519 -0.8862
vn -0.1099 -0.1912 -0.9754
vn -0.0409 0.8839 -0.4659
vn -0.0876 0.8032 -0.5892
vn 0.1748 -0.1160 -0.9777
vn 0.0786 -0.8791 -0.4701
vn 0.0440 -0.9700 -0.2390
vn 0.3051 -0.2575 -0.9168
vn 0.3033 -0.5989 -0.7412
vn 0.6191 -0.2512 -0.7441
vn 0.6613 -0.4522 -0.5986
vn 0.6560 -0.6942 -0.2963
vn 0.9007 -0.1846 -0.3932
vn 0.8757 -0.4634 -0.1356
vn 0.3710 -0.9253 -0.0784
vn 0.9697 -0.2442 -0.0057
vn 0.9438 -0.2445 0.2223
vn 0.7953 -0.5769 0.1864
vn 0.8339 -0.3946 0.3858
vn 0.3743 -0.3359 0.8643
vn 0.0508 -0.9754 0.2145
vn 0.0173 -0.4656 0.8848
vn 0.0049 -0.7691 0.6391
vn 0.1417 -0.3491 0.9263
vn -0.1937 -0.4714 0.8604
vn -0.2952 -0.6498 0.7005
vn -0.3997 -0.8756 0.2711
vn -0.7095 -0.3526 0.6102
vn -0.6728 -0.5444 0.5010
vn -0.6058 -0.7506 0.2637
vn -0.9305 -0.2478 0.2695
vn -0.3224 -0.9403 -0.1094
vn -0.0901 -0.9887 -0.1195
vn -0.8520 -0.5209 0.0525
vn -0.9710 -0.2312 -0.0610
vn -0.8796 -0.3327 -0.3400
vn -0.6972 -0.6825 -0.2195
vn -0.8618 -0.1847 -0.4724
vn -0.7365 -0.4843 -0.4722
vn -0.5575 -0.6032 -0.5704
vn 0.9970 0.0196 -0.0748
vn 0.4526 -0.1086 0.8851
vn -0.6485 -0.1725 -0.7414
vn -0.8933 -0.0631 0.4451
vn -0.9887 0.0070 -0.1494
vn 0.8896 0.0680 -0.4516
vn -0.4991 -0.1687 -0.8500
vn -0.4238 0.1076 -0.8993
vn 0.7367 -0.0827 0.6712
vn -0.7343 0.0816 -0.6739
vn 0.6519 0.1041 -0.7511
vn -0.6787 -0.1035 0.7271
vn -0.9543 -0.0523 0.2943
vn 0.9504 -0.0305 0.3094
vn -0.3320 -0.1218 0.9354
vn -0.2274 -0.2365 -0.9446
vn -0.9501 0.0292 -0.3106
vn 0.3226 0.1278 -0.9379
vn -0.0434 -0.4169 -0.9079
vn -0.1134 -0.5775 -0.8085
vn 0.0550 -0.1288 0.9901
vn -0.9987 -0.0131 0.0496
vn 0.0775 0.6109 -0.7879
vn 0.2722 0.2893 -0.9177
vn 0.2327 0.6067 -0.7601
vn 0.2442 0.8711 -0.4260
vn 0.4546 0.4484 -0.7696
vn 0.2264 0.9139 -0.3370
vn 0.5319 0.7097 -0.4620
vn 0.7238 0.3801 -0.5759
vn 0.8769 0.2380 -0.4176
vn 0.7011 0.6851 -0.1975
vn 0.1107 0.9834 0.1437
vn 0.8661 0.4984 -0.0390
vn 0.9672 0.2465 -0.0610
vn 0.5833 0.7727 0.2504
vn 0.8399 0.4452 0.3105
vn 0.9276 0.1859 0.3242
vn 0.5020 0.7100 0.4938
vn 0.6542 0.4398 0.6154
vn 0.7398 0.1396 0.6582
vn 0.1066 0.9815 0.1590
vn 0.3761 0.3719 0.8487
vn 0.4436 0.1168 0.8886
vn 0.2041 0.6727 0.7112
vn 0.0587 0.3689 0.9276
vn 0.0907 0.0559 0.9943
vn 0.0270 0.7940 0.6073
vn -0.3420 0.5256 0.7790
vn -0.5011 0.3768 0.7791
vn -0.6664 0.1172 0.7363
vn -0.3269 0.8598 0.3923
vn -0.8752 0.1311 0.4656
vn -0.7758 0.5889 0.2265
vn -0.8393 0.4044 0.3635
vn -0.8882 0.4567 -0.0512
vn -0.9093 0.3473 -0.2292
vn -0.9122 0.2648 -0.3126
vn -0.3842 0.9186 0.0925
vn -0.7677 0.6364 -0.0745
vn -0.7322 0.2418 -0.6367
vn -0.5931 0.5459 -0.5919
vn -0.3019 0.9285 -0.2162
vn -0.2789 0.8317 -0.4801
vn -0.2628 0.5660 -0.7814
vn -0.2695 0.2936 -0.9172
vn 0.0033 0.8196 -0.5729
vn 0.2776 -0.4713 -0.8371
vn 0.2534 -0.7503 -0.6106
vn 0.5955 -0.4718 -0.6503
vn 0.7614 -0.5026 -0.4094
vn 0.5140 -0.8175 -0.2598
vn 0.9267 -0.3645 -0.0919
vn 0.3615 -0.9311 -0.0487
vn 0.8308 -0.5386 0.1399
vn 0.4844 -0.8086 0.3339
vn 0.1784 -0.9822 0.0587
vn 0.6964 -0.5183 0.4963
vn 0.4597 -0.4838 0.7447
vn 0.1436 -0.9190 0.3671
vn 0.1451 -0.4483 0.8821
vn 0.1411 -0.7321 0.6664
vn -0.1287 -0.9608 0.2455
vn -0.2870 -0.4952 0.8200
vn -0.2099 -0.7635 0.6108
vn -0.5015 -0.3361 0.7972
vn -0.7439 -0.4283 0.5130
vn -0.4987 -0.8250 0.2658
vn -0.8453 -0.5127 -0.1502
vn -0.6548 -0.5223 -0.5463
vn -0.4885 -0.7933 -0.3635
vn -0.1507 -0.9675 -0.2029
vn -0.0856 -0.9962 0.0163
vn -0.1922 -0.4978 -0.8457
vn -0.1437 -0.7412 -0.6558
vn -0.3003 -0.0018 -0.9538
vn -0.8176 -0.0041 -0.5758
vn 0.4583 -0.0051 0.8888
vn 0.3899 -0.0014 -0.9209
vn -0.9342 -0.0040 0.3568
vn 0.2081 0.0028 0.9781
vn 0.6940 -0.0051 -0.7200
vn -0.9856 -0.0065 -0.1688
vn 0.9231 -0.0058 0.3846
vn -0.4019 -0.0031 0.9157
vn 0.0859 -0.0051 0.9963
vn 0.9889 0.0023 0.1487
vn 0.0659 -0.0076 -0.9978
vn -0.6919 -0.0031 0.7220
vn 0.6660 0.0007 0.7460
vn -0.2685 0.0021 0.9633
vn 0.2776 -0.4715 -0.8370
vn 0.2410 -0.7519 -0.6136
vn 0.5855 -0.4987 -0.6391
vn 0.2435 -0.9675 -0.0688
vn 0.4890 -0.8065 -0.3323
vn 0.5283 -0.8217 0.2137
vn 0.8248 -0.5533 0.1165
vn 0.7790 -0.4146 0.4704
vn 0.5618 -0.6670 0.4895
vn 0.4724 -0.3536 0.8073
vn 0.2023 -0.7398 0.6417
vn 0.2008 -0.3466 0.9163
vn -0.1108 -0.3682 0.9231
vn -0.1354 -0.7773 0.6144
vn -0.5321 -0.5221 0.6666
vn -0.4526 -0.8174 0.3563
vn -0.1507 -0.9675 0.2029
vn -0.0856 -0.9962 -0.0163
vn -0.7589 -0.5151 0.3984
vn -0.9175 -0.3973 0.0188
vn -0.6913 -0.7186 -0.0761
vn -0.7029 -0.5251 -0.4799
vn -0.4322 -0.7972 -0.4216
vn -0.4597 -0.4838 -0.7447
vn -0.1281 -0.9618 -0.2421
vn -0.1451 -0.4485 -0.8819
vn 0.5442 -0.0050 -0.8390
vn -0.9424 -0.0062 0.3344
vn -0.4581 -0.0019 -0.8889
vn -0.8281 0.0019 0.5606
vn 0.9989 -0.0012 -0.0466
vn -0.1636 -0.0039 -0.9865
vn 0.3760 -0.0035 0.9266
vn -0.9325 -0.0060 -0.3612
vn 0.0705 -0.0041 0.9975
vn 0.2168 -0.0055 -0.9762
vn 0.7041 0.0022 0.7101
vn -0.2243 -0.0025 0.9745
vn 0.4624 -0.0153 -0.8865
vn 0.8231 -0.0037 -0.5679
vn -1.0000 0.0004 -0.0004
vn -0.8231 -0.0037 -0.5679
vn -0.4957 -0.0081 -0.8685
vn -0.0628 -0.0220 -0.9978
vn 0.6570 -0.0271 0.7534
vn 0.0616 -0.0196 0.9979
vn -0.4948 -0.0172 0.8689
vn -0.8964 -0.0097 0.4432
vn 0.9999 -0.0135 0.0072
vn -0.0000 -1.0000 -0.0000
vn 0.0746 -0.2121 -0.9744
vn 0.2168 -0.2884 -0.9326
vn 0.3856 -0.2125 -0.8979
vn 0.4589 -0.1883 -0.8683
vn 0.6722 -0.2181 -0.7075
vn 0.9095 -0.1650 -0.3815
vn -0.9937 -0.1122 0.0026
vn -0.9118 -0.1590 -0.3787
vn -0.6666 -0.1882 -0.7213
vn -0.5414 -0.2188 -0.8118
vn -0.3393 -0.1779 -0.9237
vn -0.3323 -0.2732 -0.9028
vn -0.0727 -0.1732 -0.9822
vn -0.0724 -0.2774 -0.9580
vn 0.9850 -0.1422 0.0978
vn 0.9010 -0.1588 0.4038
vn 0.6761 -0.1895 0.7120
vn 0.5363 -0.1805 0.8245
vn 0.3930 -0.2365 0.8886
vn 0.2206 -0.1902 0.9566
vn 0.0727 -0.2537 0.9645
vn -0.0745 -0.1927 0.9784
vn -0.0725 -0.2957 0.9525
vn -0.3848 -0.2043 0.9001
vn -0.4186 -0.3043 0.8557
vn -0.6735 -0.2027 0.7108
vn -0.9253 -0.1721 0.3379
vn 0.9937 -0.1125 0.0008
vn 0.1203 -0.0095 -0.9927
vn 0.1972 0.4769 -0.8566
vn 0.1821 0.5547 -0.8118
vn 0.0326 0.9868 -0.1586
vn 0.4168 0.0819 -0.9053
vn 0.5035 -0.2589 -0.8243
vn 0.4883 0.3518 -0.7986
vn 0.7008 0.0702 -0.7099
vn 0.3013 0.8715 -0.3870
vn 0.7077 0.5079 -0.4910
vn 0.5452 0.7144 -0.4386
vn 0.9503 -0.0941 -0.2969
vn 0.9147 0.1787 -0.3624
vn -1.0000 -0.0026 -0.0015
vn -0.9679 0.2515 -0.0004
vn -0.7643 0.6448 -0.0016
vn -0.6400 0.7684 -0.0014
vn -0.3660 0.9306 0.0038
vn -0.1071 0.9942 0.0009
vn -0.8783 0.2925 -0.3782
vn -0.8254 -0.0802 -0.5588
vn -0.4716 0.7919 -0.3879
vn -0.2544 0.9308 -0.2623
vn -0.6571 0.2200 -0.7210
vn -0.6236 0.4748 -0.6210
vn -0.3692 0.1268 -0.9207
vn -0.2774 0.4680 -0.8390
vn -0.2200 -0.1343 -0.9662
vn -0.0993 0.7912 -0.6034
vn -0.0702 0.1428 -0.9873
vn 0.8901 -0.1221 0.4390
vn 0.8927 0.2356 0.3840
vn 0.6282 0.5865 0.5113
vn 0.5027 0.7568 0.4177
vn 0.2544 0.9308 0.2623
vn 0.6701 -0.1718 0.7221
vn 0.6664 0.1535 0.7296
vn 0.3717 0.0723 0.9255
vn 0.1865 0.5207 0.8331
vn 0.1543 0.6892 0.7079
vn 0.0695 0.0596 0.9958
vn -0.2282 0.0551 0.9720
vn -0.2070 0.3677 0.9066
vn -0.0326 0.9868 0.1586
vn -0.2040 0.7877 0.5813
vn -0.1903 0.8825 0.4301
vn -0.5611 -0.1972 0.8039
vn -0.5015 0.1157 0.8574
vn -0.4794 0.3916 0.7854
vn -0.6727 -0.2268 0.7043
vn -0.5260 0.6720 0.5213
vn -0.8110 0.1897 0.5535
vn -0.7370 0.4427 0.5107
vn -0.9085 -0.1647 0.3841
vn 0.1158 0.9933 -0.0001
vn 0.3305 0.9438 -0.0039
vn 0.5948 0.8038 -0.0002
vn 0.8247 0.5655 -0.0039
vn 0.9375 0.3481 -0.0042
vn 0.9992 -0.0384 -0.0051
vn 0.2147 -0.1113 -0.9703
vn 0.5420 -0.1046 -0.8338
vn 0.8371 -0.0924 -0.5392
vn 0.9982 -0.0597 -0.0040
vn -0.9986 -0.0529 -0.0011
vn -0.9342 -0.0646 -0.3508
vn -0.7937 -0.0841 -0.6025
vn -0.5218 -0.0947 -0.8478
vn -0.2234 -0.1066 -0.9689
vn 0.9762 -0.0575 0.2092
vn 0.8174 -0.0823 0.5702
vn 0.5226 -0.0988 0.8468
vn 0.2234 -0.0925 0.9703
vn -0.2343 -0.1090 0.9660
vn -0.5420 -0.1046 0.8338
vn -0.8409 -0.0926 0.5332
vn -0.0079 -0.9608 -0.2772
vn 0.1108 -0.3383 -0.9345
vn 0.2675 -0.3763 -0.8870
vn 0.4585 -0.4861 -0.7440
vn 0.3625 -0.7453 -0.5596
vn 0.7774 -0.5979 -0.1955
vn 0.3644 -0.9311 -0.0155
vn 0.9658 -0.2513 -0.0636
vn 0.5433 -0.8383 0.0462
vn 0.9354 -0.2038 0.2889
vn 0.6053 -0.6607 0.4440
vn 0.7621 -0.5054 0.4046
vn 0.7950 -0.1629 0.5843
vn 0.6813 -0.2810 0.6759
vn 0.5452 -0.2838 0.7888
vn 0.3286 -0.4846 0.8106
vn 0.0784 -0.6484 0.7572
vn 0.0502 -0.8811 0.4702
vn 0.0479 -0.9660 0.2539
vn -0.0296 -0.2066 0.9780
vn -0.4657 -0.1308 0.8752
vn -0.3478 -0.4619 0.8159
vn -0.4090 -0.7424 0.5307
vn -0.5640 -0.2747 0.7787
vn -0.6861 -0.6233 0.3752
vn -0.7173 -0.4623 0.5213
vn -0.9013 -0.2051 0.3816
vn -0.9288 -0.3438 0.1387
vn -0.5538 -0.8314 0.0455
vn -0.3538 -0.9301 0.0984
vn -0.1215 -0.9867 0.1080
vn -0.8779 -0.2885 -0.3822
vn -0.7223 -0.3286 -0.6085
vn -0.8831 -0.0444 -0.4671
vn 0.4515 -0.1073 -0.8858
vn -0.4909 -0.7290 -0.4770
vn 0.9946 -0.0227 -0.1017
vn 0.4509 0.1019 0.8868
vn -0.9979 0.0023 -0.0653
vn 0.8656 -0.0704 -0.4958
vn -0.0730 0.1212 0.9899
vn 0.7604 0.0648 0.6462
vn 0.6325 -0.0981 -0.7683
vn -0.6914 0.0919 0.7166
vn -0.1567 -0.7610 -0.6295
vn -0.9471 0.0470 0.3175
vn 0.0915 -0.1166 -0.9890
vn 0.2275 0.1058 0.9680
vn -0.2997 -0.1066 -0.9481
vn 0.9599 0.0227 0.2793
vn -0.3126 -0.3238 -0.8930
vn -0.7559 0.0808 0.6497
vn 0.7527 -0.0788 -0.6536
vn -0.1265 -0.6207 -0.7738
vn -0.6395 -0.0826 -0.7643
vn 0.0782 0.0723 -0.9943
vn 0.2848 0.1767 -0.9422
vn 0.4558 0.5514 -0.6987
vn 0.5428 0.3962 -0.7405
vn 0.7713 0.0934 -0.6296
vn 0.2975 0.8859 -0.3560
vn 0.0883 0.9739 -0.2091
vn 0.7968 0.3723 -0.4759
vn 0.7460 0.5985 -0.2921
vn 0.4403 0.8789 -0.1832
vn 0.9767 0.1338 -0.1679
vn 0.9361 0.3504 -0.0312
vn 0.9450 0.2063 0.2540
vn 0.8175 0.4028 0.4117
vn 0.4515 0.8889 0.0770
vn 0.6969 0.6708 0.2538
vn 0.8084 0.5204 0.2752
vn 0.7774 0.2318 0.5847
vn 0.5202 0.6998 0.4896
vn 0.4472 0.5682 0.6907
vn 0.4541 0.3148 0.8335
vn 0.2300 0.9405 0.2503
vn -0.0526 0.7818 0.6212
vn -0.1623 0.6996 0.6959
vn -0.2236 0.9397 0.2587
vn -0.3938 0.4284 0.8133
vn -0.4995 0.6755 0.5424
vn -0.6852 0.3966 0.6109
vn -0.6701 0.6746 0.3096
vn -0.4289 0.9031 -0.0201
vn -0.8898 0.3509 0.2918
vn -0.6283 0.7772 -0.0348
vn -0.7194 0.6918 0.0615
vn -0.8561 0.5130 -0.0631
vn -0.9675 0.2043 -0.1490
vn -0.7607 0.4674 -0.4505
vn -0.8663 0.1687 -0.4702
vn -0.5541 0.7156 -0.4254
vn -0.5607 0.3862 -0.7325
vn -0.6185 0.1398 -0.7733
vn -0.2801 0.8706 -0.4045
vn -0.0229 0.9762 -0.2155
vn -0.2952 0.7467 -0.5960
vn -0.1934 0.3775 -0.9056
vn -0.3088 0.0757 -0.9481
vn 0.0642 0.4767 -0.8767
vn 0.1104 -0.8727 -0.4757
vn 0.0287 -0.9546 -0.2965
vn 0.1237 -0.0540 -0.9908
vn 0.0330 0.9303 -0.3654
vn 0.1899 -0.4615 -0.8666
vn 0.2542 0.2997 -0.9196
vn 0.4767 -0.2540 -0.8416
vn 0.3911 0.3041 -0.8687
vn 0.3695 0.7957 -0.4800
vn 0.4964 -0.6219 -0.6057
vn 0.5489 0.4922 -0.6756
vn 0.3553 -0.8478 -0.3937
vn 0.7488 0.1114 -0.6534
vn 0.7444 -0.2561 -0.6167
vn 0.5628 0.6577 -0.5007
vn 0.5159 -0.7200 -0.4642
vn 0.8176 0.3742 -0.4376
vn 0.2246 0.9727 -0.0582
vn 0.6127 0.7798 -0.1284
vn 0.7058 0.6552 -0.2694
vn 0.6128 -0.7740 -0.1597
vn 0.5222 -0.8459 -0.1086
vn 0.2955 -0.9477 -0.1209
vn 0.9393 0.1895 -0.2860
vn 0.8814 0.4705 -0.0413
vn 0.9221 0.3753 -0.0943
vn 0.9908 -0.1087 -0.0801
vn 0.4420 0.8940 -0.0738
vn 0.8916 -0.4454 -0.0817
vn 0.7635 -0.6304 0.1406
vn 0.8557 0.5112 0.0801
vn 0.9881 0.1446 0.0529
vn 0.2952 -0.9468 0.1282
vn 0.9520 0.1487 0.2675
vn 0.9067 -0.2911 0.3051
vn 0.8225 -0.2825 0.4936
vn 0.6814 -0.6206 0.3879
vn 0.6792 0.6701 0.2996
vn 0.8181 0.3742 0.4366
vn 0.7673 0.1280 0.6284
vn 0.3192 0.8837 0.3423
vn 0.3253 0.8109 0.4864
vn 0.5373 -0.5824 0.6100
vn 0.5028 0.6353 0.5861
vn 0.6184 0.3583 0.6994
vn 0.6203 -0.2830 0.7316
vn 0.4254 0.2812 0.8602
vn 0.4827 0.0970 0.8704
vn 0.3685 -0.0914 0.9251
vn 0.3309 -0.7383 0.5877
vn 0.1050 -0.9259 0.3629
vn 0.1034 -0.1048 0.9891
vn 0.1222 -0.4631 0.8779
vn 0.1343 0.6318 0.7634
vn 0.0632 -0.7320 0.6784
vn 0.0245 0.4599 0.8876
vn 0.1003 0.2959 0.9499
vn -0.0940 -0.8109 0.5776
vn 0.0151 0.9600 0.2796
vn -0.0813 0.8036 0.5896
vn -0.3014 0.0055 0.9535
vn -0.1510 -0.4688 0.8703
vn -0.2743 -0.6234 0.7322
vn -0.1733 -0.7656 0.6195
vn -0.2548 0.5058 0.8241
vn -0.4514 0.2463 0.8577
vn -0.4552 -0.5568 0.6948
vn -0.6288 -0.1145 0.7691
vn -0.4276 0.7899 0.4395
vn -0.5514 0.5071 0.6624
vn -0.5873 0.3236 0.7418
vn -0.5202 -0.7264 0.4491
vn -0.6772 0.5214 0.5192
vn -0.2700 -0.9335 0.2358
vn -0.7856 -0.0035 0.6187
vn -0.8356 -0.3183 0.4477
vn -0.3561 0.9143 0.1932
vn -0.7236 -0.5688 0.3911
vn -0.6751 0.6475 0.3536
vn -0.8277 0.3113 0.4669
vn -0.9113 0.2989 0.2834
vn -0.9570 -0.0109 0.2900
vn -0.6036 0.7970 0.0234
vn -0.7279 0.6813 0.0777
vn -0.6237 -0.7778 0.0777
vn -0.9226 0.3755 -0.0879
vn -0.3174 -0.9481 -0.0202
vn -0.8658 -0.4395 -0.2393
vn -0.6285 -0.7648 -0.1417
vn -0.9494 0.1280 -0.2869
vn -0.3665 0.9122 -0.1833
vn -0.8481 -0.2413 -0.4716
vn -0.8390 0.3583 -0.4096
vn -0.4481 0.8069 -0.3849
vn -0.6039 0.6669 -0.4365
vn -0.5494 -0.7661 -0.3336
vn -0.7222 0.2812 -0.6319
vn -0.7673 0.1280 -0.6284
vn -0.5968 -0.1034 -0.7957
vn -0.5290 -0.5986 -0.6016
vn -0.2292 -0.9409 -0.2495
vn -0.3647 0.4845 -0.7951
vn -0.4827 0.3226 -0.8142
vn -0.4654 0.1877 -0.8650
vn -0.1047 0.9855 -0.1334
vn -0.4169 -0.4509 -0.7892
vn -0.2761 -0.0727 -0.9584
vn -0.1505 0.4825 -0.8629
vn -0.1129 -0.7580 -0.6424
vn -0.1114 0.1806 -0.9772
vn -0.1050 -0.4476 -0.8881
vn -0.0625 0.7819 -0.6202
vn 0.2891 -0.2849 -0.9139
vn 0.5584 -0.2163 -0.8009
vn 0.3338 -0.5794 -0.7435
vn 0.2049 -0.8417 -0.4995
vn 0.6090 -0.5276 -0.5922
vn 0.8736 -0.1290 -0.4692
vn 0.8367 -0.3852 -0.3893
vn 0.5835 -0.7808 -0.2231
vn 0.5108 -0.8308 -0.2211
vn 0.9798 -0.1712 -0.1031
vn 0.8429 -0.5299 -0.0932
vn 0.7293 -0.6515 0.2089
vn 0.7565 -0.3882 0.5262
vn 0.3014 -0.9411 0.1532
vn 0.4390 -0.8010 0.4070
vn 0.4963 -0.5345 0.6841
vn 0.5179 -0.7426 0.4247
vn 0.5131 -0.5376 0.6691
vn 0.1699 -0.6072 0.7762
vn 0.0628 -0.8344 0.5475
vn -0.0333 -0.9476 0.3178
vn -0.2368 -0.7089 0.6644
vn -0.3381 -0.3395 0.8778
vn -0.3718 -0.8943 0.2490
vn -0.6596 -0.2931 0.6921
vn -0.6554 -0.5634 0.5030
vn -0.9345 -0.2395 0.2632
vn -0.8571 -0.4793 0.1888
vn -0.7683 -0.6401 -0.0042
vn -0.9273 -0.3337 -0.1695
vn -0.3875 -0.8989 -0.2047
vn -0.6762 -0.5666 -0.4709
vn -0.3292 -0.8334 -0.4440
vn -0.7441 -0.1185 -0.6574
vn 0.9956 0.0227 -0.0911
vn 0.5080 -0.1081 0.8546
vn -0.1211 0.1214 -0.9852
vn 0.8586 0.0708 -0.5077
vn -0.4031 -0.2322 -0.8852
vn 0.7679 -0.0748 0.6362
vn -0.3974 -0.5369 -0.7442
vn -0.7678 0.0731 -0.6365
vn 0.5855 0.1070 -0.8036
vn -0.6192 -0.1044 0.7783
vn -0.0941 -0.8303 -0.5493
vn -0.2800 0.1231 -0.9521
vn 0.9478 -0.0310 0.3172
vn -0.2662 -0.1282 0.9554
vn -0.9640 0.0251 -0.2648
vn 0.2960 0.1268 -0.9467
vn -0.0272 -0.0884 -0.9957
vn -0.0720 -0.5564 -0.8278
vn 0.0932 -0.1256 0.9877
vn 0.0554 0.5977 -0.7998
vn 0.0906 0.3790 -0.9209
vn 0.4256 0.7531 -0.5018
vn 0.6612 0.4285 -0.6157
vn 0.7079 0.4055 -0.5783
vn 0.8147 0.5613 -0.1460
vn 0.3284 0.9436 -0.0421
vn 0.5575 0.8289 0.0459
vn 0.9676 0.2443 -0.0641
vn 0.8399 0.5067 0.1944
vn 0.9293 0.1962 0.3129
vn 0.5070 0.7638 0.3995
vn 0.1934 0.9117 0.3626
vn 0.6563 0.4443 0.6098
vn 0.7485 0.1540 0.6450
vn 0.4391 0.1113 0.8915
vn 0.2816 0.4115 0.8668
vn 0.0521 0.7278 0.6838
vn -0.0584 0.1527 0.9865
vn -0.2094 0.5457 0.8114
vn -0.2433 0.1249 0.9619
vn -0.5039 0.2686 0.8210
vn -0.4579 0.7637 0.4551
vn -0.7726 0.4716 0.4251
vn -0.3022 0.9036 0.3036
vn -0.6292 0.7180 0.2976
vn -0.9053 0.2140 0.3670
vn -0.9700 0.1853 0.1575
vn -0.9190 0.3748 -0.1227
vn -0.6618 0.6980 -0.2737
vn -0.6582 0.5683 -0.4938
vn -0.6362 0.3457 -0.6898
vn -0.3501 0.8856 -0.3052
vn -0.1456 0.9729 -0.1798
vn -0.4045 0.6191 -0.6731
vn -0.2946 0.3178 -0.9012
vn 0.0554 -0.3633 -0.9300
vn 0.3535 -0.4258 -0.8329
vn 0.2158 -0.7750 -0.5939
vn 0.1354 -0.9317 -0.3372
vn 0.6105 -0.4631 -0.6425
vn 0.4361 -0.7654 -0.4733
vn 0.6784 -0.7112 -0.1843
vn 0.8952 -0.3447 -0.2825
vn 0.2663 -0.9622 -0.0577
vn 0.7365 -0.6759 0.0270
vn 0.8084 -0.4809 0.3395
vn 0.4740 -0.8143 0.3350
vn 0.4712 -0.8218 0.3202
vn 0.6312 -0.4527 0.6297
vn 0.3695 -0.7127 0.5963
vn 0.3826 -0.4216 0.8221
vn 0.1258 -0.9326 0.3384
vn 0.1231 -0.7518 0.6478
vn 0.1019 -0.4047 0.9087
vn -0.1943 -0.4131 0.8897
vn -0.1079 -0.9506 0.2912
vn -0.2741 -0.7198 0.6377
vn -0.6577 -0.3112 0.6860
vn -0.4368 -0.7603 0.4808
vn -0.7385 -0.4509 0.5013
vn -0.9031 -0.2651 0.3379
vn -0.6884 -0.7029 0.1789
vn -0.4120 -0.8987 0.1506
vn -0.9337 -0.3537 -0.0549
vn -0.7459 -0.6660 -0.0118
vn -0.7210 -0.4832 -0.4967
vn -0.4478 -0.8192 -0.3583
vn -0.3735 -0.9094 -0.1829
vn -0.5086 -0.4121 -0.7560
vn -0.2396 -0.4612 -0.8543
vn -0.1572 -0.7297 -0.6654
vn -0.0769 -0.9422 -0.3262
vn -0.0000 1.0000 -0.0000
vn 0.8108 0.0025 -0.5853
vn 0.3333 0.0027 -0.9428
vn -0.5478 -0.0054 -0.8366
vn -0.7679 0.0030 0.6406
vn -0.2208 0.0039 -0.9753
vn -0.9972 0.0038 0.0740
vn 0.9135 -0.0051 -0.4068
vn 0.9952 0.0003 0.0983
vn 0.6974 -0.0017 0.7167
vn -0.7299 0.0036 -0.6836
vn -0.2170 -0.0015 0.9762
vn 0.1937 -0.3885 -0.9009
vn 0.2183 -0.7671 -0.6032
vn 0.1299 -0.9401 -0.3151
vn 0.4885 -0.4224 -0.7635
vn 0.4387 -0.7622 -0.4761
vn 0.8030 -0.3612 -0.4741
vn 0.7388 -0.4562 -0.4961
vn 0.6862 -0.7067 -0.1722
vn 0.2640 -0.9633 -0.0480
vn 0.9565 -0.2661 -0.1196
vn 0.7139 -0.6998 -0.0239
vn 0.2668 -0.9631 -0.0365
vn 0.5147 -0.8009 0.3060
vn 0.7719 -0.4681 0.4302
vn 0.6641 -0.2644 0.6994
vn 0.4597 -0.6275 0.6285
vn 0.3654 -0.2842 0.8864
vn 0.2208 -0.8627 0.4549
vn 0.1592 -0.9278 0.3375
vn 0.1644 -0.7180 0.6763
vn 0.0718 -0.2838 0.9562
vn -0.1490 -0.4300 0.8904
vn -0.0683 -0.7110 0.6998
vn -0.0769 -0.9422 0.3262
vn -0.4358 -0.4181 0.7970
vn -0.6605 -0.4755 0.5811
vn -0.4179 -0.7514 0.5107
vn -0.3681 -0.9115 0.1835
vn -0.9168 -0.3286 0.2269
vn -0.6938 -0.6870 0.2161
vn -0.7188 -0.6951 -0.0072
vn -0.4316 -0.9003 -0.0556
vn -0.9178 -0.2801 -0.2814
vn -0.6613 -0.6573 -0.3614
vn -0.3726 -0.9023 -0.2169
vn -0.6312 -0.4527 -0.6297
vn -0.3514 -0.7454 -0.5665
vn -0.4055 -0.4402 -0.8011
vn -0.1222 -0.7586 -0.6400
vn -0.0764 -0.9431 -0.3237
vn -0.1318 -0.4329 -0.8917
vn -0.4227 0.0005 -0.9063
vn -0.8136 0.0007 -0.5815
vn -0.4739 -0.0040 0.8806
vn 0.8009 -0.0051 -0.5988
vn -0.0651 0.0013 -0.9979
vn 0.3359 0.0008 -0.9419
vn -0.7572 -0.0032 0.6532
vn 0.2150 0.0045 0.9766
vn 0.6925 0.0008 -0.7214
vn -0.9977 0.0038 -0.0674
vn 0.9942 0.0031 -0.1078
vn 0.9308 -0.0073 0.3653
vn -0.3393 0.0041 0.9407
vn 0.6919 0.0036 0.7220
vn -0.6975 -0.0057 -0.7166
vn 0.2096 0.0215 -0.9775
vn 0.5451 0.0032 -0.8384
vn 0.8411 0.0030 -0.5409
vn -1.0000 0.0034 -0.0021
vn -0.8445 0.0043 -0.5355
vn -0.5446 0.0032 -0.8387
vn -0.1945 0.0105 -0.9809
vn 0.8310 0.0163 0.5561
vn 0.5230 0.0113 0.8522
vn 0.1145 -0.0018 0.9934
vn -0.2357 0.0164 0.9717
vn -0.5451 -0.0029 0.8384
vn -0.8413 0.0104 0.5405
vn 1.0000 0.0017 -0.0016
vn 0.2211 -0.1716 -0.9600
vn 0.1913 -0.2764 -0.9418
vn 0.5120 -0.2453 -0.8232
vn 0.7473 -0.1948 -0.6353
vn 0.9199 -0.1687 -0.3540
vn -0.9926 -0.1217 -0.0004
vn -0.9231 -0.1609 -0.3492
vn -0.7803 -0.2019 -0.5919
vn -0.4156 -0.2994 -0.8589
vn -0.2219 -0.2111 -0.9520
vn -0.0726 -0.2776 -0.9580
vn 0.8021 -0.2041 0.5613
vn 0.4233 -0.2511 0.8705
vn 0.2224 -0.1911 0.9561
vn 0.2165 -0.2945 0.9308
vn -0.0728 -0.1918 0.9787
vn -0.2183 -0.2511 0.9430
vn -0.3463 -0.1887 0.9189
vn -0.6688 -0.2011 0.7158
vn -0.9084 -0.1663 0.3837
vn 0.9934 -0.1150 0.0001
vn 0.1044 -0.1081 -0.9886
vn 0.2180 0.0963 -0.9712
vn 0.1904 0.4864 -0.8527
vn 0.0662 0.9439 -0.3235
vn 0.5147 0.1856 -0.8370
vn 0.6803 -0.1260 -0.7220
vn 0.3501 0.8183 -0.4560
vn 0.7995 0.2362 -0.5522
vn 0.6405 0.5652 -0.5199
vn -0.9997 0.0224 0.0005
vn -0.9511 0.3088 0.0042
vn -0.8048 0.5935 0.0038
vn -0.5511 0.8344 0.0071
vn -0.3598 0.9330 0.0043
vn -0.1158 0.9933 0.0001
vn -0.9095 -0.1780 -0.3756
vn -0.8118 0.4667 -0.3509
vn -0.8235 0.1154 -0.5554
vn -0.3063 0.9188 -0.2492
vn -0.0910 0.9919 -0.0881
vn -0.6727 -0.2268 -0.7043
vn -0.5662 0.5320 -0.6296
vn -0.4840 0.7270 -0.4870
vn -0.5762 -0.2013 -0.7921
vn -0.5357 0.0718 -0.8413
vn -0.3367 0.4108 -0.8473
vn -0.2385 0.6737 -0.6994
vn -0.2440 0.0108 -0.9697
vn -0.0885 0.8484 -0.5219
vn -0.0740 -0.2417 -0.9675
vn -0.0702 0.3144 -0.9467
vn 0.9146 0.2014 0.3506
vn 0.7961 0.4975 0.3444
vn 0.5118 0.7512 0.4168
vn 0.3025 0.9197 0.2502
vn 0.0910 0.9919 0.0881
vn 0.6768 -0.1812 0.7135
vn 0.6670 0.1528 0.7292
vn 0.6049 0.4314 0.6693
vn 0.4101 -0.2099 0.8876
vn 0.3513 0.0933 0.9316
vn 0.3429 0.3739 0.8618
vn 0.1624 0.6785 0.7164
vn 0.1088 0.8628 0.4936
vn 0.0796 0.0476 0.9957
vn 0.0698 0.3599 0.9304
vn -0.2181 0.0664 0.9737
vn -0.0735 0.9304 0.3590
vn -0.2757 0.4804 0.8326
vn -0.2962 0.6965 0.6536
vn -0.5225 0.0950 0.8473
vn -0.5935 0.5527 0.5851
vn -0.8274 -0.0778 0.5562
vn -0.8070 0.1958 0.5571
vn 0.1071 0.9942 -0.0009
vn 0.3679 0.9299 -0.0005
vn 0.6022 0.7983 -0.0010
vn 0.7922 0.6102 0.0006
vn 0.9659 0.2588 0.0035
vn 0.0733 -0.0906 -0.9932
vn 0.3710 -0.0912 -0.9241
vn 0.6781 -0.0830 -0.7302
vn 0.9198 -0.0659 -0.3869
vn 0.9985 -0.0549 -0.0009
vn -0.9985 -0.0551 0.0005
vn -0.8375 -0.0894 -0.5391
vn -0.5386 -0.0979 -0.8368
vn -0.2018 -0.1009 -0.9742
vn 0.8360 -0.0862 0.5420
vn 0.5178 -0.0977 0.8499
vn 0.1135 -0.1124 0.9872
vn -0.0734 -0.0927 0.9930
vn -0.3710 -0.0912 0.9241
vn -0.6781 -0.0830 0.7302
vn -0.9101 -0.0701 0.4084
vn 0.0799 -0.3502 -0.9333
vn 0.3349 -0.7124 -0.6167
vn 0.1929 -0.9413 -0.2770
vn 0.6201 -0.4099 -0.6689
vn 0.8783 -0.2680 -0.3959
vn 0.7824 -0.4026 -0.4751
vn 0.7210 -0.6629 -0.2016
vn 0.9679 -0.2331 -0.0945
vn 0.8631 -0.5034 -0.0396
vn 0.9339 -0.1908 0.3025
vn 0.8332 -0.4651 0.2992
vn 0.5696 -0.7248 0.3875
vn 0.4443 -0.1226 0.8874
vn 0.3260 -0.4966 0.8044
vn 0.2340 -0.0686 0.9698
vn 0.0232 -0.8638 0.5032
vn -0.0297 -0.2090 0.9775
vn -0.2434 -0.0615 0.9680
vn -0.3206 -0.5127 0.7964
vn -0.5413 -0.3576 0.7610
vn -0.3252 -0.8091 0.4894
vn -0.7914 -0.1293 0.5975
vn -0.6566 -0.6568 0.3709
vn -0.9022 -0.2654 0.3400
vn -0.8841 -0.4616 0.0728
vn -0.9737 -0.2023 -0.1044
vn -0.4253 -0.9044 0.0337
vn -0.8209 -0.5440 -0.1736
vn -0.8627 -0.2754 -0.4242
vn -0.7136 -0.6553 -0.2478
vn -0.8911 -0.0437 -0.4518
vn -0.5539 -0.5665 -0.6102
vn 0.4434 -0.1081 -0.8898
vn -0.5577 -0.6844 -0.4697
vn 0.9873 -0.0255 -0.1569
vn -0.3100 -0.9169 -0.2515
vn 0.5562 0.0877 0.8264
vn -0.4434 0.1123 0.8892
vn -0.6346 -0.2563 -0.7291
vn -0.9989 0.0058 -0.0455
vn 0.7899 0.0632 0.6100
vn -0.6049 0.0980 0.7903
vn -0.3132 -0.5182 -0.7959
vn -0.9590 0.0456 0.2797
vn 0.0669 -0.1150 -0.9911
vn -0.3123 -0.1068 -0.9439
vn 0.9636 0.0203 0.2667
vn -0.3076 -0.3285 -0.8930
vn -0.2395 0.1122 0.9644
vn -0.6527 -0.0801 -0.7534
vn -0.0751 -0.7026 -0.7076
vn -0.0794 -0.9461 -0.3141
vn 0.0487 0.7180 -0.6943
vn 0.2893 0.1857 -0.9390
vn 0.1507 0.6073 -0.7801
vn 0.5098 0.2926 -0.8090
vn 0.5203 0.6396 -0.5658
vn 0.2947 0.9013 -0.3175
vn 0.8460 0.2095 -0.4902
vn 0.7288 0.6427 -0.2361
vn 0.8098 0.4982 -0.3098
vn 0.9652 0.2610 -0.0161
vn 0.8460 0.3125 0.4319
vn 0.6939 0.6824 0.2298
vn 0.4714 0.5820 0.6626
vn 0.2543 0.8763 0.4091
vn 0.4789 0.2839 0.8307
vn 0.1690 0.9613 0.2174
vn 0.2649 0.5935 0.7600
vn 0.0941 0.3849 0.9181
vn -0.0109 0.3584 0.9335
vn -0.0636 0.7477 0.6610
vn -0.2595 0.4655 0.8461
vn -0.2417 0.9162 0.3197
vn -0.5607 0.4571 0.6904
vn -0.2856 0.9533 0.0988
vn -0.5513 0.7154 0.4292
vn -0.8184 0.4119 0.4006
vn -0.9219 0.3857 0.0355
vn -0.7599 0.4551 -0.4642
vn -0.8775 0.2001 -0.4359
vn -0.6210 0.1437 -0.7706
vn -0.3320 0.7759 -0.5364
vn -0.3875 0.4566 -0.8008
vn 0.0037 0.4200 -0.9075
vn -0.2045 0.1387 -0.9690
vt 0.128277 0.904458
vt 0.150082 0.902710
vt 0.134944 0.924237
vt 0.158043 0.929570
vt 0.150811 0.939014
vt 0.849106 0.037382
vt 0.860635 0.050192
vt 0.844517 0.056275
vt 0.860334 0.067879
vt 0.849116 0.075467
vt 0.180315 0.706379
vt 0.162242 0.702290
vt 0.157056 0.690544
vt 0.172051 0.681246
vt 0.163897 0.669251
vt 0.189294 0.676000
vt 0.856542 0.094768
vt 0.872832 0.085177
vt 0.879269 0.100461
vt 0.863682 0.012983
vt 0.877252 0.016577
vt 0.863082 0.026572
vt 0.883025 0.037697
vt 0.883935 0.061416
vt 0.894191 0.084981
vt 0.146525 0.676644
vt 0.906802 0.043665
vt 0.905132 0.064068
vt 0.903416 0.096698
vt 0.896814 0.025366
vt 0.900334 0.012860
vt 0.914225 0.027417
vt 0.919084 0.056100
vt 0.917415 0.076100
vt 0.126855 0.694452
vt 0.916831 0.096216
vt 0.167692 0.908311
vt 0.187692 0.909272
vt 0.189605 0.922831
vt 0.175531 0.925983
vt 0.156975 0.918288
vt 0.926990 0.044490
vt 0.159140 0.719056
vt 0.148770 0.712368
vt 0.166891 0.943332
vt 0.932284 0.056816
vt 0.930031 0.074828
vt 0.137236 0.705745
vt 0.565618 0.787561
vt 0.562298 0.765510
vt 0.577256 0.778150
vt 0.124898 0.680366
vt 0.113551 0.688010
vt 0.183786 0.942753
vt 0.564296 0.727792
vt 0.577481 0.716860
vt 0.583122 0.734748
vt 0.561916 0.747385
vt 0.577117 0.752941
vt 0.595052 0.776236
vt 0.120212 0.712181
vt 0.598766 0.791868
vt 0.578345 0.792096
vt 0.595146 0.704138
vt 0.595265 0.718202
vt 0.200566 0.943905
vt 0.595373 0.752685
vt 0.606768 0.734747
vt 0.612079 0.704358
vt 0.611253 0.718263
vt 0.184798 0.960301
vt 0.612820 0.752941
vt 0.135446 0.728654
vt 0.611039 0.776485
vt 0.625889 0.718863
vt 0.629870 0.741517
vt 0.627668 0.765467
vt 0.622328 0.787375
vt 0.165929 0.961542
vt 0.641419 0.767653
vt 0.636092 0.783229
vt 0.132739 0.752040
vt 0.120385 0.731844
vt 0.640558 0.724785
vt 0.643696 0.744333
vt 0.186223 0.978735
vt 0.159557 0.973906
vt 0.560324 0.857298
vt 0.571962 0.872999
vt 0.560608 0.880721
vt 0.154308 0.738961
vt 0.579501 0.890280
vt 0.149857 0.755136
vt 0.571627 0.822825
vt 0.583191 0.837173
vt 0.567341 0.843023
vt 0.584082 0.860566
vt 0.597505 0.853338
vt 0.152318 0.950796
vt 0.592169 0.879934
vt 0.603400 0.893085
vt 0.606862 0.872760
vt 0.166928 0.755438
vt 0.586502 0.822436
vt 0.605464 0.837146
vt 0.142061 0.963536
vt 0.619178 0.854902
vt 0.615253 0.905940
vt 0.590290 0.905647
vt 0.172569 0.721766
vt 0.625709 0.890663
vt 0.137836 0.979520
vt 0.629075 0.873378
vt 0.634356 0.833075
vt 0.638284 0.857715
vt 0.183510 0.757969
vt 0.176224 0.745149
vt 0.196162 0.748113
vt 0.641354 0.881386
vt 0.190667 0.724386
vt 0.635984 0.896949
vt 0.124502 0.980714
vt 0.119873 0.968596
vt 0.129907 0.949527
vt 0.643052 0.849985
vt 0.113551 0.826928
vt 0.119132 0.814678
vt 0.129512 0.832369
vt 0.118011 0.846206
vt 0.125573 0.867988
vt 0.138765 0.866135
vt 0.198318 0.729925
vt 0.204732 0.736747
vt 0.132092 0.797760
vt 0.140481 0.814126
vt 0.146803 0.855594
vt 0.152732 0.832098
vt 0.138178 0.783496
vt 0.147358 0.797416
vt 0.201020 0.700804
vt 0.160827 0.871113
vt 0.164967 0.783422
vt 0.163274 0.797570
vt 0.164123 0.814125
vt 0.165088 0.846196
vt 0.190196 0.699120
vt 0.177125 0.826401
vt 0.175145 0.866332
vt 0.118929 0.933213
vt 0.177515 0.792601
vt 0.120495 0.917090
vt 0.185255 0.844960
vt 0.189775 0.862115
vt 0.198473 0.686109
vt 0.185373 0.808769
vt 0.197332 0.827217
vt 0.190000 0.793160
vt 0.199034 0.808626
vt 0.198868 0.846717
vt 0.889700 0.517714
vt 0.887824 0.497532
vt 0.898885 0.502020
vt 0.467683 0.916945
vt 0.478219 0.924100
vt 0.469712 0.929065
vt 0.479871 0.930785
vt 0.905956 0.524646
vt 0.897665 0.537047
vt 0.896248 0.529375
vt 0.908905 0.540352
vt 0.912826 0.501878
vt 0.918218 0.515688
vt 0.921591 0.529179
vt 0.926891 0.534675
vt 0.914140 0.536555
vt 0.929631 0.497368
vt 0.929668 0.516435
vt 0.933925 0.521471
vt 0.492019 0.926714
vt 0.644666 0.283466
vt 0.649747 0.303644
vt 0.643121 0.296255
vt 0.658014 0.287959
vt 0.663410 0.311216
vt 0.653721 0.318402
vt 0.672646 0.292067
vt 0.686425 0.283680
vt 0.683839 0.301950
vt 0.488278 0.937820
vt 0.476011 0.937058
vt 0.694251 0.288686
vt 0.687926 0.311694
vt 0.496917 0.943843
vt 0.490728 0.955057
vt 0.481473 0.948077
vt 0.731076 0.862391
vt 0.727115 0.839855
vt 0.742459 0.853158
vt 0.748253 0.868491
vt 0.471176 0.951850
vt 0.465531 0.943890
vt 0.758600 0.834853
vt 0.760292 0.852725
vt 0.759780 0.865278
vt 0.463833 0.955414
vt 0.770535 0.851421
vt 0.725771 0.517100
vt 0.736519 0.527802
vt 0.730133 0.531587
vt 0.726332 0.499076
vt 0.734517 0.505277
vt 0.747006 0.516523
vt 0.739442 0.538129
vt 0.746883 0.537578
vt 0.742833 0.498269
vt 0.755752 0.523706
vt 0.758619 0.537581
vt 0.938343 0.268560
vt 0.938356 0.498578
vt 0.675629 0.050873
vt 0.688879 0.050725
vt 0.757280 0.497669
vt 0.755091 0.602257
vt 0.768769 0.601842
vt 0.727005 0.263269
vt 0.916225 0.266674
vt 0.929872 0.267608
vt 0.770695 0.503677
vt 0.758398 0.267080
vt 0.740161 0.267530
vt 0.904440 0.261645
vt 0.740161 0.834627
vt 0.774531 0.834550
vt 0.647406 0.050350
vt 0.660892 0.050244
vt 0.726753 0.601887
vt 0.740306 0.597057
vt 0.765742 0.526878
vt 0.776098 0.516166
vt 0.887307 0.267931
vt 0.771969 0.530904
vt 0.767690 0.538244
vt 0.697668 0.050599
vt 0.776214 0.596205
vt 0.892135 0.239126
vt 0.894767 0.250644
vt 0.887765 0.251392
vt 0.898932 0.238428
vt 0.905852 0.241884
vt 0.823957 0.919599
vt 0.816593 0.932913
vt 0.812426 0.917905
vt 0.827680 0.927406
vt 0.806793 0.937441
vt 0.805452 0.926981
vt 0.917537 0.241596
vt 0.925846 0.251659
vt 0.816579 0.945561
vt 0.835543 0.926198
vt 0.828277 0.938573
vt 0.643256 0.031199
vt 0.650055 0.019390
vt 0.650085 0.032259
vt 0.827768 0.949707
vt 0.662624 0.016625
vt 0.661747 0.032233
vt 0.836766 0.943235
vt 0.837837 0.949471
vt 0.675614 0.016084
vt 0.674866 0.032553
vt 0.838827 0.933472
vt 0.688740 0.033870
vt 0.846909 0.944825
vt 0.686088 0.016196
vt 0.693535 0.028228
vt 0.848452 0.935155
vt 0.741774 0.563797
vt 0.751929 0.567135
vt 0.734446 0.577912
vt 0.755121 0.583452
vt 0.844747 0.921296
vt 0.840831 0.913711
vt 0.853188 0.924177
vt 0.765404 0.570641
vt 0.770289 0.582525
vt 0.727231 0.246953
vt 0.732171 0.238964
vt 0.739133 0.241552
vt 0.744576 0.251251
vt 0.839262 0.902680
vt 0.851624 0.910262
vt 0.752429 0.238049
vt 0.759708 0.249704
vt 0.830656 0.905897
vt 0.819160 0.908881
vt 0.763089 0.238501
vt 0.771093 0.251246
vt 0.773871 0.268335
vt 0.467416 0.623144
vt 0.482553 0.639442
vt 0.465350 0.640038
vt 0.895151 0.147318
vt 0.892099 0.167672
vt 0.887991 0.151671
vt 0.483635 0.622709
vt 0.494939 0.639359
vt 0.498978 0.622858
vt 0.507183 0.633583
vt 0.901788 0.175950
vt 0.891654 0.182931
vt 0.511807 0.619473
vt 0.512472 0.629540
vt 0.878827 0.176158
vt 0.018104 0.944880
vt 0.018387 0.931841
vt 0.027201 0.947637
vt 0.877542 0.190894
vt 0.872301 0.182840
vt 0.878474 0.160210
vt 0.871802 0.164055
vt 0.029401 0.931001
vt 0.038814 0.947628
vt 0.042893 0.931671
vt 0.051390 0.947975
vt 0.860283 0.170577
vt 0.057755 0.930455
vt 0.062864 0.948695
vt 0.852255 0.173564
vt 0.854495 0.155154
vt 0.865083 0.151259
vt 0.131477 0.622175
vt 0.144357 0.633122
vt 0.123633 0.638158
vt 0.142099 0.617190
vt 0.157896 0.617208
vt 0.165463 0.629631
vt 0.845618 0.144933
vt 0.855751 0.137956
vt 0.374883 0.631351
vt 0.380669 0.620685
vt 0.385279 0.637272
vt 0.394970 0.620762
vt 0.402790 0.637419
vt 0.875181 0.131832
vt 0.874927 0.141379
vt 0.423154 0.620407
vt 0.420972 0.638203
vt 0.408843 0.621613
vt 0.405723 0.320953
vt 0.378876 0.320996
vt 0.049702 0.631524
vt 0.487175 0.322950
vt 0.164406 0.321278
vt 0.170374 0.617510
vt 0.068313 0.632362
vt 0.371171 0.617202
vt 0.026044 0.631356
vt 0.142690 0.321136
vt 0.070765 0.932319
vt 0.012670 0.631801
vt 0.456342 0.624898
vt 0.460505 0.323597
vt 0.116683 0.321880
vt 0.576337 0.658378
vt 0.583433 0.674937
vt 0.566229 0.675534
vt 0.935369 0.918277
vt 0.933000 0.938022
vt 0.928210 0.922630
vt 0.592387 0.658336
vt 0.595818 0.674855
vt 0.912701 0.936027
vt 0.917842 0.930293
vt 0.942007 0.946908
vt 0.932269 0.950917
vt 0.931346 0.963415
vt 0.919791 0.950574
vt 0.374869 0.977167
vt 0.376912 0.966812
vt 0.385267 0.983078
vt 0.386821 0.962759
vt 0.395944 0.976170
vt 0.397420 0.986397
vt 0.402749 0.962747
vt 0.409850 0.979976
vt 0.915280 0.958312
vt 0.906420 0.957922
vt 0.902383 0.943572
vt 0.418806 0.963473
vt 0.422098 0.980801
vt 0.560158 0.309681
vt 0.573316 0.312918
vt 0.560575 0.326719
vt 0.886867 0.932937
vt 0.895013 0.928663
vt 0.589472 0.312439
vt 0.595818 0.329058
vt 0.577296 0.329320
vt 0.885836 0.915891
vt 0.892976 0.910636
vt 0.906685 0.921096
vt 0.601694 0.313079
vt 0.608062 0.323288
vt 0.612971 0.309130
vt 0.613352 0.319253
vt 0.893881 0.897333
vt 0.900907 0.904695
vt 0.242816 0.898524
vt 0.250845 0.888945
vt 0.260282 0.905489
vt 0.910082 0.900947
vt 0.915146 0.912338
vt 0.264339 0.889603
vt 0.272869 0.905791
vt 0.277024 0.889385
vt 0.284367 0.906415
vt 0.583893 0.358458
vt 0.610523 0.013066
vt 0.260899 0.589045
vt 0.589133 0.012706
vt 0.607151 0.654705
vt 0.616081 0.359029
vt 0.615599 0.654950
vt 0.281822 0.589527
vt 0.290393 0.891731
vt 0.406747 0.666935
vt 0.236477 0.885439
vt 0.242599 0.589142
vt 0.425776 0.667762
vt 0.429433 0.964267
vt 0.559878 0.658172
vt 0.563057 0.359024
vt 0.379809 0.666933
vt 0.561384 0.013415
vt 0.481864 0.213591
vt 0.491299 0.295235
vt 0.466368 0.293909
vt 0.498587 0.214645
vt 0.508322 0.296772
vt 0.350110 0.292978
vt 0.251118 0.214554
vt 0.351958 0.212090
vt 0.368572 0.212382
vt 0.367609 0.293314
vt 0.385389 0.213150
vt 0.386964 0.294297
vt 0.400878 0.214253
vt 0.401919 0.295436
vt 0.131310 0.292839
vt 0.146787 0.212332
vt 0.161181 0.294150
vt 0.182194 0.214904
vt 0.179350 0.295710
vt 0.039267 0.521920
vt 0.052620 0.603846
vt 0.024899 0.602271
vt 0.072035 0.524468
vt 0.068213 0.605349
vt 0.025888 0.295710
vt 0.130074 0.211977
vt 0.724066 0.182024
vt 0.734683 0.025778
vt 0.815702 0.188071
vt 0.461368 0.119088
vt 0.463602 0.079805
vt 0.474172 0.120647
vt 0.474672 0.045840
vt 0.482561 0.081272
vt 0.493105 0.118548
vt 0.501735 0.059669
vt 0.510369 0.117716
vt 0.525763 0.058673
vt 0.522864 0.119409
vt 0.243881 0.104713
vt 0.358990 0.054414
vt 0.354455 0.114942
vt 0.363754 0.114705
vt 0.373813 0.056470
vt 0.376258 0.114952
vt 0.389914 0.064187
vt 0.393738 0.120996
vt 0.408543 0.082161
vt 0.404663 0.044206
vt 0.413884 0.056294
vt 0.410381 0.121601
vt 0.421463 0.081612
vt 0.427232 0.057475
vt 0.138203 0.114617
vt 0.129057 0.101217
vt 0.139826 0.043086
vt 0.152667 0.056325
vt 0.154757 0.114907
vt 0.171826 0.057253
vt 0.172185 0.121112
vt 0.177923 0.081647
vt 0.194593 0.045815
vt 0.188785 0.121940
vt 0.195733 0.082418
vt 0.207920 0.047331
vt 0.018767 0.427476
vt 0.030145 0.389169
vt 0.031574 0.428987
vt 0.016332 0.387220
vt 0.017651 0.351984
vt 0.051806 0.373325
vt 0.050510 0.426850
vt 0.037933 0.352380
vt 0.068785 0.367402
vt 0.067774 0.426020
vt 0.083165 0.366532
vt 0.082848 0.419838
vt 0.014607 0.057930
vt 0.023876 0.119029
vt 0.455268 0.038697
vt 0.461405 0.024573
vt 0.489271 0.013721
vt 0.480112 0.025158
vt 0.294392 0.321795
vt 0.279804 0.332310
vt 0.260318 0.329657
vt 0.297278 0.344045
vt 0.289845 0.356824
vt 0.274676 0.348712
vt 0.490879 0.039795
vt 0.499449 0.026089
vt 0.512005 0.044949
vt 0.257602 0.347751
vt 0.513195 0.015399
vt 0.518176 0.027457
vt 0.244568 0.348043
vt 0.525419 0.041989
vt 0.235809 0.055835
vt 0.365051 0.037960
vt 0.234130 0.040989
vt 0.365946 0.024140
vt 0.345396 0.357601
vt 0.333519 0.538986
vt 0.333319 0.344777
vt 0.323039 0.349707
vt 0.318754 0.540571
vt 0.308347 0.352826
vt 0.304882 0.535690
vt 0.380188 0.024489
vt 0.386218 0.038834
vt 0.311342 0.336135
vt 0.398585 0.025423
vt 0.379022 0.012804
vt 0.400049 0.013633
vt 0.417184 0.026718
vt 0.420795 0.015104
vt 0.425626 0.041726
vt 0.429541 0.027781
vt 0.155453 0.038186
vt 0.144959 0.024028
vt 0.159216 0.024402
vt 0.154796 0.012725
vt 0.178734 0.013784
vt 0.260318 0.554766
vt 0.256597 0.535096
vt 0.268209 0.548275
vt 0.271211 0.531576
vt 0.282277 0.540358
vt 0.175354 0.039443
vt 0.177602 0.025457
vt 0.196163 0.026959
vt 0.201695 0.015657
vt 0.294392 0.562627
vt 0.293202 0.553951
vt 0.208478 0.028213
vt 0.037518 0.333435
vt 0.018807 0.332908
vt 0.024474 0.321178
vt 0.289715 0.527573
vt 0.319465 0.555490
vt 0.058618 0.348524
vt 0.056856 0.334348
vt 0.046380 0.321969
vt 0.075581 0.335745
vt 0.079105 0.349937
vt 0.067791 0.323488
vt 0.244629 0.536648
vt 0.234130 0.526837
vt 0.234130 0.357601
vt 0.012670 0.041423
vt 0.014650 0.027866
vt 0.463869 0.212908
vt 0.514334 0.216087
vt 0.166310 0.213474
vt 0.022287 0.521312
vt 0.055991 0.522960
vt 0.943727 0.138979
vt 0.952939 0.150673
vt 0.946405 0.153555
vt 0.805628 0.508573
vt 0.816332 0.533665
vt 0.808563 0.527112
vt 0.815027 0.509286
vt 0.824172 0.515028
vt 0.834056 0.536432
vt 0.949411 0.126374
vt 0.956908 0.137630
vt 0.848312 0.526836
vt 0.847151 0.539580
vt 0.962545 0.152753
vt 0.858961 0.509090
vt 0.855782 0.527048
vt 0.970464 0.138516
vt 0.887934 0.832848
vt 0.902320 0.850051
vt 0.890777 0.851071
vt 0.896924 0.868084
vt 0.912075 0.861497
vt 0.917247 0.871279
vt 0.901187 0.831400
vt 0.915507 0.836789
vt 0.927571 0.850776
vt 0.930456 0.860217
vt 0.926327 0.871993
vt 0.969388 0.160635
vt 0.952377 0.161170
vt 0.807701 0.832234
vt 0.819219 0.848925
vt 0.807262 0.845192
vt 0.821690 0.830589
vt 0.831110 0.836237
vt 0.814553 0.861486
vt 0.832956 0.866122
vt 0.825073 0.873295
vt 0.831895 0.876316
vt 0.838429 0.849506
vt 0.846007 0.859108
vt 0.846315 0.868346
vt 0.843521 0.830979
vt 0.855547 0.837054
vt 0.854674 0.855231
vt 0.945949 0.166579
vt 0.937649 0.168274
vt 0.935946 0.156347
vt 0.653363 0.617571
vt 0.665244 0.640751
vt 0.652344 0.635323
vt 0.667565 0.617145
vt 0.678846 0.633810
vt 0.653568 0.384552
vt 0.667880 0.384229
vt 0.814847 0.276484
vt 0.826208 0.270838
vt 0.667020 0.654904
vt 0.680489 0.648118
vt 0.677086 0.654897
vt 0.850556 0.508865
vt 0.858961 0.275743
vt 0.926554 0.831534
vt 0.915838 0.601073
vt 0.932797 0.601751
vt 0.644892 0.622644
vt 0.836448 0.513930
vt 0.846618 0.276135
vt 0.805632 0.602432
vt 0.815097 0.596372
vt 0.827065 0.594672
vt 0.841476 0.597406
vt 0.937324 0.146703
vt 0.929570 0.138613
vt 0.855591 0.596945
vt 0.935770 0.832953
vt 0.694840 0.617240
vt 0.682183 0.384770
vt 0.694509 0.384142
vt 0.888099 0.601908
vt 0.901352 0.600904
vt 0.691864 0.635563
vt 0.689861 0.648059
vt 0.681845 0.617428
vt 0.809667 0.257968
vt 0.805651 0.275915
vt 0.819641 0.248764
vt 0.827658 0.238174
vt 0.836843 0.245162
vt 0.835681 0.258073
vt 0.727688 0.916311
vt 0.737263 0.912964
vt 0.728253 0.926205
vt 0.747244 0.921229
vt 0.741293 0.925496
vt 0.849542 0.259429
vt 0.838265 0.238150
vt 0.850645 0.248918
vt 0.734176 0.934354
vt 0.893851 0.575745
vt 0.895871 0.584280
vt 0.886711 0.589497
vt 0.909062 0.575558
vt 0.913692 0.585759
vt 0.744126 0.937019
vt 0.728227 0.940613
vt 0.743890 0.947332
vt 0.755018 0.939930
vt 0.919553 0.571953
vt 0.927623 0.584173
vt 0.754334 0.929125
vt 0.764655 0.924518
vt 0.771039 0.927300
vt 0.766906 0.940676
vt 0.760405 0.914726
vt 0.823950 0.575014
vt 0.771753 0.916912
vt 0.835228 0.575537
vt 0.768513 0.907119
vt 0.747106 0.913873
vt 0.750006 0.907200
vt 0.846007 0.575799
vt 0.756158 0.900178
vt 0.646321 0.357189
vt 0.659454 0.349197
vt 0.654018 0.365153
vt 0.644879 0.379058
vt 0.671593 0.350362
vt 0.667679 0.366576
vt 0.741228 0.899147
vt 0.682483 0.367392
vt 0.730735 0.904569
vt 0.683362 0.348982
vt 0.693295 0.366267
vt 0.851552 0.022311
vt 0.173331 0.900039
vt 0.129805 0.670108
vt 0.924527 0.022761
vt 0.928800 0.033259
vt 0.563322 0.713809
vt 0.556996 0.735643
vt 0.578667 0.704401
vt 0.195704 0.969044
vt 0.116871 0.741715
vt 0.636345 0.714328
vt 0.569391 0.901117
vt 0.162653 0.983802
vt 0.602513 0.821180
vt 0.618463 0.830766
vt 0.616739 0.818220
vt 0.118752 0.798244
vt 0.114543 0.950048
vt 0.481392 0.915541
vt 0.493045 0.918557
vt 0.663490 0.321088
vt 0.674632 0.317985
vt 0.480144 0.958751
vt 0.455268 0.948404
vt 0.459668 0.934679
vt 0.459858 0.924640
vt 0.779649 0.498537
vt 0.926469 0.238925
vt 0.936579 0.256180
vt 0.725239 0.588650
vt 0.732670 0.566955
vt 0.761443 0.563689
vt 0.902511 0.164627
vt 0.500892 0.642889
vt 0.900804 0.189279
vt 0.891127 0.192456
vt 0.866202 0.186963
vt 0.117956 0.621717
vt 0.844895 0.156256
vt 0.153221 0.637437
vt 0.159174 0.640997
vt 0.846603 0.131596
vt 0.856279 0.128422
vt 0.456495 0.722478
vt 0.460478 0.690885
vt 0.515987 0.683916
vt 0.479392 0.671818
vt 0.498959 0.670280
vt 0.527065 0.712593
vt 0.523269 0.739969
vt 0.468442 0.751364
vt 0.508696 0.758752
vt 0.488205 0.763213
vt 0.509607 0.323280
vt 0.425797 0.321666
vt 0.173484 0.321725
vt 0.013132 0.927911
vt 0.942729 0.935585
vt 0.608059 0.667047
vt 0.601771 0.678384
vt 0.941022 0.960238
vt 0.896271 0.949983
vt 0.601771 0.332617
vt 0.886822 0.902554
vt 0.250208 0.908868
vt 0.921422 0.904878
vt 0.455696 0.843012
vt 0.458315 0.820034
vt 0.526932 0.836559
vt 0.469840 0.800845
vt 0.518791 0.805331
vt 0.485222 0.790799
vt 0.501643 0.791505
vt 0.518879 0.866306
vt 0.461158 0.865045
vt 0.497677 0.882923
vt 0.474222 0.879671
vt 0.603444 0.358554
vt 0.293254 0.590109
vt 0.234130 0.589451
vt 0.248710 0.295436
vt 0.752709 0.016008
vt 0.784100 0.014912
vt 0.817398 0.040743
vt 0.807828 0.025778
vt 0.028732 0.214905
vt 0.792925 0.207770
vt 0.757109 0.210210
vt 0.732156 0.196504
vt 0.725112 0.040743
vt 0.460825 0.054352
vt 0.465047 0.012754
vt 0.236053 0.027357
vt 0.345396 0.526837
vt 0.319466 0.328933
vt 0.939310 0.129925
vt 0.964797 0.129331
vt 0.884954 0.856388
vt 0.959184 0.170540
vt 0.948485 0.174552
vt 0.657583 0.652376
vt 0.818216 0.238055
vt 0.843715 0.238065
vt 0.926634 0.572457
vt 0.935016 0.583924
vt 0.812695 0.578307
vt 0.854674 0.580795
vt 0.689861 0.353386
s 0
f 3/1/1 15/2/1 120/3/1
f 120/3/2 16/4/2 112/5/2
f 5/6/3 8/7/3 2/8/3
f 2/8/4 9/9/4 6/10/4
f 118/11/5 19/12/5 26/13/5
f 4/14/6 12/15/6 119/16/6
f 3/17/7 11/18/7 15/19/7
f 119/20/8 12/21/8 7/22/8
f 9/9/9 11/18/9 6/10/9
f 8/7/10 13/23/10 14/24/10
f 8/7/11 14/24/11 9/9/11
f 12/21/12 13/23/12 7/22/12
f 14/24/13 18/25/13 11/18/13
f 26/13/14 20/26/14 4/14/14
f 14/24/15 21/27/15 23/28/15
f 18/25/16 24/29/16 15/19/16
f 13/23/17 17/30/17 21/27/17
f 17/30/18 20/31/18 27/32/18
f 23/28/19 21/27/19 22/33/19
f 23/28/20 28/34/20 18/25/20
f 18/25/21 28/34/21 24/29/21
f 22/33/22 28/34/22 23/28/22
f 20/26/23 26/13/23 37/35/23
f 24/29/24 28/34/24 31/36/24
f 25/37/25 31/38/25 41/39/25
f 25/37/26 35/40/26 10/41/26
f 21/27/27 27/32/27 30/42/27
f 19/12/28 1/43/28 58/44/28
f 35/40/29 66/45/29 16/4/29
f 22/33/30 30/42/30 33/46/30
f 112/5/31 16/4/31 66/45/31
f 22/33/32 34/47/32 28/34/32
f 58/44/33 36/48/33 26/13/33
f 31/49/34 34/50/34 40/51/34
f 29/52/35 37/35/35 38/53/35
f 35/40/36 41/39/36 52/54/36
f 32/55/37 38/56/37 42/57/37
f 33/58/38 42/57/38 39/59/38
f 33/58/39 39/59/39 34/50/39
f 39/59/40 46/60/40 40/51/40
f 36/48/41 43/61/41 37/35/41
f 40/51/42 51/62/42 41/63/42
f 38/56/43 43/64/43 44/65/43
f 41/39/44 51/66/44 52/54/44
f 39/59/45 42/57/45 45/67/45
f 42/57/46 44/65/46 48/68/46
f 44/65/47 53/69/47 47/70/47
f 52/54/48 51/66/48 62/71/48
f 45/67/49 48/68/49 49/72/49
f 36/48/50 58/44/50 59/73/50
f 45/67/51 50/74/51 46/60/51
f 48/68/52 54/75/52 55/76/52
f 49/72/53 56/77/53 50/74/53
f 50/74/54 56/77/54 57/78/54
f 50/74/55 57/78/55 51/62/55
f 47/70/56 53/69/56 54/75/56
f 52/54/57 62/71/57 75/79/57
f 55/76/58 64/80/58 56/77/58
f 57/78/59 64/80/59 65/81/59
f 59/73/60 60/82/60 53/83/60
f 55/76/61 63/84/61 61/85/61
f 62/71/62 65/86/62 81/87/62
f 61/88/63 68/89/63 64/90/63
f 59/73/64 1/43/64 76/91/64
f 68/89/65 69/92/65 64/90/65
f 76/91/66 67/93/66 60/82/66
f 60/94/67 70/95/67 63/96/67
f 61/88/68 63/96/68 71/97/68
f 63/96/69 70/95/69 72/98/69
f 75/79/70 95/99/70 66/45/70
f 112/5/71 66/45/71 95/99/71
f 71/97/72 73/100/72 68/89/72
f 68/89/73 73/100/73 69/92/73
f 69/92/74 73/100/74 80/101/74
f 71/97/75 79/102/75 73/100/75
f 76/91/76 77/103/76 67/93/76
f 67/104/77 78/105/77 70/95/77
f 81/87/78 90/106/78 75/79/78
f 72/98/79 78/105/79 83/107/79
f 79/102/80 80/101/80 73/100/80
f 80/101/81 88/108/81 74/109/81
f 1/43/82 106/110/82 76/91/82
f 79/102/83 87/111/83 80/101/83
f 81/87/84 88/112/84 90/106/84
f 83/107/85 86/113/85 79/102/85
f 83/107/86 89/114/86 85/115/86
f 82/116/87 84/117/87 89/118/87
f 86/113/88 93/119/88 87/111/88
f 84/117/89 106/110/89 91/120/89
f 87/111/90 93/119/90 94/121/90
f 87/122/91 94/123/91 88/112/91
f 90/106/92 94/123/92 103/124/92
f 85/115/93 89/114/93 92/125/93
f 85/115/94 93/119/94 86/113/94
f 85/126/95 92/127/95 98/128/95
f 85/126/96 98/128/96 93/129/96
f 94/130/97 93/129/97 102/131/97
f 89/118/98 99/132/98 96/133/98
f 92/127/99 96/134/99 97/135/99
f 103/124/100 112/5/100 95/99/100
f 98/128/101 101/136/101 93/129/101
f 98/128/102 97/135/102 105/137/102
f 96/134/103 99/138/103 100/139/103
f 91/120/104 107/140/104 99/132/104
f 101/136/105 110/141/105 102/131/105
f 100/139/106 107/142/106 108/143/106
f 97/135/107 108/143/107 104/144/107
f 105/137/108 109/145/108 101/136/108
f 91/120/109 118/11/109 113/146/109
f 105/137/110 104/144/110 111/147/110
f 101/136/111 109/145/111 117/148/111
f 110/149/112 120/3/112 103/124/112
f 108/143/113 107/142/113 114/150/113
f 110/149/114 117/151/114 120/3/114
f 106/110/115 1/43/115 19/12/115
f 111/147/116 116/152/116 109/145/116
f 117/148/117 116/152/117 3/153/117
f 113/146/118 114/154/118 107/140/118
f 111/147/119 115/155/119 2/156/119
f 115/155/120 119/157/120 5/158/120
f 2/156/121 6/159/121 116/152/121
f 113/146/122 118/11/122 4/14/122
f 114/154/123 4/14/123 119/16/123
f 122/160/124 121/161/124 125/162/124
f 124/163/125 132/164/125 169/165/125
f 141/166/126 169/165/126 132/164/126
f 122/160/127 125/162/127 126/167/127
f 124/168/128 123/169/128 129/170/128
f 126/167/129 127/171/129 128/172/129
f 128/172/130 131/173/130 126/167/130
f 131/173/131 135/174/131 129/175/131
f 130/176/132 133/177/132 128/172/132
f 131/173/133 136/178/133 135/174/133
f 132/164/134 139/179/134 141/166/134
f 134/180/135 136/181/135 133/182/135
f 134/180/136 137/183/136 136/181/136
f 136/181/137 138/184/137 135/185/137
f 136/181/138 137/183/138 138/184/138
f 140/186/139 142/187/139 143/188/139
f 141/166/140 145/189/140 152/190/140
f 143/188/141 146/191/141 147/192/141
f 144/193/142 147/194/142 149/195/142
f 142/187/143 146/191/143 143/188/143
f 147/196/144 146/197/144 150/198/144
f 147/196/145 150/198/145 151/199/145
f 149/195/146 151/200/146 158/201/146
f 154/202/147 155/203/147 150/198/147
f 150/198/148 153/204/148 151/199/148
f 151/200/149 153/205/149 158/201/149
f 154/202/150 157/206/150 155/203/150
f 152/190/151 158/201/151 169/165/151
f 141/166/152 152/190/152 169/165/152
f 157/207/153 160/208/153 153/209/153
f 156/210/154 159/211/154 157/207/154
f 159/211/155 163/212/155 160/208/155
f 158/213/156 160/208/156 162/214/156
f 159/211/157 161/215/157 163/212/157
f 160/208/158 163/212/158 165/216/158
f 165/216/159 168/217/159 162/214/159
f 130/176/160 184/218/160 134/219/160
f 142/187/161 191/220/161 193/221/161
f 164/222/162 165/216/162 163/212/162
f 154/202/163 201/223/163 205/224/163
f 156/210/164 208/225/164 159/211/164
f 130/176/165 176/226/165 181/227/165
f 164/222/166 166/228/166 165/216/166
f 164/222/167 214/229/167 166/228/167
f 137/183/168 191/220/168 140/186/168
f 164/222/169 210/230/169 214/229/169
f 127/171/170 174/231/170 176/226/170
f 148/232/171 201/223/171 154/202/171
f 154/202/172 205/224/172 156/233/172
f 137/183/173 184/234/173 188/235/173
f 148/232/174 196/236/174 198/237/174
f 167/238/175 166/228/175 122/239/175
f 159/211/176 210/230/176 161/215/176
f 125/162/177 216/240/177 174/231/177
f 122/239/178 123/241/178 167/238/178
f 167/238/179 124/242/179 168/217/179
f 142/187/180 196/243/180 146/191/180
f 156/233/181 205/224/181 208/244/181
f 217/245/182 170/246/182 171/247/182
f 216/240/183 170/246/183 174/231/183
f 170/246/184 173/248/184 175/249/184
f 172/250/185 179/251/185 173/252/185
f 175/249/186 174/231/186 170/246/186
f 172/250/187 177/253/187 179/251/187
f 179/251/188 178/254/188 175/255/188
f 178/256/189 180/257/189 174/231/189
f 176/226/190 180/257/190 181/227/190
f 179/251/191 182/258/191 178/254/191
f 177/253/192 218/259/192 186/260/192
f 180/261/193 182/262/193 183/263/193
f 180/257/194 184/218/194 181/227/194
f 182/258/195 186/260/195 187/264/195
f 187/265/196 185/266/196 183/263/196
f 184/234/197 185/266/197 188/235/197
f 189/267/198 192/268/198 187/264/198
f 185/266/199 192/269/199 190/270/199
f 188/235/200 190/270/200 191/220/200
f 186/260/201 218/259/201 200/271/201
f 190/270/202 192/269/202 195/272/202
f 191/220/203 195/272/203 193/221/203
f 189/267/204 194/273/204 192/268/204
f 195/272/205 194/274/205 197/275/205
f 195/272/206 196/243/206 193/221/206
f 189/267/207 200/271/207 199/276/207
f 199/277/208 202/278/208 197/279/208
f 197/279/209 202/278/209 203/280/209
f 198/237/210 203/280/210 201/223/210
f 199/276/211 200/271/211 206/281/211
f 201/223/212 203/280/212 205/224/212
f 206/281/213 211/282/213 202/283/213
f 207/284/214 204/285/214 203/280/214
f 204/286/215 207/287/215 209/288/215
f 209/288/216 212/289/216 208/225/216
f 208/225/217 212/289/217 210/230/217
f 218/259/218 211/282/218 206/281/218
f 211/282/219 209/290/219 207/291/219
f 210/230/220 212/289/220 214/229/220
f 213/292/221 215/293/221 212/289/221
f 211/282/222 218/259/222 172/250/222
f 213/294/223 172/250/223 217/295/223
f 217/296/224 171/297/224 215/293/224
f 214/229/225 171/297/225 216/298/225
f 217/295/226 172/250/226 173/252/226
f 220/299/227 223/300/227 221/301/227
f 221/302/228 226/303/228 260/304/228
f 222/305/229 225/306/229 223/300/229
f 224/307/230 228/308/230 225/306/230
f 225/309/231 229/310/231 226/303/231
f 227/311/232 230/312/232 228/308/232
f 229/310/233 236/313/233 226/303/233
f 228/314/234 230/315/234 232/316/234
f 229/310/235 235/317/235 238/318/235
f 231/319/236 236/313/236 243/320/236
f 232/316/237 233/321/237 235/322/237
f 235/322/238 234/323/238 237/324/238
f 236/313/239 238/318/239 241/325/239
f 237/324/240 239/326/240 242/327/240
f 238/318/241 242/328/241 241/325/241
f 249/329/242 255/330/242 243/320/242
f 244/331/243 246/332/243 242/333/243
f 242/328/244 249/329/244 241/325/244
f 245/334/245 246/332/245 244/331/245
f 247/335/246 251/336/246 246/332/246
f 248/337/247 254/338/247 249/329/247
f 251/339/248 252/340/248 253/341/248
f 253/341/249 256/342/249 258/343/249
f 254/338/250 258/344/250 259/345/250
f 255/330/251 259/345/251 231/319/251
f 243/320/252 255/330/252 231/319/252
f 258/343/253 219/346/253 221/347/253
f 259/345/254 221/302/254 260/304/254
f 257/348/255 270/349/255 219/346/255
f 252/340/256 269/350/256 256/342/256
f 234/323/257 265/351/257 239/326/257
f 220/299/258 262/352/258 222/305/258
f 247/335/259 268/353/259 250/354/259
f 239/326/260 265/351/260 266/355/260
f 222/305/261 262/352/261 224/307/261
f 250/356/262 269/350/262 252/340/262
f 230/315/263 264/357/263 233/321/263
f 244/331/264 267/358/264 245/334/264
f 239/326/265 266/355/265 240/359/265
f 230/315/266 263/360/266 264/357/266
f 219/361/267 261/362/267 220/299/267
f 245/334/268 267/358/268 247/335/268
f 234/323/269 264/357/269 265/351/269
f 244/331/270 266/363/270 267/358/270
f 273/364/271 274/365/271 272/366/271
f 272/367/272 278/368/272 313/369/272
f 275/370/273 277/371/273 274/365/273
f 278/368/274 296/372/274 276/373/274
f 277/374/275 281/375/275 278/368/275
f 281/375/276 283/376/276 285/377/276
f 280/378/277 282/379/277 283/380/277
f 282/379/278 284/381/278 286/382/278
f 283/380/279 286/382/279 287/383/279
f 286/382/280 288/384/280 289/385/280
f 287/386/281 289/387/281 293/388/281
f 289/385/282 290/389/282 291/390/282
f 292/391/283 294/392/283 291/393/283
f 295/394/284 298/395/284 293/388/284
f 297/396/285 300/397/285 295/398/285
f 300/399/286 303/400/286 298/395/286
f 298/395/287 306/401/287 296/372/287
f 276/373/288 296/372/288 306/401/288
f 299/402/289 302/403/289 300/397/289
f 301/404/290 304/405/290 302/403/290
f 303/400/291 304/406/291 305/407/291
f 304/408/292 307/409/292 309/410/292
f 305/407/293 309/411/293 312/412/293
f 309/410/294 308/413/294 311/414/294
f 306/401/295 312/412/295 276/373/295
f 311/414/296 310/415/296 272/416/296
f 312/412/254 272/367/254 313/369/254
f 273/364/297 315/417/297 275/370/297
f 299/402/298 321/418/298 301/404/298
f 308/413/299 323/419/299 310/415/299
f 299/402/300 320/420/300 321/418/300
f 279/421/301 317/422/301 282/423/301
f 310/415/302 324/424/302 271/425/302
f 288/384/303 318/426/303 290/389/303
f 301/427/304 322/428/304 307/409/304
f 290/389/305 319/429/305 292/430/305
f 271/431/306 314/432/306 273/364/306
f 288/384/307 317/433/307 318/426/307
f 292/391/308 319/434/308 294/392/308
f 327/435/309 328/436/309 325/437/309
f 329/438/310 330/439/310 328/436/310
f 332/440/311 349/441/311 333/442/311
f 332/440/312 335/443/312 334/444/312
f 334/444/313 337/445/313 336/446/313
f 326/447/314 325/448/314 336/446/314
f 338/449/315 341/450/315 340/451/315
f 340/451/316 344/452/316 343/453/316
f 345/454/317 346/455/317 343/456/317
f 349/457/318 348/458/318 346/455/318
f 330/459/319 339/460/319 338/449/319
f 348/461/320 334/462/320 338/463/320
f 361/464/321 350/465/321 351/466/321
f 350/465/322 376/467/322 352/468/322
f 351/466/323 352/468/323 353/469/323
f 352/468/324 383/470/324 353/469/324
f 353/469/325 383/470/325 354/471/325
f 354/471/326 389/472/326 355/473/326
f 374/474/327 395/475/327 356/476/327
f 357/477/328 395/475/328 397/478/328
f 358/479/329 397/478/329 401/480/329
f 359/481/330 358/479/330 401/480/330
f 359/481/331 401/480/331 360/482/331
f 360/482/332 404/483/332 406/484/332
f 361/485/333 360/482/333 350/486/333
f 350/486/334 406/484/334 375/487/334
f 362/488/335 363/489/335 411/490/335
f 362/488/336 411/490/336 418/491/336
f 364/492/337 418/491/337 425/493/337
f 366/494/338 364/492/338 365/495/338
f 365/495/339 425/493/339 427/496/339
f 368/497/340 365/495/340 367/498/340
f 367/498/341 427/496/341 431/499/341
f 368/500/342 369/501/342 370/502/342
f 367/503/343 431/504/343 369/501/343
f 370/502/344 437/505/344 371/506/344
f 369/501/345 434/507/345 437/505/345
f 371/506/346 441/508/346 372/509/346
f 372/509/347 373/510/347 374/511/347
f 389/512/348 363/489/348 355/513/348
f 410/514/349 377/515/349 376/467/349
f 377/515/350 379/516/350 380/517/350
f 407/518/351 409/519/351 379/520/351
f 398/521/352 405/522/352 378/523/352
f 376/467/353 380/517/353 381/524/353
f 376/467/354 381/524/354 383/470/354
f 380/517/355 379/516/355 382/525/355
f 381/524/356 382/525/356 385/526/356
f 409/519/357 378/523/357 384/527/357
f 382/525/358 386/528/358 387/529/358
f 379/520/359 384/527/359 386/530/359
f 385/526/360 388/531/360 389/472/360
f 385/526/361 387/529/361 388/531/361
f 373/532/362 394/533/362 395/475/362
f 443/534/363 393/535/363 394/533/363
f 393/536/364 440/537/364 392/538/364
f 440/537/365 391/539/365 392/538/365
f 435/540/366 390/541/366 391/539/366
f 432/542/367 405/522/367 390/541/367
f 394/533/368 393/535/368 396/543/368
f 397/478/369 394/533/369 400/544/369
f 392/538/370 391/539/370 399/545/370
f 399/545/371 390/541/371 398/521/371
f 400/544/372 396/543/372 403/546/372
f 403/546/373 392/547/373 402/548/373
f 404/483/374 403/546/374 408/549/374
f 408/549/375 402/548/375 407/550/375
f 406/484/376 404/483/376 410/551/376
f 407/518/377 399/545/377 409/519/377
f 410/551/378 408/549/378 377/552/378
f 418/491/379 411/490/379 417/553/379
f 417/553/380 412/554/380 416/555/380
f 416/555/381 413/556/381 421/557/381
f 421/558/382 414/559/382 420/560/382
f 420/560/383 415/561/383 419/562/383
f 425/493/384 417/553/384 424/563/384
f 424/563/385 416/555/385 423/564/385
f 427/496/386 423/564/386 426/565/386
f 426/565/387 421/557/387 429/566/387
f 429/567/388 420/560/388 428/568/388
f 431/499/389 426/565/389 430/569/389
f 431/504/390 433/570/390 434/507/390
f 430/571/391 429/572/391 433/570/391
f 419/562/392 422/573/392 432/542/392
f 429/567/393 435/540/393 436/574/393
f 428/568/394 432/542/394 435/540/394
f 434/507/395 439/575/395 437/505/395
f 434/507/396 438/576/396 439/575/396
f 433/570/397 436/577/397 438/576/397
f 437/505/398 439/575/398 441/508/398
f 436/574/399 435/540/399 440/537/399
f 439/575/400 442/578/400 443/579/400
f 438/576/401 440/580/401 442/578/401
f 441/508/402 443/579/402 373/510/402
f 422/573/403 378/523/403 405/522/403
f 415/561/404 384/527/404 378/523/404
f 384/527/405 413/581/405 386/530/405
f 386/530/406 412/582/406 387/583/406
f 412/554/407 388/584/407 387/585/407
f 388/584/408 411/490/408 389/512/408
f 326/586/409 351/466/409 327/435/409
f 327/435/410 353/469/410 329/438/410
f 329/438/411 354/471/411 331/587/411
f 339/460/412 355/513/412 363/489/412
f 333/442/413 374/474/413 356/476/413
f 333/442/414 356/476/414 357/477/414
f 335/443/415 357/477/415 358/479/415
f 337/445/416 358/479/416 359/481/416
f 326/447/417 359/481/417 361/485/417
f 339/460/418 363/489/418 362/488/418
f 341/450/419 362/488/419 364/492/419
f 342/588/420 364/492/420 366/494/420
f 342/588/421 366/494/421 368/497/421
f 344/589/422 370/502/422 345/454/422
f 345/454/423 371/506/423 347/590/423
f 347/590/424 372/509/424 349/457/424
f 447/591/425 452/592/425 489/593/425
f 444/594/426 446/595/426 490/596/426
f 446/595/427 445/597/427 448/598/427
f 446/595/428 448/598/428 450/599/428
f 447/591/429 450/600/429 451/601/429
f 450/599/430 454/602/430 457/603/430
f 451/601/431 465/604/431 452/592/431
f 454/602/432 455/605/432 456/606/432
f 457/607/433 465/604/433 451/601/433
f 455/608/434 459/609/434 456/610/434
f 457/611/435 461/612/435 463/613/435
f 459/609/436 461/612/436 457/611/436
f 458/614/437 460/615/437 459/609/437
f 459/609/438 460/615/438 461/612/438
f 461/612/439 460/615/439 464/616/439
f 461/612/440 464/616/440 467/617/440
f 467/617/441 470/618/441 463/613/441
f 465/604/442 463/619/442 478/620/442
f 452/592/443 465/604/443 478/620/443
f 466/621/444 469/622/444 464/623/444
f 469/622/445 468/624/445 471/625/445
f 467/626/446 469/622/446 472/627/446
f 470/628/447 472/627/447 477/629/447
f 471/625/448 474/630/448 469/622/448
f 472/627/449 475/631/449 481/632/449
f 474/630/450 475/631/450 472/627/450
f 473/633/451 476/634/451 474/630/451
f 475/631/452 476/634/452 480/635/452
f 477/636/453 481/637/453 483/638/453
f 477/636/454 489/593/454 478/620/454
f 452/592/455 478/620/455 489/593/455
f 479/639/456 482/640/456 480/641/456
f 482/640/457 484/642/457 486/643/457
f 484/642/458 530/644/458 533/645/458
f 448/598/459 494/646/459 496/647/459
f 483/648/460 487/649/460 488/650/460
f 453/651/461 504/652/461 455/605/461
f 462/653/462 512/654/462 515/655/462
f 476/656/463 530/644/463 479/639/463
f 449/657/464 499/658/464 453/651/464
f 466/621/465 515/659/465 518/660/465
f 458/614/466 512/654/466 460/615/466
f 448/598/467 496/647/467 449/657/467
f 471/625/468 521/661/468 525/662/468
f 488/663/469 487/664/469 447/591/469
f 476/634/470 525/662/470 527/665/470
f 444/594/471 494/646/471 445/597/471
f 462/653/472 515/655/472 466/666/472
f 444/667/473 535/668/473 537/669/473
f 458/614/474 504/670/474 508/671/474
f 486/643/475 444/667/475 490/672/475
f 471/625/476 525/662/476 473/633/476
f 449/657/477 496/647/477 499/658/477
f 490/672/478 446/673/478 487/649/478
f 484/642/479 535/668/479 485/674/479
f 492/675/480 494/646/480 537/676/480
f 495/677/481 496/647/481 492/675/481
f 493/678/482 500/679/482 495/677/482
f 495/677/483 500/679/483 498/680/483
f 498/680/484 499/658/484 496/647/484
f 493/681/485 497/682/485 501/683/485
f 497/682/486 538/684/486 503/685/486
f 500/679/487 502/686/487 498/680/487
f 501/687/488 506/688/488 500/679/488
f 503/685/489 505/689/489 501/683/489
f 502/686/490 504/652/490 499/658/490
f 506/690/491 507/691/491 502/692/491
f 504/670/492 507/691/492 508/671/492
f 507/691/493 509/693/493 511/694/493
f 503/685/494 510/695/494 505/689/494
f 506/696/495 510/695/495 509/697/495
f 506/690/496 509/693/496 507/691/496
f 511/694/497 512/654/497 508/671/497
f 510/695/498 514/698/498 509/697/498
f 511/694/499 514/699/499 513/700/499
f 511/694/500 515/655/500 512/654/500
f 503/685/501 517/701/501 510/695/501
f 514/698/502 517/701/502 520/702/502
f 520/702/503 519/703/503 516/704/503
f 517/701/504 538/684/504 524/705/504
f 519/706/505 521/661/505 518/660/505
f 519/703/506 520/702/506 522/707/506
f 522/708/507 525/662/507 521/661/507
f 524/705/508 526/709/508 522/707/508
f 524/705/509 523/710/509 529/711/509
f 526/712/510 527/665/510 525/662/510
f 529/711/511 531/713/511 524/705/511
f 524/705/512 531/713/512 526/709/512
f 526/714/513 531/715/513 528/716/513
f 527/717/514 528/716/514 530/644/514
f 528/716/515 534/718/515 532/719/515
f 530/644/516 532/719/516 533/645/516
f 531/713/517 529/711/517 534/720/517
f 534/718/518 536/721/518 532/719/518
f 533/645/519 536/721/519 535/668/519
f 523/710/520 497/682/520 529/711/520
f 523/710/521 538/684/521 497/682/521
f 534/720/522 497/682/522 491/722/522
f 536/721/523 491/723/523 492/724/523
f 536/721/524 537/669/524 535/668/524
f 5/6/525 119/725/525 7/22/525
f 120/3/526 15/2/526 10/41/526
f 120/3/527 10/41/527 16/4/527
f 2/8/528 8/7/528 9/9/528
f 4/14/529 118/11/529 26/13/529
f 3/17/530 6/10/530 11/18/530
f 8/7/531 5/6/531 7/22/531
f 9/9/532 14/24/532 11/18/532
f 8/7/533 7/22/533 13/23/533
f 4/14/534 20/26/534 12/15/534
f 11/18/535 18/25/535 15/19/535
f 12/21/536 17/30/536 13/23/536
f 10/41/537 15/2/537 25/37/537
f 14/24/538 13/23/538 21/27/538
f 14/24/539 23/28/539 18/25/539
f 17/30/540 12/21/540 20/31/540
f 25/37/541 15/2/541 24/726/541
f 21/27/542 17/30/542 27/32/542
f 19/12/543 58/44/543 26/13/543
f 20/26/544 37/35/544 29/52/544
f 27/727/545 20/26/545 29/52/545
f 25/37/546 24/726/546 31/38/546
f 25/37/547 41/39/547 35/40/547
f 10/41/548 35/40/548 16/4/548
f 22/33/549 21/27/549 30/42/549
f 27/32/550 29/728/550 32/729/550
f 30/42/551 27/32/551 32/729/551
f 22/33/552 33/46/552 34/47/552
f 26/13/553 36/48/553 37/35/553
f 31/36/554 28/34/554 34/47/554
f 31/49/555 40/51/555 41/63/555
f 29/730/556 38/56/556 32/55/556
f 33/58/557 30/731/557 32/55/557
f 35/40/558 52/54/558 66/45/558
f 33/58/559 32/55/559 42/57/559
f 34/50/560 39/59/560 40/51/560
f 39/59/561 45/67/561 46/60/561
f 40/51/562 46/60/562 51/62/562
f 38/56/563 37/732/563 43/64/563
f 42/57/564 38/56/564 44/65/564
f 45/67/565 42/57/565 48/68/565
f 43/61/566 36/48/566 59/73/566
f 43/61/567 59/73/567 53/83/567
f 46/60/568 50/74/568 51/62/568
f 44/65/569 43/64/569 53/69/569
f 48/68/570 44/65/570 47/70/570
f 45/67/571 49/72/571 50/74/571
f 48/68/572 47/70/572 54/75/572
f 49/72/573 48/68/573 55/76/573
f 49/72/574 55/76/574 56/77/574
f 62/71/575 51/66/575 57/733/575
f 66/45/576 52/54/576 75/79/576
f 55/76/577 61/85/577 64/80/577
f 57/78/578 56/77/578 64/80/578
f 54/734/579 53/83/579 60/82/579
f 62/71/580 57/733/580 65/86/580
f 54/75/581 60/735/581 63/84/581
f 55/76/582 54/75/582 63/84/582
f 62/71/583 81/87/583 75/79/583
f 59/73/584 58/44/584 1/43/584
f 59/73/585 76/91/585 60/82/585
f 61/88/586 71/97/586 68/89/586
f 65/736/587 64/90/587 69/92/587
f 65/736/588 69/92/588 74/109/588
f 81/87/589 65/86/589 74/737/589
f 60/94/590 67/104/590 70/95/590
f 71/97/591 63/96/591 72/98/591
f 69/92/592 80/101/592 74/109/592
f 71/97/593 72/98/593 79/102/593
f 76/91/594 84/117/594 77/103/594
f 67/104/595 77/738/595 78/105/595
f 72/98/596 70/95/596 78/105/596
f 81/87/597 74/737/597 88/112/597
f 77/738/598 82/739/598 78/105/598
f 75/79/599 90/106/599 95/99/599
f 72/98/600 83/107/600 79/102/600
f 79/102/601 86/113/601 87/111/601
f 76/91/602 106/110/602 84/117/602
f 80/101/603 87/111/603 88/108/603
f 82/739/604 77/738/604 84/740/604
f 83/107/605 78/105/605 82/739/605
f 83/107/606 82/739/606 89/114/606
f 83/107/607 85/115/607 86/113/607
f 84/117/608 91/120/608 99/132/608
f 89/118/609 84/117/609 99/132/609
f 90/106/610 88/112/610 94/123/610
f 92/127/611 89/741/611 96/134/611
f 90/106/612 103/124/612 95/99/612
f 102/131/613 93/129/613 101/136/613
f 103/124/614 94/123/614 102/742/614
f 98/128/615 92/127/615 97/135/615
f 91/120/616 106/110/616 118/11/616
f 98/128/617 105/137/617 101/136/617
f 97/135/618 96/134/618 100/139/618
f 91/120/619 113/146/619 107/140/619
f 100/139/620 99/138/620 107/142/620
f 103/124/621 102/742/621 110/149/621
f 97/135/622 100/139/622 108/143/622
f 105/137/623 97/135/623 104/144/623
f 105/137/624 111/147/624 109/145/624
f 101/136/625 117/148/625 110/141/625
f 112/5/626 103/124/626 120/3/626
f 108/143/627 114/150/627 115/155/627
f 104/144/628 108/143/628 115/155/628
f 111/147/629 104/144/629 115/155/629
f 118/11/630 106/110/630 19/12/630
f 117/148/631 109/145/631 116/152/631
f 111/147/632 2/156/632 116/152/632
f 114/150/633 119/157/633 115/155/633
f 120/3/634 117/151/634 3/1/634
f 2/156/635 115/155/635 5/158/635
f 116/152/636 6/159/636 3/153/636
f 114/154/637 113/146/637 4/14/637
f 123/169/638 122/160/638 126/167/638
f 125/162/639 127/171/639 126/167/639
f 129/170/640 123/169/640 126/167/640
f 132/164/641 124/163/641 129/743/641
f 129/170/642 126/167/642 131/173/642
f 128/172/643 127/171/643 130/176/643
f 131/173/644 128/172/644 133/177/644
f 129/743/645 135/744/645 139/179/645
f 132/164/646 129/743/646 139/179/646
f 130/176/647 134/219/647 133/177/647
f 131/173/648 133/177/648 136/178/648
f 135/185/649 138/184/649 139/745/649
f 138/184/650 137/183/650 140/186/650
f 139/179/651 145/189/651 141/166/651
f 139/179/652 144/193/652 145/189/652
f 138/184/653 140/186/653 144/746/653
f 139/745/654 138/184/654 144/746/654
f 144/746/655 140/186/655 143/188/655
f 144/746/656 143/188/656 147/192/656
f 144/193/657 149/195/657 145/189/657
f 145/189/658 149/195/658 152/190/658
f 149/195/659 147/194/659 151/747/659
f 146/197/660 148/232/660 150/198/660
f 152/190/661 149/195/661 158/201/661
f 148/232/662 154/202/662 150/198/662
f 150/198/663 155/203/663 153/204/663
f 154/202/664 156/233/664 157/206/664
f 155/203/665 157/206/665 153/204/665
f 158/201/666 153/205/666 160/748/666
f 160/208/667 157/207/667 159/211/667
f 158/201/668 162/749/668 169/165/668
f 162/214/669 160/208/669 165/216/669
f 162/749/670 168/750/670 169/165/670
f 161/215/671 164/222/671 163/212/671
f 130/176/672 181/227/672 184/218/672
f 142/187/673 140/186/673 191/220/673
f 121/751/674 166/228/674 216/298/674
f 130/176/675 127/171/675 176/226/675
f 165/216/676 166/228/676 167/238/676
f 137/183/677 188/235/677 191/220/677
f 168/217/678 165/216/678 167/238/678
f 164/222/679 161/215/679 210/230/679
f 127/171/680 125/162/680 174/231/680
f 148/232/681 198/237/681 201/223/681
f 168/750/682 124/163/682 169/165/682
f 166/228/683 214/229/683 216/298/683
f 137/183/684 134/180/684 184/234/684
f 148/232/685 146/197/685 196/236/685
f 159/211/686 208/225/686 210/230/686
f 125/162/687 121/161/687 216/240/687
f 166/228/688 121/751/688 122/239/688
f 167/238/689 123/241/689 124/242/689
f 142/187/690 193/221/690 196/243/690
f 217/245/691 173/248/691 170/246/691
f 171/247/692 170/246/692 216/240/692
f 173/252/693 179/251/693 175/255/693
f 175/249/694 178/256/694 174/231/694
f 176/226/695 174/231/695 180/257/695
f 178/256/696 182/752/696 180/257/696
f 179/251/697 177/253/697 186/260/697
f 179/251/698 186/260/698 182/258/698
f 180/257/699 183/753/699 184/218/699
f 183/263/700 182/262/700 187/265/700
f 184/234/701 183/263/701 185/266/701
f 186/260/702 189/267/702 187/264/702
f 186/260/703 200/271/703 189/267/703
f 185/266/704 187/265/704 192/269/704
f 188/235/705 185/266/705 190/270/705
f 191/220/706 190/270/706 195/272/706
f 195/272/707 192/269/707 194/274/707
f 194/273/708 189/267/708 199/276/708
f 196/236/709 195/754/709 197/279/709
f 194/755/710 199/277/710 197/279/710
f 196/236/711 197/279/711 198/237/711
f 197/279/712 203/280/712 198/237/712
f 202/283/713 199/276/713 206/281/713
f 203/280/714 202/278/714 207/284/714
f 200/271/715 218/259/715 206/281/715
f 202/278/716 211/756/716 207/284/716
f 205/224/717 203/280/717 204/285/717
f 205/224/718 204/285/718 208/244/718
f 204/286/719 209/288/719 208/225/719
f 211/282/720 213/294/720 209/290/720
f 212/289/721 209/288/721 213/292/721
f 214/229/722 212/289/722 215/293/722
f 211/282/723 172/250/723 213/294/723
f 172/250/724 218/259/724 177/253/724
f 215/293/725 213/292/725 217/296/725
f 214/229/726 215/293/726 171/297/726
f 219/361/727 220/299/727 221/301/727
f 220/299/728 222/305/728 223/300/728
f 221/302/729 223/757/729 226/303/729
f 260/304/730 226/303/730 231/319/730
f 222/305/731 224/307/731 225/306/731
f 223/757/732 225/309/732 226/303/732
f 225/306/733 228/308/733 229/758/733
f 224/307/734 227/311/734 228/308/734
f 226/303/735 236/313/735 231/319/735
f 229/310/736 228/759/736 232/760/736
f 232/316/737 230/315/737 233/321/737
f 229/310/738 232/760/738 235/317/738
f 236/313/739 229/310/739 238/318/739
f 235/322/740 233/321/740 234/323/740
f 238/318/741 235/317/741 237/761/741
f 237/324/742 234/323/742 239/326/742
f 243/320/743 236/313/743 241/325/743
f 238/318/744 237/761/744 242/328/744
f 242/327/745 239/326/745 240/359/745
f 240/762/746 244/331/746 242/333/746
f 241/325/747 249/329/747 243/320/747
f 242/328/748 246/763/748 249/329/748
f 245/334/749 247/335/749 246/332/749
f 246/763/750 248/337/750 249/329/750
f 246/332/751 251/336/751 248/764/751
f 247/335/752 250/354/752 251/336/752
f 248/764/753 251/336/753 254/765/753
f 249/329/754 254/338/754 255/330/754
f 251/339/755 250/356/755 252/340/755
f 254/338/756 251/766/756 253/767/756
f 253/341/757 252/340/757 256/342/757
f 254/338/758 253/767/758 258/344/758
f 255/330/759 254/338/759 259/345/759
f 258/343/760 256/342/760 257/348/760
f 258/343/761 257/348/761 219/346/761
f 259/345/762 258/344/762 221/302/762
f 231/319/763 259/345/763 260/304/763
f 261/768/764 270/769/764 267/770/764
f 270/769/764 269/771/764 267/770/764
f 268/772/764 267/770/764 269/771/764
f 267/770/764 266/773/764 261/768/764
f 266/773/764 265/774/764 261/768/764
f 261/768/764 265/774/764 262/775/764
f 265/774/764 264/776/764 262/775/764
f 263/777/764 262/775/764 264/776/764
f 224/307/765 262/352/765 263/778/765
f 220/299/766 261/362/766 262/352/766
f 257/348/767 256/342/767 270/349/767
f 247/335/768 267/358/768 268/353/768
f 219/346/769 270/349/769 261/779/769
f 250/354/770 268/353/770 269/780/770
f 227/311/771 224/307/771 263/778/771
f 230/315/772 227/781/772 263/360/772
f 234/323/773 233/321/773 264/357/773
f 256/342/774 269/350/774 270/349/774
f 244/331/775 240/762/775 266/363/775
f 271/431/776 273/364/776 272/366/776
f 272/367/777 274/782/777 278/368/777
f 313/369/778 278/368/778 276/373/778
f 273/364/779 275/370/779 274/365/779
f 274/782/780 277/374/780 278/368/780
f 275/370/781 279/421/781 280/783/781
f 275/370/782 280/783/782 277/371/782
f 277/371/783 280/783/783 281/784/783
f 278/368/784 281/375/784 296/372/784
f 279/421/785 282/423/785 280/783/785
f 281/375/786 280/785/786 283/376/786
f 296/372/787 281/375/787 285/377/787
f 285/377/788 283/376/788 287/386/788
f 283/380/789 282/379/789 286/382/789
f 286/382/790 284/381/790 288/384/790
f 287/383/791 286/382/791 289/385/791
f 289/385/792 288/384/792 290/389/792
f 285/377/793 287/386/793 293/388/793
f 296/372/794 285/377/794 293/388/794
f 293/388/795 289/387/795 291/786/795
f 291/390/796 290/389/796 292/430/796
f 291/393/797 294/392/797 295/398/797
f 291/786/798 295/394/798 293/388/798
f 293/388/799 298/395/799 296/372/799
f 294/392/800 297/396/800 295/398/800
f 297/396/801 299/402/801 300/397/801
f 295/394/802 300/399/802 298/395/802
f 298/395/803 303/400/803 306/401/803
f 299/402/804 301/404/804 302/403/804
f 300/397/805 302/403/805 303/787/805
f 303/400/806 302/788/806 304/406/806
f 306/401/807 303/400/807 305/407/807
f 304/408/808 301/427/808 307/409/808
f 305/789/809 304/408/809 309/410/809
f 306/401/810 305/407/810 312/412/810
f 309/410/811 307/409/811 308/413/811
f 312/412/812 309/411/812 311/790/812
f 311/414/813 308/413/813 310/415/813
f 312/412/814 311/790/814 272/367/814
f 276/373/815 312/412/815 313/369/815
f 272/416/816 310/415/816 271/425/816
f 314/791/764 324/792/764 319/793/764
f 324/792/764 323/794/764 319/793/764
f 319/793/764 323/794/764 320/795/764
f 323/794/764 322/796/764 320/795/764
f 321/797/764 320/795/764 322/796/764
f 319/793/764 318/798/764 314/791/764
f 314/791/764 318/798/764 315/799/764
f 318/798/764 317/800/764 315/799/764
f 315/799/764 317/800/764 316/801/764
f 310/415/817 323/419/817 324/424/817
f 307/409/818 322/428/818 323/419/818
f 297/396/819 294/392/819 320/420/819
f 279/421/820 275/370/820 316/802/820
f 271/425/821 324/424/821 314/803/821
f 273/364/822 314/432/822 315/417/822
f 299/402/823 297/396/823 320/420/823
f 290/389/824 318/426/824 319/429/824
f 275/370/825 315/417/825 316/802/825
f 301/427/826 321/804/826 322/428/826
f 279/421/827 316/802/827 317/422/827
f 284/381/828 282/379/828 317/433/828
f 294/392/829 319/434/829 320/420/829
f 288/384/830 284/381/830 317/433/830
f 308/413/831 307/409/831 323/419/831
f 326/586/832 327/435/832 325/437/832
f 327/435/833 329/438/833 328/436/833
f 329/438/834 331/587/834 330/439/834
f 332/440/835 348/805/835 349/441/835
f 332/440/836 333/442/836 335/443/836
f 334/444/837 335/443/837 337/445/837
f 337/445/838 326/447/838 336/446/838
f 336/806/320 325/807/320 334/462/320
f 334/462/320 325/807/320 330/808/320
f 325/807/320 328/809/320 330/808/320
f 339/460/839 341/450/839 338/449/839
f 340/451/840 341/450/840 342/588/840
f 340/451/841 342/588/841 344/452/841
f 344/589/842 345/454/842 343/456/842
f 345/454/843 347/590/843 346/455/843
f 347/590/844 349/457/844 346/455/844
f 330/459/845 331/810/845 339/460/845
f 340/811/320 343/812/320 338/463/320
f 343/812/320 346/813/320 348/461/320
f 348/461/320 332/814/320 334/462/320
f 343/812/320 348/461/320 338/463/320
f 330/808/320 338/463/320 334/462/320
f 351/466/846 350/465/846 352/468/846
f 350/465/847 375/815/847 376/467/847
f 352/468/848 376/467/848 383/470/848
f 354/471/849 383/470/849 385/526/849
f 354/471/850 385/526/850 389/472/850
f 374/474/851 373/532/851 395/475/851
f 357/477/852 356/476/852 395/475/852
f 358/479/853 357/477/853 397/478/853
f 360/482/854 401/480/854 404/483/854
f 361/485/855 359/481/855 360/482/855
f 350/486/856 360/482/856 406/484/856
f 364/492/857 362/488/857 418/491/857
f 365/495/858 364/492/858 425/493/858
f 368/497/859 366/494/859 365/495/859
f 367/498/860 365/495/860 427/496/860
f 368/500/861 367/503/861 369/501/861
f 369/501/862 431/504/862 434/507/862
f 370/502/863 369/501/863 437/505/863
f 371/506/864 437/505/864 441/508/864
f 372/509/865 441/508/865 373/510/865
f 389/512/866 411/490/866 363/489/866
f 375/815/867 410/514/867 376/467/867
f 376/467/868 377/515/868 380/517/868
f 377/515/869 407/816/869 379/516/869
f 409/519/870 398/521/870 378/523/870
f 381/524/871 380/517/871 382/525/871
f 383/470/872 381/524/872 385/526/872
f 379/520/873 409/519/873 384/527/873
f 385/526/874 382/525/874 387/529/874
f 382/525/875 379/516/875 386/528/875
f 373/532/876 443/534/876 394/533/876
f 443/534/877 442/817/877 393/535/877
f 393/536/878 442/818/878 440/537/878
f 440/537/879 435/540/879 391/539/879
f 435/540/880 432/542/880 390/541/880
f 432/542/881 422/573/881 405/522/881
f 397/478/882 395/475/882 394/533/882
f 396/543/883 393/535/883 392/547/883
f 400/544/884 394/533/884 396/543/884
f 399/545/885 391/539/885 390/541/885
f 398/521/886 390/541/886 405/522/886
f 401/480/887 397/478/887 400/544/887
f 403/546/888 396/543/888 392/547/888
f 402/819/889 392/538/889 399/545/889
f 404/483/890 401/480/890 400/544/890
f 404/483/891 400/544/891 403/546/891
f 408/549/892 403/546/892 402/548/892
f 407/518/893 402/819/893 399/545/893
f 410/551/894 404/483/894 408/549/894
f 409/519/895 399/545/895 398/521/895
f 375/487/896 406/484/896 410/551/896
f 377/552/897 408/549/897 407/550/897
f 417/553/898 411/490/898 412/554/898
f 416/555/899 412/554/899 413/556/899
f 421/558/900 413/581/900 414/559/900
f 420/560/901 414/559/901 415/561/901
f 419/562/902 415/561/902 422/573/902
f 425/493/903 418/491/903 417/553/903
f 424/563/904 417/553/904 416/555/904
f 423/564/905 416/555/905 421/557/905
f 427/496/906 425/493/906 424/563/906
f 427/496/907 424/563/907 423/564/907
f 426/565/908 423/564/908 421/557/908
f 429/567/909 421/558/909 420/560/909
f 428/568/910 420/560/910 419/562/910
f 431/499/911 427/496/911 426/565/911
f 430/569/912 426/565/912 429/566/912
f 431/504/913 430/571/913 433/570/913
f 428/568/914 419/562/914 432/542/914
f 433/570/915 429/572/915 436/577/915
f 429/567/916 428/568/916 435/540/916
f 434/507/917 433/570/917 438/576/917
f 438/576/918 436/577/918 440/580/918
f 441/508/919 439/575/919 443/579/919
f 439/575/920 438/576/920 442/578/920
f 422/573/921 415/561/921 378/523/921
f 415/561/922 414/559/922 384/527/922
f 384/527/923 414/559/923 413/581/923
f 386/530/924 413/581/924 412/582/924
f 412/554/925 411/490/925 388/584/925
f 326/586/926 361/464/926 351/466/926
f 327/435/927 351/466/927 353/469/927
f 329/438/928 353/469/928 354/471/928
f 331/587/929 354/471/929 355/473/929
f 339/460/930 331/810/930 355/513/930
f 333/442/931 349/441/931 374/474/931
f 335/443/932 333/442/932 357/477/932
f 337/445/933 335/443/933 358/479/933
f 326/447/934 337/445/934 359/481/934
f 341/450/935 339/460/935 362/488/935
f 342/588/936 341/450/936 364/492/936
f 344/452/937 342/588/937 368/497/937
f 344/589/938 368/500/938 370/502/938
f 345/454/939 370/502/939 371/506/939
f 347/590/940 371/506/940 372/509/940
f 349/457/941 372/509/941 374/511/941
f 444/594/942 445/597/942 446/595/942
f 447/591/943 446/820/943 450/600/943
f 447/591/944 451/601/944 452/592/944
f 448/598/945 449/657/945 450/599/945
f 449/657/946 453/651/946 454/602/946
f 450/599/947 449/657/947 454/602/947
f 451/601/948 450/821/948 457/607/948
f 454/602/949 453/651/949 455/605/949
f 454/822/950 456/610/950 457/611/950
f 455/608/951 458/614/951 459/609/951
f 456/610/952 459/609/952 457/611/952
f 457/607/953 463/619/953 465/604/953
f 460/615/954 462/653/954 464/616/954
f 461/612/955 467/617/955 463/613/955
f 462/653/956 466/666/956 464/616/956
f 478/620/957 463/619/957 470/823/957
f 467/626/958 464/623/958 469/622/958
f 466/621/959 468/624/959 469/622/959
f 470/628/960 467/626/960 472/627/960
f 472/627/961 469/622/961 474/630/961
f 478/620/962 470/823/962 477/636/962
f 471/625/963 473/633/963 474/630/963
f 477/636/964 472/824/964 481/637/964
f 475/631/965 474/630/965 476/634/965
f 475/631/966 480/635/966 481/632/966
f 476/656/967 479/639/967 480/641/967
f 477/636/968 483/638/968 489/593/968
f 481/825/969 480/641/969 482/640/969
f 479/639/970 484/642/970 482/640/970
f 483/648/971 481/825/971 482/640/971
f 484/642/972 479/639/972 530/644/972
f 482/640/973 486/643/973 487/649/973
f 448/598/974 445/597/974 494/646/974
f 483/648/975 482/640/975 487/649/975
f 453/651/976 499/658/976 504/652/976
f 483/638/977 488/663/977 489/593/977
f 462/653/978 460/615/978 512/654/978
f 468/624/979 518/660/979 521/661/979
f 484/642/980 485/674/980 486/643/980
f 476/656/981 527/717/981 530/644/981
f 458/614/982 508/671/982 512/654/982
f 471/625/983 468/624/983 521/661/983
f 487/649/984 486/643/984 490/672/984
f 476/634/985 473/633/985 525/662/985
f 444/594/986 537/676/986 494/646/986
f 444/667/987 485/674/987 535/668/987
f 458/614/988 455/608/988 504/670/988
f 486/643/989 485/674/989 444/667/989
f 468/624/990 466/621/990 518/660/990
f 484/642/991 533/645/991 535/668/991
f 447/591/992 487/664/992 446/820/992
f 489/593/993 488/663/993 447/591/993
f 497/682/994 493/681/994 491/722/994
f 494/646/995 492/675/995 496/647/995
f 495/677/996 491/826/996 493/678/996
f 496/647/997 495/677/997 498/680/997
f 500/679/998 493/678/998 501/687/998
f 501/683/999 497/682/999 503/685/999
f 499/658/1000 498/680/1000 502/686/1000
f 501/687/1001 505/827/1001 506/688/1001
f 502/686/1002 500/679/1002 506/688/1002
f 504/670/1003 502/692/1003 507/691/1003
f 508/671/1004 507/691/1004 511/694/1004
f 506/696/1005 505/689/1005 510/695/1005
f 509/693/1006 514/699/1006 511/694/1006
f 510/695/1007 517/701/1007 514/698/1007
f 511/694/1008 513/700/1008 515/655/1008
f 517/701/1009 503/685/1009 538/684/1009
f 513/700/1010 514/699/1010 516/828/1010
f 515/655/1011 513/700/1011 516/829/1011
f 515/659/1012 516/830/1012 518/660/1012
f 514/698/1013 520/702/1013 516/704/1013
f 516/830/1014 519/706/1014 518/660/1014
f 520/702/1015 517/701/1015 524/705/1015
f 521/661/1016 519/706/1016 522/708/1016
f 524/705/1017 538/684/1017 523/710/1017
f 520/702/1018 524/705/1018 522/707/1018
f 522/708/1019 526/712/1019 525/662/1019
f 526/712/1020 528/831/1020 527/665/1020
f 528/716/1021 531/715/1021 534/718/1021
f 530/644/1022 528/716/1022 532/719/1022
f 533/645/1023 532/719/1023 536/721/1023
f 529/711/1024 497/682/1024 534/720/1024
f 536/721/1025 534/718/1025 491/723/1025
f 491/723/1026 495/832/1026 492/724/1026
f 537/669/1027 536/721/1027 492/724/1027
